<?xml version="1.0" encoding="utf-8"?>
<!-- Generator: Adobe Illustrator 22.0.1, SVG Export Plug-In . SVG Version: 6.00 Build 0)  -->
<svg version="1.1" id="Layer_1" xmlns="http://www.w3.org/2000/svg" xmlns:xlink="http://www.w3.org/1999/xlink" x="0px" y="0px"
	 viewBox="0 0 1224 792" style="enable-background:new 0 0 1224 792;" xml:space="preserve">
<style type="text/css">
	.st0{fill:#EC174C;}
	.st1{fill:#00B2E6;}
	.st2{opacity:0.8;fill:#563284;enable-background:new    ;}
	.st3{opacity:0.6;fill:#00ABCC;enable-background:new    ;}
	.st4{opacity:0.8;fill:#004474;enable-background:new    ;}
	.st5{fill:#FFFFFF;}
	.st6{fill:#005288;}
	.st7{font-family:'Optimist-Light';}
	.st8{font-size:41.7961px;}
	.st9{fill:#D03027;}
	.st10{fill:#004977;}
</style>
<g>
	<g>
		<g>
			<polygon class="st0" points="835.2,199.5 769.8,177.5 711.3,208 691.2,263.4 671,208 652.1,198.2 633,208 612.4,228.3 
				592.5,208.5 572.6,198.2 553.7,208 552.6,211.2 551.4,208 544.6,204.4 519.4,252.6 544,324.3 691.2,471.5 838.3,324.3 
				862.8,252.6 			"/>
		</g>
	</g>
	<polygon class="st1" points="677.6,199.5 660.7,193.7 633,208 612.4,228.3 592.5,208.5 572.6,198.2 553.7,208 533.6,263.4 
		513.4,208 454.9,177.5 389.6,199.5 361.9,252.6 386.4,324.3 533.6,471.5 680.7,324.3 705.3,252.6 	"/>
	<polygon class="st2" points="797.2,199.5 731.8,177.5 673.3,208 653.2,263.4 633,208 612.4,228.3 592.5,208.5 549.3,185.9 
		509.2,199.5 481.4,252.6 506,324.3 653.2,471.5 800.3,324.3 824.8,252.6 	"/>
	<polygon class="st3" points="715.6,199.5 675.7,186 633,208 612.4,228.3 592.5,208.5 591.7,208.1 571.6,263.4 551.4,208 
		492.9,177.5 427.6,199.5 399.9,252.6 424.4,324.3 571.6,471.5 718.7,324.3 743.3,252.6 	"/>
	<polygon class="st4" points="756.4,199.5 691,177.5 632.5,208 612.4,228.3 592.2,208 533.7,177.5 468.4,199.5 440.7,252.6 
		465.2,324.3 612.4,471.5 759.5,324.3 784,252.6 	"/>
	<g>
		<g>
			<path class="st5" d="M508.4,318.6c-1.9,1-4,1.4-6.4,1.4c-3.2,0-5.7-1.1-7.4-3.1s-2.7-4.9-2.7-8.5c0-2.4,0.4-4.5,1.2-6.3
				c0.8-1.8,1.9-3.1,3.5-3.9c1.5-1,3.3-1.3,5.3-1.3c2.1,0,4.1,0.4,5.9,1.4v2.5c-1.9-1-3.7-1.4-5.7-1.4c-2.3,0-4.1,0.7-5.3,2.3
				c-1.2,1.5-1.8,3.8-1.8,6.7c0,3,0.6,5.2,1.9,6.7s3,2.2,5.4,2.2c1.2,0,2.1-0.1,3.1-0.4v-6.9H503l0.4-2.5h5V318.6L508.4,318.6z"/>
			<path class="st5" d="M516.5,319.4v-22.2h3v22.2H516.5z"/>
			<path class="st5" d="M528.6,319.4v-22.2h13.2v2.5h-10.2v7.6h8.9v2.5h-8.9v9.5L528.6,319.4L528.6,319.4z"/>
			<path class="st5" d="M553.4,319.4v-19.7H547v-2.5h15.7v2.5h-6.3v19.7H553.4z"/>
			<path class="st5" d="M580.5,319.4v-19.7h-6.4v-2.5h15.7v2.5h-6.4v19.7H580.5z"/>
			<path class="st5" d="M596.6,319.4v-22.2h3v9.5h9.9v-9.5h3v22.2h-3v-10.1h-10.1v10.1H596.6z"/>
			<path class="st5" d="M624.7,309.4v7.4h10.2v2.5h-13.2v-22.2h13.1v2.5h-10.2v7.2h8.9v2.5L624.7,309.4L624.7,309.4z"/>
			<path class="st5" d="M662.9,318.6c-1.8,1-3.6,1.4-5.8,1.4c-2.9,0-5.1-1.1-6.7-3.1s-2.4-4.9-2.4-8.5c0-3.6,0.8-6.5,2.4-8.5
				c1.6-2,3.8-3.1,6.7-3.1c1.9,0,3.9,0.4,5.7,1.4v2.5c-1-0.4-1.9-0.8-2.7-1.1c-0.8-0.2-1.7-0.3-2.5-0.3c-4.2,0-6.4,3-6.4,9
				s2.1,9,6.4,9c1,0,1.8-0.1,2.7-0.3c0.8-0.2,1.7-0.5,2.7-1.1L662.9,318.6L662.9,318.6z"/>
			<path class="st5" d="M669.4,308.3c0-3.7,0.7-6.6,2.3-8.6c1.6-1.9,3.8-3,6.8-3s5.2,1.1,6.8,3c1.6,1.9,2.3,4.9,2.3,8.6
				c0,3.7-0.7,6.6-2.3,8.6s-3.8,3-6.8,3s-5.2-1.1-6.8-3C670.1,314.9,669.4,312,669.4,308.3z M672.6,308.3c0,3.1,0.4,5.3,1.5,6.8
				c1,1.5,2.5,2.2,4.6,2.2s3.5-0.7,4.6-2.2c1-1.5,1.5-3.7,1.5-6.8c0-3.1-0.4-5.3-1.5-6.8c-1-1.5-2.5-2.2-4.6-2.2
				c-2,0-3.5,0.7-4.6,2.2S672.6,305.4,672.6,308.3z"/>
			<path class="st5" d="M695.8,319.4v-21.7c2.2-0.4,4.3-0.6,6.3-0.6c3.4,0,5.8,1,7.6,2.9s2.7,4.7,2.7,8.3c0,3.6-1,6.5-2.7,8.3
				c-1.8,1.9-4.4,2.9-7.9,2.9h-6V319.4z M701.7,316.9c2.5,0,4.3-0.7,5.5-2.1c1.2-1.4,1.9-3.5,1.9-6.6c0-3-0.5-5.1-1.8-6.6
				c-1.2-1.4-3-2.1-5.5-2.1c-1.1,0-2,0.1-3.2,0.3v17.1L701.7,316.9L701.7,316.9z"/>
			<path class="st5" d="M723.4,309.4v7.4h10.2v2.5h-13.2v-22.2h13.2v2.5h-10.2v7.2h8.9v2.5L723.4,309.4L723.4,309.4z"/>
			<g>
				<path class="st5" d="M564.1,283.9c-1.6,0-2.8-0.5-3.5-1.8c-0.8-1.2-1.2-2.9-1.2-5.1s0.4-4,1.2-5.1c0.8-1.2,1.9-1.8,3.5-1.8
					c0.6,0,1.2,0.1,1.8,0.2c0.5,0.2,1.2,0.4,1.9,0.7l0.2,0.1v-1.4h-0.1c-1.3-0.6-2.7-1-3.9-1c-1.9,0-3.5,0.7-4.7,2.2
					c-1.2,1.5-1.7,3.5-1.7,6s0.5,4.7,1.7,6c1.2,1.5,2.7,2.2,4.7,2.2c1.4,0,2.7-0.4,4-1h0.1v-1.4l-0.2,0.1
					C566.6,283.6,565.3,283.9,564.1,283.9z"/>
				<path class="st5" d="M571.5,279.2c-0.7,0.6-1.2,1.5-1.2,2.7c0,1.2,0.4,1.9,1.1,2.7c0.6,0.6,1.6,1,2.7,1c1.2,0,2.4-0.4,3.6-1.1
					l0.1,0.7l1.3-0.1v-7.7c0-1.3-0.4-2.2-1.2-3c-0.7-0.6-1.8-1.1-3.2-1.1c-0.6,0-1.3,0.1-1.9,0.2c-0.6,0.2-1.3,0.4-1.9,0.6H571v1.3
					l0.2-0.1c0.5-0.3,1.2-0.4,1.8-0.5c0.6-0.2,1.2-0.2,1.8-0.2c1.9,0,3,0.8,3,2.7v1.4C574.7,278.1,572.7,278.2,571.5,279.2z
					 M574.4,284c-1.7,0-2.5-0.7-2.5-2.2c0-0.8,0.3-1.4,0.7-1.8s1.3-0.5,2.3-0.5c0.8,0,1.7,0.1,2.7,0.3v3.5c-0.4,0.3-1.1,0.4-1.6,0.6
					C575.5,283.9,575,284,574.4,284z"/>
				<path class="st5" d="M592.2,279c0-1.9-0.4-3.3-1.2-4.3c-0.8-1.1-1.9-1.6-3.5-1.6c-1.1,0-2.1,0.4-3.3,1.1l-0.1-0.7l-1.3,0.1V290
					l1.6-0.2v-4.8c0.7,0.2,1.5,0.3,2.3,0.3c1.8,0,3.2-0.5,4.1-1.6C591.7,282.7,592.2,281.1,592.2,279z M587.3,274.5
					c1.1,0,1.9,0.4,2.4,1.2c0.5,0.7,0.8,1.9,0.8,3.5c0,1.7-0.4,3-1.1,3.7c-0.6,0.8-1.7,1.2-3,1.2c-0.7,0-1.6-0.1-2.2-0.4v-8.5
					c0.4-0.3,1-0.4,1.5-0.6C586.3,274.6,586.8,274.5,587.3,274.5z"/>
				<path class="st5" d="M596,271.1c0.3,0,0.5-0.1,0.7-0.3c0.2-0.2,0.3-0.4,0.3-0.8s-0.1-0.6-0.3-0.8c-0.2-0.2-0.4-0.3-0.7-0.3
					c-0.3,0-0.5,0.1-0.7,0.3c-0.2,0.2-0.3,0.4-0.3,0.8s0.1,0.6,0.3,0.8C595.4,271,595.6,271.1,596,271.1z"/>
				<polygon class="st5" points="595.2,285.1 596.8,285.1 596.8,273.4 595.2,273.6 				"/>
				<path class="st5" d="M605.8,285v-1.2h-0.2c-1.3,0.4-2.3,0.3-2.8-0.3c-0.3-0.4-0.4-1-0.4-1.7v-7.1h3.3v-1.3h-3.3v-3l-1.4,0.2
					l-0.1,2.8l-1.7,0.1v1.2h1.7v7c0,1.2,0.3,1.9,0.8,2.7c0.5,0.5,1.3,0.8,2.3,0.8C604.6,285.2,605.1,285.2,605.8,285L605.8,285z"/>
				<path class="st5" d="M608.7,279.2c-0.7,0.6-1.2,1.5-1.2,2.7c0,1.2,0.4,1.9,1.1,2.7c0.6,0.6,1.6,1,2.7,1c1.2,0,2.4-0.4,3.6-1.1
					l0.1,0.7l1.3-0.1v-7.7c0-1.3-0.4-2.2-1.2-3c-0.7-0.6-1.8-1.1-3.2-1.1c-0.6,0-1.3,0.1-1.9,0.2c-0.6,0.2-1.3,0.4-1.9,0.6h-0.1v1.3
					l0.2-0.1c0.5-0.3,1.2-0.4,1.8-0.5c0.6-0.2,1.2-0.2,1.8-0.2c1.9,0,3,0.8,3,2.7v1.4C611.9,278.1,609.8,278.2,608.7,279.2z
					 M611.6,284c-1.7,0-2.5-0.7-2.5-2.2c0-0.8,0.3-1.4,0.7-1.8c0.4-0.4,1.3-0.5,2.3-0.5c0.8,0,1.7,0.1,2.7,0.3v3.5
					c-0.4,0.3-1.1,0.4-1.6,0.6C612.6,283.9,612,284,611.6,284z"/>
				<polygon class="st5" points="619.8,285.1 621.4,285.1 621.4,267.8 619.8,268 				"/>
				<path class="st5" d="M641.5,283.2c1.2-1.4,1.7-3.5,1.7-6.2s-0.5-4.7-1.7-6.2c-1.2-1.4-2.7-2.1-4.8-2.1c-2,0-3.6,0.7-4.8,2.1
					c-1.2,1.4-1.7,3.5-1.7,6.2s0.5,4.7,1.7,6.2c1.2,1.4,2.7,2.1,4.8,2.1C638.9,285.3,640.5,284.6,641.5,283.2z M636.8,283.9
					c-3.2,0-4.7-2.2-4.7-6.9s1.5-6.9,4.7-6.9s4.7,2.2,4.7,6.9S640,283.9,636.8,283.9z"/>
				<path class="st5" d="M651.6,273.2c-1.2,0-2.4,0.4-3.6,1.1l-0.1-0.7l-1.3,0.1V285h1.6v-9.7c0.5-0.3,1.1-0.4,1.6-0.6
					s1.2-0.3,1.6-0.3c1.8,0,2.7,0.8,2.7,2.7v8h1.6v-8.2c0-1.2-0.4-2.1-1.1-2.7C653.7,273.5,652.7,273.2,651.6,273.2z"/>
				<path class="st5" d="M666.8,284.6L666.8,284.6l0.1-1.3l-0.2,0.1c-1.1,0.4-2,0.7-3.1,0.7c-2.7,0-3.9-1.5-3.9-4.5h7.4v-0.1
					c0.1-0.4,0.1-1.1,0.1-1.6c0-1.5-0.4-2.7-1.2-3.5c-0.7-0.8-1.9-1.3-3.2-1.3c-1.5,0-2.7,0.5-3.5,1.7c-0.8,1.2-1.3,2.7-1.3,4.5
					c0,1.9,0.4,3.5,1.4,4.5c1,1.1,2.2,1.6,3.9,1.6C664.7,285.3,665.8,285.2,666.8,284.6z M663.1,274.5c1,0,1.6,0.3,2.1,0.8
					c0.4,0.5,0.7,1.4,0.7,2.5c0,0.2,0,0.3,0,0.4h-6.2c0.1-1.2,0.4-2.1,1-2.8C661.3,274.8,662.1,274.5,663.1,274.5z"/>
				<polygon class="st5" points="541.1,336.6 533,336.6 533,329.3 531.5,329.3 531.5,345.8 533,345.8 533,338 541.1,338 
					541.1,345.8 542.7,345.8 542.7,329.3 541.1,329.3 				"/>
				<path class="st5" d="M557.5,329.3h-1.8l-5.6,16.2l-0.1,0.2h1.7l1.4-4.4h6.8l1.5,4.3v0.1h1.7L557.5,329.3L557.5,329.3z
					 M559.6,339.9h-5.9l3-8.9L559.6,339.9z"/>
				<path class="st5" d="M575.9,344.6c-1.6,0-2.9-0.5-3.6-1.8c-0.8-1.2-1.2-3-1.2-5.3c0-2.3,0.4-4.1,1.2-5.3c0.8-1.2,2-1.8,3.6-1.8
					c0.6,0,1.2,0.1,1.9,0.2c0.5,0.2,1.2,0.4,1.9,0.7l0.2,0.1V330h-0.1c-1.3-0.6-2.7-1.1-4-1.1c-2,0-3.6,0.7-4.8,2.2
					s-1.7,3.6-1.7,6.3c0,2.7,0.5,4.8,1.7,6.3c1.2,1.5,2.7,2.2,4.8,2.2c1.4,0,2.8-0.4,4.1-1.1h0.1v-1.4l-0.2,0.1
					C578.5,344.3,577.1,344.6,575.9,344.6z"/>
				<polygon class="st5" points="599.2,329.3 597.1,329.3 589.8,336.3 589.8,329.3 588.1,329.3 588.1,345.8 589.8,345.8 589.8,338 
					597.1,345.8 599.4,345.8 591,337.1 				"/>
				<path class="st5" d="M612.1,329.3h-1.8l-5.6,16.2l-0.1,0.2h1.7l1.4-4.4h6.8l1.5,4.3v0.1h1.7L612.1,329.3L612.1,329.3z
					 M614.3,339.9h-5.9l3-8.9L614.3,339.9z"/>
				<polygon class="st5" points="622.1,330.7 626.7,330.7 626.7,345.8 628.4,345.8 628.4,330.7 633.1,330.7 633.1,329.3 
					622.1,329.3 				"/>
				<polygon class="st5" points="650.3,336.6 642.2,336.6 642.2,329.3 640.6,329.3 640.6,345.8 642.2,345.8 642.2,338 650.3,338 
					650.3,345.8 651.9,345.8 651.9,329.3 650.3,329.3 				"/>
				<path class="st5" d="M666.9,328.9c-2,0-3.7,0.7-4.9,2.2c-1.2,1.5-1.7,3.6-1.7,6.4c0,2.7,0.5,4.9,1.7,6.4s2.8,2.2,4.9,2.2
					s3.7-0.7,4.9-2.2c1.2-1.5,1.7-3.6,1.7-6.4c0-2.7-0.5-4.9-1.7-6.4C670.7,329.7,669.1,328.9,666.9,328.9z M666.9,344.6
					c-3.3,0-4.9-2.3-4.9-7.1c0-4.8,1.6-7.1,4.9-7.1s4.9,2.3,4.9,7.1C671.8,342.3,670.2,344.6,666.9,344.6z"/>
				<polygon class="st5" points="691.8,329.3 691.8,342.8 683.6,329.3 683.5,329.3 682,329.3 682,345.8 683.6,345.8 683.6,332.2 
					691.8,345.7 691.9,345.8 693.4,345.8 693.4,329.3 				"/>
			</g>
		</g>
		<g>
			<path class="st5" d="M672.6,274.2c-0.5,0-1.1-0.1-1.5-0.4c-0.4-0.3-0.7-0.6-1.1-1.2c-0.4-0.5-0.4-1-0.4-1.5s0.1-1.2,0.4-1.6
				c0.3-0.4,0.6-0.8,1.1-1.1c0.4-0.2,1-0.4,1.4-0.4c0.5,0,1.1,0.1,1.5,0.4c0.4,0.3,0.7,0.6,1.1,1.2s0.4,1,0.4,1.5s-0.1,1.2-0.4,1.6
				c-0.3,0.4-0.6,0.8-1.1,1.1C673.5,274,673.1,274.2,672.6,274.2z M672.6,273.6c0.4,0,0.8-0.1,1.2-0.4c0.4-0.3,0.6-0.5,0.8-1
				c0.2-0.4,0.3-0.8,0.3-1.3c0-0.4-0.1-1-0.4-1.3c-0.2-0.4-0.4-0.6-0.8-1c-0.4-0.3-0.7-0.3-1.2-0.3c-0.4,0-0.8,0.1-1.2,0.4
				c-0.4,0.2-0.6,0.5-0.8,1c-0.2,0.4-0.3,0.8-0.3,1.3s0.1,1,0.4,1.3c0.2,0.4,0.4,0.6,0.8,1C671.7,273.7,672,273.6,672.6,273.6z
				 M673.3,272.7l-0.7-1.3H672v1.3h-0.4v-3.2c0.4-0.1,0.6-0.1,1-0.1c0.4,0,0.6,0.1,0.8,0.3c0.2,0.2,0.3,0.4,0.3,0.7
				c0,0.4-0.3,0.7-0.7,1l0.8,1.4L673.3,272.7L673.3,272.7L673.3,272.7z M671.9,271.1h0.4c0.3,0,0.4-0.1,0.5-0.2
				c0.1-0.1,0.2-0.3,0.2-0.4s-0.1-0.4-0.2-0.4c-0.1-0.1-0.3-0.2-0.5-0.2c-0.2,0-0.3,0-0.4,0V271.1z"/>
		</g>
		<g>
			<path class="st5" d="M739.1,300.8v-4.2h-1.4v-0.4h3.4v0.4h-1.4v4.3L739.1,300.8L739.1,300.8L739.1,300.8z M745.8,300.8l-0.3-3.9
				l-1.3,3.4h-0.4l-1.3-3.4l-0.2,3.9h-0.5l0.4-4.8h0.6l1.4,3.5l1.4-3.5h0.6l0.4,4.8H745.8z"/>
		</g>
	</g>
</g>
<text transform="matrix(1 0 0 1 369.5567 660.2891)" class="st6 st7 st8">Registration opens 9/20/18</text>
<g>
	<g>
		<path class="st6" d="M340.6,542.7L340.6,542.7l-3.5-0.1l-2.6,14.3h-11.8l2.6-14.2l0-0.1h-3.5l-2.6,14.3h-10.7v3.1h10.2l-2.1,11.8
			h-9.4v3.1h8.8l-2.6,14.2l0,0.1h3.5l2.6-14.3h11.8l-2.6,14.2l0,0.1h3.5l2.6-14.3h10.7v-3.1h-10.2l2.2-11.8h9.4v-3.1h-8.8
			L340.6,542.7z M334,560l-2.1,11.8H320l2.2-11.8H334z"/>
		<path class="st6" d="M384.1,573.4c0,4.4-1,7.8-3,9.9c-2,2.1-5.1,3.2-9.2,3.2c-4,0-7.1-1.1-9.1-3.3c-2-2.2-3-5.5-3-9.9v-31.8h-4.4
			v31.7c0,5.5,1.4,9.7,4.3,12.6c2.8,2.9,7,4.3,12.3,4.3c5.3,0,9.4-1.5,12.2-4.3c2.8-2.9,4.3-7.1,4.3-12.6v-31.7h-4.3V573.4z"/>
		<path class="st6" d="M415.2,570.4l-5.4-1.8c-2.2-0.7-3.7-1.5-4.5-2.3c-0.8-0.8-1.2-1.8-1.2-3.1c0-1.8,0.8-3.3,2.2-4.3
			c0.2-0.1,0.3-0.2,0.5-0.3c0.5-0.3,1-0.5,1.6-0.7c0.5-0.2,1-0.3,1.5-0.4c0.5-0.1,1.1-0.2,1.7-0.2c0.3,0,0.6-0.1,1-0.1
			c2.9,0,5.9,0.6,8.9,1.8l0.1,0v-3.3l0,0c-2.9-1.2-6-1.8-9.2-1.8c-3.8,0-6.9,0.9-9.1,2.6c-2.2,1.7-3.4,4-3.4,6.9
			c0,2.1,0.7,3.9,2,5.3c1.3,1.4,3.4,2.5,6.3,3.4l5.2,1.6c0.4,0.1,0.8,0.3,1.2,0.4c0.1,0.1,0.3,0.1,0.4,0.2c0.6,0.3,1.2,0.6,1.6,0.9
			c0.2,0.2,0.4,0.3,0.6,0.5c0.2,0.1,0.3,0.3,0.5,0.4c0.9,0.9,1.3,2.2,1.3,3.7c0,4.7-3.1,7.1-9.1,7.1c-3.6,0-7.1-0.7-10.5-2.2l-0.1,0
			l0.6,3.5l0,0l0,0c3,1.4,6.5,2.1,10.3,2.1c4.1,0,7.3-0.9,9.6-2.7c2.3-1.8,3.4-4.4,3.4-7.8c0-2.3-0.7-4.2-1.9-5.7
			C420,572.5,418,571.3,415.2,570.4z M420.2,558.6c-0.7-0.2-1.3-0.4-2-0.6C418.9,558.2,419.6,558.3,420.2,558.6z M415.9,557.5
			c-0.7-0.1-1.4-0.2-2.1-0.2C414.5,557.4,415.2,557.4,415.9,557.5z"/>
		<path class="st6" d="M446.1,553.9c-4.6,0-8.2,1.7-10.8,4.9c-2.6,3.3-3.9,7.8-3.9,13.5c0,5.7,1.4,10.2,4.2,13.3
			c2.8,3.1,6.9,4.6,12,4.6c3.6,0,6.9-0.8,10.1-2.2l0,0v-3.3l-0.1,0c-3.1,1.4-6.4,2.2-9.7,2.2c-4.1,0-7.3-1.2-9.3-3.5
			c-2.1-2.3-3.1-5.9-3.2-10.5h23.3l0,0c0.3-1.5,0.4-3.1,0.4-4.7c0-4.3-1.2-7.8-3.5-10.3C453.4,555.2,450.1,553.9,446.1,553.9z
			 M455.3,567.8c0,0.5,0,1.1-0.1,1.8h-19.7c0.1-3.7,1.2-6.8,3.1-9c1.9-2.2,4.4-3.4,7.5-3.4c2.9,0,5.2,0.9,6.8,2.8
			C454.5,561.8,455.3,564.5,455.3,567.8z"/>
		<path class="st6" d="M483.7,541.2c-3.7,0-8,0.5-12.8,1.4l0,0v46.6H483c7.3,0,13-2.1,17-6.2c3.9-4.1,6-10.1,6-17.8
			c0-7.5-2-13.5-5.9-17.7C496.1,543.3,490.6,541.2,483.7,541.2z M501.3,565.2c0,6.7-1.6,11.8-4.6,15.3c-3.1,3.4-7.7,5.2-13.7,5.2
			h-7.7v-40.1c3.2-0.5,5.9-0.7,8-0.7c6,0,10.5,1.7,13.5,5.1C499.8,553.3,501.3,558.5,501.3,565.2z"/>
		<polygon class="st6" points="517.4,555.3 517.4,589.2 521.6,589.2 521.6,554.7 517.5,555.3 		"/>
		<path class="st6" d="M519.5,540.6c-0.9,0-1.7,0.3-2.2,0.8c-0.6,0.6-0.9,1.3-0.9,2.3c0,1,0.3,1.7,0.9,2.3c0.6,0.5,1.3,0.8,2.2,0.8
			c0.9,0,1.7-0.3,2.2-0.8c0.6-0.6,0.9-1.3,0.9-2.3c0-1-0.3-1.7-0.9-2.3C521.2,540.9,520.4,540.6,519.5,540.6z"/>
		<path class="st6" d="M549.2,553.9c-5.4,0-9.6,1.6-12.5,4.8c-2.9,3.2-4.3,7.9-4.3,13.9c0,5.3,1.3,9.5,3.8,12.5
			c2.5,3,6.1,4.5,10.5,4.5c1.5,0,3.2-0.3,5-0.8c1.8-0.5,3.5-1.3,5.2-2.2v4.6c0,3.5-0.9,6.1-2.8,7.8c-1.9,1.7-4.7,2.6-8.5,2.6
			c-3.3,0-6.9-0.8-10.6-2.3l-0.1,0l0.6,3.6l0,0l0,0c2.8,1.4,6.3,2.1,10.3,2.1c4.9,0,8.7-1.2,11.3-3.7c2.6-2.4,4-6,4-10.5v-34.7l0,0
			C557.2,554.7,553.3,553.9,549.2,553.9z M556.8,558.4v25.1c-1.5,0.8-3.1,1.5-4.8,2c-1.7,0.5-3.3,0.7-4.8,0.7c-3.4,0-6-1.2-7.8-3.5
			c-1.8-2.3-2.7-5.7-2.7-10.2c0-5.2,1.1-9,3.1-11.5c2.1-2.5,5.3-3.7,9.6-3.7C552,557.3,554.5,557.7,556.8,558.4z"/>
		<polygon class="st6" points="574,555.3 574,589.2 578.2,589.2 578.2,554.7 574,555.3 		"/>
		<path class="st6" d="M576.1,540.6c-0.9,0-1.7,0.3-2.2,0.8c-0.6,0.6-0.9,1.3-0.9,2.3c0,1,0.3,1.7,0.9,2.3c0.6,0.6,1.3,0.8,2.2,0.8
			c0.9,0,1.7-0.3,2.2-0.8c0.6-0.6,0.9-1.3,0.9-2.3c0-1-0.3-1.7-0.9-2.3C577.8,540.9,577,540.6,576.1,540.6z"/>
		<path class="st6" d="M602.3,586.6c-2.1,0-3.6-0.6-4.6-1.6c-1-1.1-1.5-2.8-1.5-5.1v-21.7h10.2V555h-10.2v-9l-3.6,0.4l-0.4,8.5
			l-5.2,0.2l-0.1,0v3h5.2v21.6c0,3.3,0.8,5.9,2.5,7.6c1.6,1.7,4,2.6,7.2,2.6c1.6,0,3.3-0.3,5.2-1l0,0v-3.1l-0.1,0
			C605.2,586.4,603.7,586.6,602.3,586.6z"/>
		<path class="st6" d="M627.1,553.9c-1.9,0-3.9,0.2-6,0.7c-2.1,0.5-4,1.1-5.6,1.8l0,0v3.3l0.1,0c1.7-0.7,3.5-1.3,5.5-1.8
			c2-0.4,3.8-0.7,5.5-0.7c6.3,0,9.5,2.8,9.5,8.4v4.5c-3.4-0.6-6.4-0.9-9-0.9c-4.4,0-7.8,0.9-10.1,2.7c-2.3,1.8-3.4,4.4-3.4,7.8
			c0,3.2,1,5.8,3.1,7.6c2,1.8,4.8,2.8,8.3,2.8c3.8,0,7.6-1.1,11.5-3.2l0.3,2.3l0,0.1l3.5-0.3l0.1,0v-23.3c0-3.8-1.1-6.7-3.3-8.8
			C634.6,555,631.3,553.9,627.1,553.9z M636,584.1c-1.6,0.8-3.3,1.5-5.1,2c-1.8,0.5-3.5,0.7-5.1,0.7c-5.3,0-8-2.4-8-7.1
			c0-2.5,0.8-4.4,2.4-5.5c1.6-1.2,4.1-1.8,7.6-1.8c2.7,0,5.5,0.3,8.4,0.8V584.1z"/>
		<polygon class="st6" points="652.6,538.1 652.6,589.2 656.8,589.2 656.8,537.6 652.7,538.1 		"/>
		<polygon class="st6" points="670.8,589.2 675.2,589.2 675.2,567.9 695.3,567.9 695.3,564.3 675.2,564.3 675.2,545.2 698.3,545.2 
			698.3,541.6 670.8,541.6 		"/>
		<path class="st6" d="M718.5,553.9c-4.9,0-8.7,1.5-11.2,4.6c-2.5,3-3.8,7.6-3.8,13.5c0,6,1.3,10.5,3.8,13.6
			c2.5,3.1,6.3,4.6,11.2,4.6c4.9,0,8.7-1.5,11.2-4.6c2.5-3,3.8-7.6,3.8-13.6c0-5.9-1.3-10.5-3.8-13.5
			C727.2,555.5,723.5,553.9,718.5,553.9z M710.5,560.8c1.7-2.3,4.4-3.5,8.1-3.5c3.7,0,6.4,1.2,8.1,3.5c1.7,2.4,2.5,6.1,2.5,11.2
			c0,5.1-0.9,8.9-2.5,11.3c-1.7,2.4-4.4,3.5-8.1,3.5c-3.7,0-6.4-1.2-8.1-3.5c-1.7-2.4-2.5-6.1-2.5-11.3
			C707.9,567,708.8,563.2,710.5,560.8z"/>
		<path class="st6" d="M757.8,554.1c-3.4,0-6.7,1.2-9.7,3.7l-0.3-2.9l0-0.1l-3.5,0.3l-0.1,0v34h4.2V561c2.9-2.3,6-3.4,9.2-3.4
			c0.3,0,0.6,0,0.9,0.1c0.4,0,0.7,0.1,1.1,0.1c0.3,0.1,0.7,0.1,1.1,0.2l0.1,0v-3.4l0,0C760,554.3,759,554.1,757.8,554.1z"/>
		<path class="st6" d="M792.4,568L792.4,568l6.2,0.1v17.1c-2.9,0.9-5.8,1.4-8.8,1.4c-5.7,0-10-1.8-12.9-5.4
			c-2.9-3.6-4.4-8.9-4.4-15.8c0-6.8,1.5-12.1,4.4-15.8c2.9-3.6,7.2-5.5,12.6-5.5c4.1,0,8.2,1,12.2,2.9l0.1,0v-3.6l0,0
			c-3.9-1.9-8.1-2.9-12.6-2.9c-6.6,0-11.8,2.2-15.6,6.6c-3.8,4.4-5.7,10.5-5.7,18.2c0,7.8,1.9,13.9,5.7,18.3
			c3.8,4.4,9.1,6.6,15.9,6.6c4.7,0,9.2-1,13.2-2.9l0,0v-22.7h-9.7L792.4,568z"/>
		<path class="st6" d="M826.9,553.9c-4.9,0-8.7,1.5-11.2,4.6c-2.5,3-3.8,7.6-3.8,13.5c0,6,1.3,10.5,3.8,13.6
			c2.5,3.1,6.3,4.6,11.2,4.6c4.9,0,8.7-1.5,11.2-4.6c2.5-3,3.8-7.6,3.8-13.6c0-5.9-1.3-10.5-3.8-13.5
			C835.6,555.5,831.9,553.9,826.9,553.9z M818.9,560.8c1.7-2.3,4.4-3.5,8.1-3.5c3.7,0,6.4,1.2,8.1,3.5c1.7,2.4,2.5,6.1,2.5,11.2
			c0,5.1-0.9,8.9-2.5,11.3c-1.7,2.4-4.4,3.5-8.1,3.5s-6.4-1.2-8.1-3.5c-1.7-2.4-2.5-6.1-2.5-11.3C816.3,567,817.2,563.2,818.9,560.8
			z"/>
		<path class="st6" d="M865.4,553.9c-4.9,0-8.7,1.5-11.2,4.6c-2.5,3-3.8,7.6-3.8,13.5c0,6,1.3,10.5,3.8,13.6
			c2.5,3.1,6.3,4.6,11.2,4.6c4.9,0,8.7-1.5,11.2-4.6c2.5-3,3.8-7.6,3.8-13.6c0-5.9-1.3-10.5-3.8-13.5
			C874.1,555.5,870.3,553.9,865.4,553.9z M873.5,583.3c-1.7,2.4-4.4,3.5-8.1,3.5s-6.4-1.2-8.1-3.5c-1.7-2.4-2.5-6.1-2.5-11.3
			c0-5.1,0.9-8.8,2.5-11.2c1.7-2.3,4.4-3.5,8.1-3.5s6.4,1.2,8.1,3.5c1.7,2.3,2.5,6.1,2.5,11.2C876,577.2,875.1,581,873.5,583.3z"/>
		<path class="st6" d="M913.4,538.1L913.4,538.1l0,16.9c-2.3-0.7-4.9-1.1-7.7-1.1c-5.4,0-9.6,1.6-12.5,4.8
			c-2.9,3.2-4.3,7.9-4.3,13.9c0,5.5,1.3,9.8,3.8,12.9c2.5,3.1,6.1,4.7,10.5,4.7c3.2,0,6.7-1.1,10.5-3.2l0.3,2.3l0,0.1l3.5-0.3l0.1,0
			v-51.4L913.4,538.1z M908.5,586.1c-1.7,0.5-3.3,0.7-4.8,0.7c-3.4,0-6-1.2-7.8-3.6c-1.8-2.4-2.7-6-2.7-10.6c0-5.2,1.1-9,3.1-11.5
			c2.1-2.5,5.3-3.7,9.6-3.7c2.5,0,5,0.4,7.3,1.1v25.7C911.9,584.9,910.2,585.6,908.5,586.1z"/>
	</g>
</g>
<g>
	<path id="Icon_1_" class="st9" d="M633.6,105.7C633.6,105.7,633.6,105.7,633.6,105.7c-6.4,4.5-13.9,9.2-22,14.2l-0.3,0.2
		c-0.1,0.1-0.1,0.2-0.1,0.3c0.1,0.1,0.2,0.1,0.3,0.1l0.3-0.1c6.9-3.6,14.7-7.8,22.7-12.2c0,0,0.1,0,0.1-0.1
		C634.2,107.3,633.8,106.5,633.6,105.7z M675.2,72c-10-11-74.3-1.1-101.7,4.9l-0.6,0.1c-0.1,0-0.2,0.1-0.2,0.3
		c0,0.1,0.1,0.2,0.3,0.2l0.6-0.1c22.7-4,69.8-9.6,80,0.4c3.1,3.1,2.4,7-1.2,11.7c1.9,1.2,3.3,3.2,3.9,5.6
		C670.3,85.8,679.7,76.9,675.2,72z"/>
	<g id="Wordmark_1_">
		<path class="st10" d="M637.6,102.8c0.1,3.9,2.6,7.1,5.8,7.1c6.2,0,8.8-7.6,8.7-12.7c-0.1-3.9-2.7-7.1-5.8-7.1
			C640.9,90.1,637.4,97.7,637.6,102.8z M634.3,102.6c-0.2-6.6,5-13.4,12.5-13.4c5,0,8.3,3.4,8.5,8.5c0.2,7-4.6,13.4-12.5,13.4
			C637.8,111.1,634.5,107.7,634.3,102.6z"/>
		<path class="st10" d="M562.9,100.8c-0.3,0.1-0.6,0.2-1,0.3c-0.4,0.1-1.2,0.2-2.4,0.4c-0.8,0.1-1.3,0.3-1.6,0.5
			c-0.3,0.2-0.5,0.5-0.5,0.8c-0.1,0.3,0.1,0.6,0.3,0.8c0.3,0.2,0.8,0.3,1.5,0.3c0.5,0,1.1-0.1,1.6-0.2c0.5-0.2,0.9-0.4,1.3-0.7
			c0.2-0.2,0.4-0.5,0.5-0.8C562.7,102.1,562.8,101.6,562.9,100.8z M569.5,96.7c0,0.6-0.1,1.1-0.3,2.1l-1.1,6.2
			c-0.1,0.6,0.1,1,0.6,1.3l0,0.2l-6.3,0l-0.1-1.6c-0.9,0.6-2,1-3,1.3c-1,0.3-1.8,0.4-3,0.4c-2.1,0-3.2-0.2-4-0.9
			c-0.8-0.7-1.2-1.2-1.2-2.2c0-0.6,0.3-1.3,0.8-1.8c0.4-0.5,1-0.9,1.7-1.2c0.7-0.3,1.4-0.5,2.5-0.7c1.1-0.2,2.7-0.4,4.8-0.5
			c1.1-0.1,1.8-0.3,2.1-0.5c0.4-0.2,0.6-0.4,0.7-0.7c0.1-0.6-0.1-1-0.9-1.2c-2.3-0.4-6.6,0.3-8.8,0.8l1.2-3.2
			c2.9-0.4,5.6-0.7,8.5-0.7C568.1,93.8,569.5,95.1,569.5,96.7z"/>
		<path class="st10" d="M587.9,106.6l2.2-12.4h6.1l-2.2,12.4H587.9z M590.4,91.3c0.2-1,1.8-1.9,3.6-1.9c1.8,0,3.1,0.8,2.9,1.9
			c-0.2,1-1.8,1.9-3.6,1.9C591.6,93.1,590.3,92.3,590.4,91.3z"/>
		<path class="st10" d="M617.8,100.9c-0.3,0.1-0.6,0.2-1.1,0.3c-0.4,0.1-1.2,0.2-2.4,0.4c-0.8,0.1-1.3,0.3-1.6,0.5
			c-0.3,0.2-0.5,0.5-0.5,0.8c-0.1,0.3,0.1,0.6,0.3,0.8c0.3,0.2,0.8,0.3,1.5,0.3c0.5,0,1-0.1,1.6-0.2c0.5-0.2,0.9-0.4,1.3-0.7
			c0.2-0.2,0.4-0.5,0.5-0.8C617.5,102.1,617.6,101.6,617.8,100.9z M624.3,96.8c0,0.6-0.1,1.1-0.3,2.1l-1.1,6.2
			c-0.1,0.5,0.1,1,0.6,1.3l0,0.2l-6.3,0l0-1.6c-0.9,0.6-2,1-3.1,1.3c-1,0.3-1.8,0.4-3.1,0.4c-2,0-3.2-0.2-4-0.9
			c-0.8-0.7-1.2-1.2-1.2-2.2c0-0.6,0.3-1.3,0.8-1.8c0.4-0.5,1-0.9,1.7-1.2c0.7-0.3,1.4-0.5,2.5-0.7c1.1-0.2,2.7-0.4,4.8-0.5
			c1.1-0.1,1.8-0.3,2.1-0.5c0.4-0.2,0.6-0.4,0.7-0.7c0.1-0.6-0.1-1-0.9-1.2c-2.3-0.5-6.6,0.3-8.8,0.8l1.2-3.2
			c2.9-0.4,5.6-0.7,8.5-0.7C622.9,93.8,624.3,95.1,624.3,96.8z"/>
		<path class="st10" d="M550.1,102.1c-2,0.4-3.1,0.5-5,0.5c-2.9,0-5.2-1.4-5.1-4.1c0.1-1.8,2.2-5.5,7.5-5.5c1.7,0,3,0.3,4.7,1.3
			l0.8-4.3c-2.4-0.9-4-1-6-1c-6.9,0.1-13.6,3.2-14.4,9.7c-0.8,6.5,7.1,8.2,10.7,8.1c2,0,4.2-0.1,6.1-0.3L550.1,102.1z"/>
		<path class="st10" d="M599.5,94.1l0.4-2.5l6.4-1.4l-0.7,3.9h3.1l-0.6,2.5l-3,0l-1.8,10c0,0-6.1,0-6.1,0l1.8-10h-2.3l0.5-2.5H599.5
			z"/>
		<polygon class="st10" points="630.5,106.6 624.3,106.6 627.4,89.2 633.4,89.4 		"/>
		<path class="st10" d="M579.9,97c-0.8,0-1.5,0.2-2.2,0.7c-0.6,0.5-1,1.2-1.2,2.1c-0.2,1.1-0.1,1.9,0.4,2.3c0.4,0.5,1.1,0.7,1.9,0.7
			c0.6,0,1.1-0.1,1.5-0.3c0.5-0.3,0.9-0.6,1.2-1c0.3-0.5,0.6-1,0.7-1.6c0.2-1,0-1.7-0.4-2.2C581.3,97.3,580.7,97,579.9,97z
			 M568.8,110.9l3-16.7h5.3l-0.4,2.1c0.5-0.6,1.2-1.2,2.2-1.6c1-0.4,2.2-0.7,3.4-0.7c1.4,0,2.3,0.1,3.3,0.6c1,0.5,1.8,1.3,2.2,2.4
			c0.4,1,0.5,2.1,0.3,3.4c-0.4,2.1-1.4,3.7-3,4.9c-1.6,1.2-3.1,1.5-5.2,1.5c-0.7,0-1.4-0.1-1.9-0.2c-0.5-0.1-0.9-0.3-1.2-0.5
			c-0.3-0.2-0.6-0.5-1-0.9l-1,5.7H568.8z"/>
		<path class="st10" d="M679.1,98.6c0-1-0.5-1.7-1.6-1.7c-2.5,0-5.1,4.9-5.6,6.9C676,103.8,679.2,101.3,679.1,98.6z M679.7,106.2
			l0.5,0.3c-1.2,2.5-3.7,4.5-6.6,4.5c-2.4,0-4.3-1.6-4.4-4.6c-0.2-5.3,4.8-10.3,8.9-10.3c1.8,0,3.4,0.8,3.5,2.7
			c0.2,4.2-5.8,5.5-9.7,5.6c-0.1,0.4-0.2,0.9-0.2,1.6c0.1,1.8,1.1,3.2,3.3,3.2C676.8,109.3,678.7,107.7,679.7,106.2z"/>
		<path class="st10" d="M655.3,98.4c0.4-0.1,1.1-0.1,1.4-0.1c0.4,0,0.9,0.1,0.9,0.5c0,0.3-0.5,2.2-0.6,2.6l-0.9,4.2
			c-0.4,1.7-0.8,3.5-1.2,4.9h2.4l1.4-6.6c4.2-4.4,5.8-5.8,6.8-5.8c0.4,0,0.7,0.2,0.8,0.8c0,0.8-0.5,2.5-0.6,3l-1.4,4.8
			c-0.3,1.1-0.6,2.1-0.5,2.8c0,1.1,0.7,1.5,1.6,1.5c1.8,0,3.1-1.9,4.2-3.7l-0.3-0.6c-0.5,0.7-1.5,2.3-2.3,2.3
			c-0.3,0-0.5-0.2-0.5-0.6c0-0.6,0.2-1.4,0.4-2l1.6-5.7c0.4-1.6,0.6-2.6,0.6-3.1c0-1.1-0.7-1.6-1.6-1.6c-1.6,0-3.7,1.2-8.2,6.4H659
			l0.6-2.5c0.3-1.4,0.6-2.8,0.9-3.8c-1.6,0.6-3.8,1.2-5.2,1.5L655.3,98.4z"/>
	</g>
	<path id="Trademark_1_" class="st10" d="M681.8,93.9c0-1.2,1-2.2,2.2-2.2c1.2,0,2.2,0.9,2.2,2.2c0,1.3-1,2.2-2.2,2.2
		C682.8,96.1,681.8,95.2,681.8,93.9z M684,95.7c1,0,1.7-0.8,1.7-1.8c0-1-0.8-1.8-1.7-1.8c-1,0-1.8,0.8-1.8,1.8
		C682.3,95,683,95.7,684,95.7z M683.6,95.2h-0.4v-2.5h1c0.6,0,0.9,0.2,0.9,0.7c0,0.5-0.3,0.6-0.6,0.7l0.7,1.1h-0.4l-0.7-1.1h-0.4
		V95.2z M684,93.8c0.3,0,0.6,0,0.6-0.4c0-0.3-0.3-0.4-0.5-0.4h-0.5v0.8H684z"/>
</g>
</svg>
