<svg id="Layer_1" xmlns="http://www.w3.org/2000/svg" viewBox="0 0 175 110"><style>.st0{fill:#377449}</style><path class="st0" d="M4 6.9h-.6l.2-4.6H22l.2 4.6h-.6c-.2-1.3-.5-2.2-.9-2.7-.3-.6-.8-.9-1.3-.9-.5-.2-1.1-.2-2.2-.2h-3v13.4c0 1.4 0 2.5.2 3 0 .5.3.8.6 1.1.3.2.9.3 1.7.3h.9v.6H8.1v-.6H9c.8 0 1.4-.2 1.7-.3.3-.2.5-.5.6-.9s.2-1.4.2-3V3.3H8.8c-1.3 0-2.1 0-2.5.2-.5.1-.9.4-1.2 1-.6.3-.8 1.1-1.1 2.4zm22.9 4.9c.6-.8 1.3-1.4 1.9-1.7.6-.3 1.4-.6 2.4-.6.9 0 1.7.2 2.4.6.6.3.9.9 1.3 1.4.2.6.3 1.6.3 2.8V20c0 .3.2.5.5.6.3.2.8.2 1.4.2v.6h-6v-.6h.3c.6 0 1.1-.2 1.3-.3.2-.2.3-.5.3-.6V14c0-.9 0-1.6-.2-2.1s-.3-.8-.8-1.1-.9-.5-1.6-.5c-.8 0-1.4.2-1.9.6-.6.5-1.1 1.1-1.6 1.9v7c0 .3.2.5.5.6.3.2.6.2 1.3.2v.6h-5.8v-.6h.3c.6 0 1.1-.2 1.3-.3.2-.2.3-.5.3-.6V5.9c0-1.1-.2-1.9-.3-2.2-.2-.3-.8-.5-1.6-.5v-.6c1.4 0 2.7-.2 3.6-.6h.3l.1 9.8zm21.3 1.9h-8V15c0 2.1.3 3.5.9 4.6.6.9 1.6 1.6 2.8 1.6 1.7 0 2.8-.8 3.6-2.2h.6c-.3.9-.9 1.7-1.7 2.2-.9.5-1.9.8-2.8.8s-1.9-.3-2.7-.8-1.5-1.2-2-2.2c-.5-.9-.8-2.1-.8-3.3 0-1.7.5-3.3 1.6-4.6 1.1-1.3 2.4-1.7 3.9-1.7 1.6 0 2.7.5 3.5 1.4.6.8 1.1 1.9 1.1 2.9zm-2.5-.5v-.6c0-.8-.3-1.4-.8-1.9s-1.1-.6-1.7-.6c-1.7 0-2.7 1.1-3 3.2h5.5v-.1zm27.4 1h.6v6.6h-.6c-.2-.8-.5-1.4-.9-2.1-1.7 1.9-3.8 2.8-6.5 2.8s-5-.8-6.8-2.5c-1.7-1.7-2.7-4.1-2.7-6.9 0-1.9.5-3.6 1.3-5.4.8-1.6 1.9-2.8 3.3-3.6 1.4-.8 3-1.3 4.7-1.3 1.4 0 2.7.3 3.8.9s2.1 1.3 2.5 1.9c.5-.8.6-1.6.8-2.5h.6l.2 7.3h-.6c-.5-2.5-1.3-4.3-2.5-5.4-1.3-.9-2.7-1.4-4.4-1.4-2.1 0-3.6.8-4.7 2.4s-1.7 3.9-1.7 6.9c0 2.8.6 5 1.9 6.5 1.3 1.6 2.8 2.2 4.7 2.2.9 0 2.1-.3 3.2-.8s1.9-1.3 2.5-2.5c.8-.9 1.1-2 1.3-3.1zm13.2-.5h-8V15c0 2.1.3 3.5.9 4.6.6.9 1.6 1.6 2.8 1.6 1.7 0 2.8-.8 3.6-2.2h.6c-.3.9-.9 1.7-1.7 2.2-.9.5-1.9.8-2.8.8-.9 0-1.9-.3-2.7-.8S77.5 20 77 19s-.8-2.1-.8-3.3c0-1.7.5-3.3 1.6-4.6s2.4-1.7 3.9-1.7c1.6 0 2.7.5 3.5 1.4.7.8 1 1.9 1.1 2.9zm-2.5-.5v-.6c0-.8-.3-1.4-.8-1.9s-1.1-.6-1.7-.6c-1.7 0-2.7 1.1-3 3.2h5.5v-.1zm6.8-3.8h.3c.2.6.3 1.4.3 2.4.6-.8 1.4-1.4 2.1-1.7.8-.3 1.6-.6 2.4-.6.9 0 1.7.2 2.2.6.6.3.9.8 1.1 1.4.2.6.3 1.4.3 2.4v6c0 .3.2.5.5.6.3.2.6.2 1.4.2v.6h-5.8v-.6h.3c.6 0 1.1-.2 1.3-.3.2-.2.3-.5.3-.6v-6c0-.9 0-1.6-.2-1.9-.2-.3-.3-.8-.8-1.1-.3-.3-.9-.5-1.4-.5-.6 0-1.3.2-1.9.6-.6.5-1.3.9-1.7 1.9v7.1c0 .3.2.5.5.6.3.2.6.2 1.4.2v.6h-5.8v-.6c.6 0 1.1 0 1.4-.2.3-.2.5-.3.5-.6s.2-1.1.2-2.5v-5.9c0-.3-.2-.5-.5-.6-.3-.2-.6-.2-1.4-.2v-.6c1-.2 1.9-.4 3-.7zm18.5 1.1h-3.5v6.9c0 1.1 0 1.7.2 2.2.2.3.3.6.6.9.3.2.6.3.9.3.6 0 1.3-.3 1.7-1.1l.5.3c-.3.6-.8 1.1-1.3 1.4-.6.3-1.1.5-1.7.5-.6 0-1.3-.2-1.7-.6-.5-.5-.8-.8-.9-1.4-.2-.5-.2-1.4-.2-2.8v-6.5H102V10c.8 0 1.4-.3 2.1-.9.6-.6.9-1.6 1.1-2.7h.5V10h3.5v.5zm5.3 1.8c.3-.8.8-1.6 1.6-2.1.8-.6 1.4-.8 2.1-.8s1.1.2 1.4.6c.3.3.5.8.5 1.1 0 .3-.2.5-.3.6-.2.2-.5.3-.6.3-.5 0-.8-.3-1.1-1.1-.2-.5-.5-.6-.8-.6-.5 0-.9.3-1.4.8-.6.5-.9 1.1-1.1 1.7-.2.6-.3 1.4-.3 2.4v4.5c0 .3.2.6.5.8.2.2.6.3 1.3.3h.5v.6h-6.2v-.6h.3c.6 0 .9 0 1.3-.2.3-.2.3-.3.5-.6v-8c0-.3-.2-.6-.5-.8-.2-.2-.6-.3-1.3-.3h-.3v-.6c.9-.2 2.1-.3 3.5-.8.3.7.4 1.7.4 2.8zm16.1 1.4h-8V15c0 2.1.3 3.5.9 4.6.6.9 1.6 1.6 2.8 1.6 1.7 0 2.8-.8 3.6-2.2h.6c-.3.9-.9 1.7-1.7 2.2-.9.5-1.9.8-2.8.8s-1.9-.3-2.7-.8-1.6-1.1-2.1-2.1c-.5-.9-.8-2.1-.8-3.3 0-1.7.5-3.3 1.6-4.6 1.1-1.3 2.4-1.7 3.9-1.7s2.7.5 3.5 1.4c.7.7 1.2 1.8 1.2 2.8zm-2.4-.5v-.6c0-.8-.3-1.4-.8-1.9s-1.1-.6-1.7-.6c-1.7 0-2.7 1.1-3 3.2h5.5v-.1zM9.4 37v.6H7v9.3c0 .3.2.6.5.8.2.2.6.3 1.3.3h.6v.6H3.2V48c.6 0 1.1 0 1.3-.2.3-.1.5-.2.5-.5s.2-1.1.2-2.5v-6.9H2.9v-.6h2.2v-1.1c0-1.1 0-2.1.2-2.7.2-.6.3-1.3.8-1.9.5-.6.9-1.3 1.6-1.6.6-.3 1.4-.5 2.4-.5 1.1 0 2.1.2 2.7.6.6.5.9.9.9 1.4 0 .3-.2.5-.3.6-.2.2-.5.3-.6.3-.5 0-.9-.3-1.4-1.1-.5-.8-1.1-1.3-1.7-1.3-.6 0-1.1.2-1.6.6-.5.5-.6.9-.8 1.6-.3.7-.3 2.1-.3 4.2v.8l2.4-.2z"/><path class="st0" d="M10.2 42.7c0-1.7.6-3.2 1.7-4.4 1.1-1.1 2.7-1.7 4.3-1.7 1.7 0 3.2.6 4.4 1.7 1.1 1.3 1.7 2.7 1.7 4.4 0 1.9-.6 3.5-1.7 4.6-1.3 1.1-2.7 1.7-4.3 1.7-1.7 0-3.2-.6-4.3-1.7-1.2-1.1-1.8-2.7-1.8-4.6zm2.3.2c0 2.1.3 3.5.9 4.3.6.8 1.6 1.3 2.8 1.3 1.3 0 2.2-.5 2.8-1.3.6-.8.9-2.2.9-4.3s-.3-3.5-.9-4.3c-.6-.8-1.6-1.3-2.8-1.3-1.3 0-2.2.5-2.8 1.3-.5.8-.9 2.2-.9 4.3zm15-3.4c.3-.8.8-1.6 1.6-2.1.8-.6 1.4-.8 2.1-.8.6 0 1.1.2 1.4.6.3.3.5.8.5 1.1 0 .3-.2.5-.3.6s-.5.3-.6.3c-.5 0-.8-.3-1.1-1.1-.2-.5-.5-.6-.8-.6-.5 0-.9.3-1.4.8-.6.5-.9 1.1-1.1 1.7-.2.6-.3 1.4-.3 2.4v4.5c0 .3.2.6.5.8.2.2.6.3 1.3.3h.3v.6h-6.2V48h.3c.6 0 .9 0 1.3-.2s.3-.3.5-.6v-8c0-.3-.2-.6-.5-.8-.2-.2-.6-.3-1.3-.3h-.3v-.8c.9-.2 2.1-.3 3.5-.8.5.8.6 1.8.6 3zm24.8 5.7l6.9-15.6H65v.6h-.6c-.9 0-1.6 0-1.9.2-.3.2-.5.5-.6.8-.2.3-.2 1.4-.2 3v9.3c0 1.4 0 2.5.2 3 0 .5.3.8.6 1.1.3.2.9.3 1.7.3h.8v.6h-9.1v-.6h.6c.8 0 1.4-.2 1.7-.3.3-.2.5-.5.6-.9.2-.5.2-1.4.2-3V31.5l-7.6 17h-.6l-7.6-17v11c0 1.6 0 2.5.2 3.2.2.5.3 1.1.8 1.4.5.5 1.1.6 2.1.6v.6h-6.8v-.6c.8 0 1.4-.3 2.1-.6.5-.5.8-.9.9-1.4.2-.6.2-1.6.2-3.2v-8.2c0-1.6 0-2.5-.2-3s-.3-.8-.6-.9c-.3-.2-.9-.3-1.9-.3h-.5v-.5h5.8l7 15.6zm17.5-8.7v10.4c0 .3.2.6.5.8.2.2.6.3 1.3.3h.3v.6h-6.2V48h.5c.6 0 1.1-.2 1.3-.3.2-.2.3-.5.3-.6v-5.9c0-1.4 0-2.2-.2-2.5s-.3-.5-.5-.6c-.2 0-.6-.2-1.1-.2h-.3v-.6c1.7-.2 3-.5 3.8-.8h.3zm-2.7-5.8c0-.5.2-.8.5-1.1.3-.3.6-.5 1.1-.5s.8.2.9.5c.3.3.5.6.5 1.1s-.2.8-.5 1.1c-.3.3-.6.5-.9.5-.5 0-.8-.2-1.1-.5s-.5-.6-.5-1.1zm8.4 5.8h.3c.2.6.3 1.4.3 2.4.6-.8 1.4-1.4 2.1-1.7.8-.3 1.6-.6 2.4-.6.9 0 1.7.2 2.2.6.6.3.9.8 1.1 1.4.2.6.3 1.4.3 2.4v6c0 .3.2.5.5.6s.6.2 1.4.2v.6h-5.8v-.6h.3c.6 0 1.1-.2 1.3-.3.2-.2.3-.5.3-.6v-6c0-.9 0-1.6-.2-1.9-.2-.3-.3-.8-.8-1.1-.3-.3-.9-.5-1.4-.5-.6 0-1.3.2-1.9.6-.6.5-1.3.9-1.7 1.9V47c0 .3.2.5.5.6s.6.2 1.4.2v.6h-5.8v-.6c.6 0 1.1 0 1.4-.2s.3-.3.3-.6.2-1.1.2-2.5v-5.9c0-.3-.2-.5-.5-.6-.3-.2-.6-.2-1.4-.2v-.6c1.1 0 2.1-.3 3.2-.7zm20.9 1.8v-6.8c0-.3-.2-.6-.5-.8-.2-.2-.6-.3-1.3-.3h-.3v-.6c1.1 0 2.4-.2 3.6-.6h.3v17.9c0 .3.2.5.5.6s.6.2 1.4.2v.6c-1.4 0-2.5.2-3.6.3-.2-.5-.2-1.1-.2-2.1-.6.6-1.4 1.3-2.2 1.6s-1.4.5-2.2.5c-1.4 0-2.8-.6-3.8-1.7-1.1-1.3-1.6-2.7-1.6-4.3 0-1.9.5-3.3 1.6-4.6 1.1-1.1 2.4-1.7 3.9-1.7.8 0 1.6.2 2.2.5.8.3 1.6.6 2.2 1.3zm0 .8c-.6-.5-1.3-.9-1.9-1.3-.6-.3-1.3-.5-1.9-.5-1.1 0-1.9.5-2.7 1.3-.6.8-1.1 2.2-1.1 3.9 0 1.9.3 3.3 1.1 4.1.8.9 1.6 1.3 2.7 1.3.8 0 1.4-.2 2.1-.5.6-.3 1.1-.8 1.7-1.6v-6.7zm10.8-2.1v.6h-2.4v9.3c0 .3.2.6.5.8.2.2.6.3 1.3.3h.6v.6H101V48c.6 0 1.1 0 1.3-.2.3-.2.5-.3.5-.6s.2-1.1.2-2.5v-6.9h-2.2v-.6h2.2v-1.1c0-1.1 0-2.1.2-2.7.2-.6.3-1.3.8-1.9.5-.6.9-1.3 1.6-1.6.6-.3 1.4-.5 2.4-.5 1.1 0 2.1.2 2.7.6.6.5.9.9.9 1.4 0 .3-.2.5-.3.6s-.5.3-.6.3c-.5 0-.9-.3-1.4-1.1-.5-.8-1.1-1.3-1.7-1.3s-1.1.2-1.6.6c-.5.5-.6.9-.8 1.6-.2.6-.2 2.1-.2 4.1v.8h2.2z"/><path class="st0" d="M119.8 37v10c0 .3.2.6.5.8s.6.3 1.3.3v.6c-1.4 0-2.5.2-3.2.5h-.2c-.3-.5-.5-1.4-.5-2.7-.6.9-1.3 1.6-1.9 2.1-.8.5-1.6.6-2.4.6s-1.4-.2-2.1-.5c-.6-.3-.9-.8-1.3-1.3-.2-.5-.3-1.3-.3-2.2v-6.3c0-.3-.2-.5-.5-.6-.3-.2-.6-.2-1.4-.2v-.6h3.9v7.9c0 .8 0 1.4.2 1.7.2.3.3.6.8.9.3.3.8.5 1.3.5.8 0 1.4-.2 2.1-.6.6-.5 1.1-.9 1.3-1.4.3-.5.3-1.3.3-2.2v-4.7c0-.3-.2-.5-.3-.6-.2-.2-.6-.3-1.3-.3h-.3V38h3.9v-1zm6.3-7.7V47c0 .3.2.6.5.8.2.2.6.3 1.3.3h.3v.6H122v-.6h.3c.6 0 .9 0 1.3-.2s.3-.3.5-.6V33.5c0-1.3-.2-1.9-.3-2.2-.2-.3-.8-.5-1.6-.5v-.6c.6 0 1.3 0 2.1-.2s1.3-.3 1.6-.3h.3c-.1.1-.1-.4-.1-.4zm5.7 7.2h.3c.2.6.3 1.4.3 2.4.6-.8 1.4-1.4 2.1-1.7.8-.3 1.6-.6 2.4-.6.9 0 1.7.2 2.2.6.6.3.9.8 1.1 1.4.2.6.3 1.4.3 2.4v6c0 .3.2.5.5.6s.6.2 1.4.2v.6h-5.7v-.6h.3c.6 0 1.1-.2 1.3-.3.2-.2.3-.5.3-.6v-6c0-.9 0-1.6-.2-1.9-.2-.3-.3-.8-.8-1.1-.3-.3-.9-.5-1.4-.5-.6 0-1.3.2-1.9.6-.6.5-1.3.9-1.7 1.9V47c0 .3.2.5.5.6.3.2.6.2 1.4.2v.6h-5.8v-.6c.6 0 1.1 0 1.4-.2.3-.2.5-.3.5-.6s.2-1.1.2-2.5v-5.9c0-.3-.2-.5-.5-.6-.3-.2-.6-.2-1.4-.2v-.6c.8 0 1.8-.3 2.9-.7zm21.4 4.5h-8v1.3c0 2.1.3 3.5.9 4.6.6.9 1.6 1.6 2.8 1.6 1.7 0 2.8-.8 3.6-2.2h.6c-.3.9-.9 1.7-1.7 2.2-.9.5-1.9.8-2.8.8-.9 0-1.9-.3-2.7-.8-.8-.5-1.6-1.1-2.1-2.1-.5-.9-.8-2.1-.8-3.3 0-1.7.5-3.3 1.6-4.6 1.1-1.3 2.4-1.7 3.9-1.7s2.7.5 3.5 1.4c.7.7 1.2 1.7 1.2 2.8zm-2.4-.7v-.6c0-.8-.3-1.4-.8-1.9s-1.1-.6-1.7-.6c-1.7 0-2.7 1.1-3 3.2h5.5v-.1zm3.8 8.5V45h.6c.8 2.2 2.1 3.3 3.8 3.3.8 0 1.4-.2 1.7-.6.3-.5.6-.9.6-1.4 0-.6-.2-1.1-.6-1.4s-1.3-.8-2.5-1.4c-1.3-.6-2.2-1.1-2.8-1.7-.6-.5-.8-1.3-.8-2.1s.3-1.4.9-2.2c.6-.6 1.4-1.1 2.5-1.1s2.1.5 2.8 1.3c.2-.2.3-.5.6-.9h.6v3.5h-.6c-.2-.8-.6-1.6-1.3-2.2-.6-.6-1.3-.9-2.2-.9-.6 0-1.1.2-1.6.5-.3.3-.6.8-.6 1.3s.2.9.6 1.3c.5.3 1.3.8 2.4 1.3 1.7.8 2.8 1.4 3.3 2.1.5.6.6 1.4.6 2.1 0 .9-.3 1.7-1.1 2.4-.8.6-1.7.9-2.8.9-1.3 0-2.2-.5-3.2-1.3-.3.3-.5.6-.6 1.3l-.3-.3zM72.8 76v-3.8h.6c.8 2.2 2.1 3.3 3.8 3.3.8 0 1.4-.2 1.7-.6.5-.5.6-.9.6-1.4 0-.6-.2-1.1-.6-1.4-.5-.3-1.3-.8-2.5-1.4-1.3-.6-2.2-1.1-2.8-1.7-.6-.5-.8-1.3-.8-2.1s.3-1.4.9-2.2c.6-.6 1.4-1.1 2.5-1.1s2.1.5 2.8 1.3c.2-.2.3-.5.6-.9h.6v3.5h-.6c-.2-.8-.6-1.6-1.3-2.2-.6-.6-1.3-.9-2.2-.9-.6 0-1.1.2-1.6.5-.3.3-.6.8-.6 1.3s.2.9.6 1.3 1.3.8 2.4 1.3c1.7.8 2.8 1.4 3.3 2.1.5.6.6 1.4.6 2.1 0 .9-.3 1.7-1.1 2.4-.8.6-1.7.9-2.8.9-1.3 0-2.2-.5-3.2-1.3-.3.3-.5.6-.6 1.3l-.3-.3zm91.9-27.2V45h.6c.8 2.2 2.1 3.3 3.8 3.3.8 0 1.4-.2 1.7-.6.3-.5.6-.9.6-1.4 0-.6-.2-1.1-.6-1.4-.5-.3-1.3-.8-2.5-1.4-1.3-.6-2.2-1.1-2.8-1.7-.6-.5-.8-1.3-.8-2.1s.3-1.4.9-2.2c.6-.6 1.4-1.1 2.5-1.1s2.1.5 2.8 1.3c.2-.2.3-.5.6-.9h.6v3.5h-.6c-.2-.8-.6-1.6-1.3-2.2s-1.3-.9-2.2-.9c-.6 0-1.1.2-1.6.5-.3.3-.6.8-.6 1.3s.2.9.6 1.3c.5.3 1.3.8 2.4 1.3 1.7.8 2.8 1.4 3.3 2.1s.6 1.4.6 2.1c0 .9-.3 1.7-1.1 2.4-.8.6-1.7.9-2.8.9-1.3 0-2.2-.5-3.2-1.3-.3.3-.5.6-.6 1.3l-.3-.3zM3.6 75.5v-6.2h.6c.8 3.9 2.7 6 5.7 6 1.3 0 2.4-.3 3.2-1.1.8-.8 1.1-1.6 1.1-2.5 0-.9-.3-1.7-.9-2.4-.6-.6-1.9-1.3-3.5-2.1-1.7-.5-2.8-1.2-3.6-1.6-.8-.5-1.4-1.1-1.7-1.9-.5-.8-.6-1.6-.6-2.5 0-1.4.5-2.5 1.4-3.3.9-.9 2.1-1.4 3.6-1.4.8 0 1.6.2 2.2.3.6.3 1.4.8 2.2 1.6.5-.5.6-1.1.8-1.7h.6v4.9h-.6c-.3-1.4-.9-2.5-1.9-3.5-.9-.8-1.9-1.3-3.2-1.3-1.1 0-1.9.3-2.5.9-.5.6-.8 1.3-.8 2.1 0 .9.3 1.6.9 2.2.6.6 1.9 1.3 3.5 2.1s2.8 1.3 3.6 1.7c.8.5 1.3 1.1 1.7 1.9.5.8.6 1.7.6 2.7 0 1.6-.5 3-1.6 3.9-1.1.9-2.5 1.6-4.3 1.6-2.1 0-3.8-.8-5.2-2.4-.3.5-.5 1.1-.6 1.9h-.7v.1zm20.9-10.6H21v6.9c0 1.1 0 1.7.2 2.2.2.3.3.6.6.9.3.2.6.3.9.3.6 0 1.3-.3 1.7-1.1l.5.3c-.3.6-.8 1.1-1.3 1.4-.6.3-1.1.5-1.7.5-.6 0-1.3-.2-1.7-.6-.5-.5-.8-.8-.9-1.4-.2-.5-.2-1.4-.2-2.8V65h-1.7v-.8c.8 0 1.4-.3 2.1-.9.6-.6.9-1.6 1.1-2.7h.5v3.6h3.5l-.1.7zm12.3-.6v10c0 .3.2.6.5.8.3.2.6.3 1.3.3v.6c-1.4 0-2.5.2-3.2.5h-.2c-.3-.5-.5-1.4-.5-2.7-.6.9-1.3 1.6-1.9 2.1-.8.5-1.6.6-2.4.6-.8 0-1.4-.2-2.1-.5s-.9-.8-1.3-1.3c-.2-.5-.3-1.3-.3-2.2v-6.3c0-.3-.2-.5-.5-.6-.3-.2-.6-.2-1.4-.2v-1.1h3.9v7.9c0 .8 0 1.4.2 1.7s.3.6.8.9c.3.3.8.5 1.3.5.8 0 1.4-.2 2.1-.6s1.1-.9 1.3-1.4c.3-.5.3-1.3.3-2.2v-4.7c0-.3-.2-.5-.3-.6s-.6-.3-1.3-.3h-.3v-1.1h4zm12.5 1.3v-6.8c0-.3-.2-.6-.5-.8-.2-.2-.6-.3-1.3-.3h-.3V57c1.1 0 2.4-.2 3.6-.6h.3v17.9c0 .3.2.5.5.6.4.1.7.1 1.5.1v.6c-1.4 0-2.5.2-3.6.3-.2-.5-.2-1.1-.2-2.1-.6.6-1.4 1.3-2.2 1.6-.8.3-1.4.5-2.2.5-1.4 0-2.8-.6-3.8-1.7-1.1-1.2-1.6-2.6-1.6-4.2 0-1.9.6-3.3 1.6-4.6 1.1-1.1 2.4-1.7 3.9-1.7.8 0 1.6.2 2.2.5.8.3 1.5.7 2.1 1.4zm0 .7c-.6-.5-1.3-.9-1.9-1.3-.6-.3-1.3-.5-1.9-.5-1.1 0-1.9.5-2.7 1.3-.6.8-1.1 2.2-1.1 3.9 0 1.9.3 3.3 1.1 4.1.8.9 1.6 1.3 2.7 1.3.8 0 1.4-.2 2.1-.5s1.1-.8 1.7-1.6v-6.7zm8.7-2.5v10.4c0 .3.2.6.5.8.2.2.6.3 1.3.3h.2v.7h-6.2v-.6h.5c.6 0 1.1-.2 1.3-.3.2-.2.3-.5.3-.6v-5.9c0-1.4 0-2.2-.2-2.5-.2-.3-.3-.5-.5-.6-.2 0-.6-.2-1.1-.2h-.3v-.6c1.7-.2 3-.5 3.8-.8l.4-.1zM55.3 58c0-.5.2-.8.5-1.1s.6-.5 1.1-.5.8.2.9.5c.3.3.5.6.5 1.1 0 .5-.2.8-.5 1.1s-.6.5-.9.5c-.5 0-.8-.2-1.1-.5s-.5-.8-.5-1.1zm15.9 10.1h-8v1.3c0 2.1.3 3.5.9 4.6.6.9 1.6 1.6 2.8 1.6 1.7 0 2.8-.8 3.6-2.2h.6c-.3.9-.9 1.7-1.7 2.2-.9.5-1.9.8-2.8.8-.9 0-1.9-.3-2.7-.8-.8-.5-1.6-1.3-2.1-2.1-.5-.9-.8-2.1-.8-3.3 0-1.7.5-3.3 1.6-4.6s2.4-1.7 3.9-1.7c1.6 0 2.7.5 3.5 1.4.7.7 1.2 1.8 1.2 2.8zm-2.5-.5V67c0-.8-.3-1.4-.8-1.9s-1.1-.6-1.7-.6c-1.7 0-2.7 1.1-3 3.2h5.5v-.1zm22.1 7.9c-.3 0-.5-.2-.6-.5-1.3-5.8-2.1-12-2.1-18.1 0-.3.3-.6.6-.6s.6.3.6.6c0 6 .6 12 1.9 17.8.2.5 0 .8-.4.8.1 0 0 0 0 0zm11.5 11.2c-.3 0-.5-.2-.6-.3-3.9-9.3-5.8-19.1-6-29.3 0-.3.3-.6.6-.6s.6.3.6.6c0 9.9 2.1 19.7 5.8 28.9.2.2 0 .5-.4.7.1 0 .1 0 0 0zm13.9 9.5c-.2 0-.5-.2-.5-.3-7.9-11.5-12.1-24.9-12.1-38.8 0-.3.3-.6.6-.6s.6.3.6.6c0 13.7 4.1 26.8 12 38.2.2.3.2.6-.2.9-.1-.2-.3 0-.4 0z"/><path class="st0" d="M102.3 86.7c-.3 0-.5-.2-.6-.3-3.9-9.3-5.8-19.1-6-29.3 0-.3.3-.6.6-.6s.6.3.6.6c0 9.9 2.1 19.7 5.8 28.9.2.2 0 .5-.4.7.1 0 .1 0 0 0zm29.9 16.6c-.2 0-.3 0-.5-.2-13.4-11.7-21.1-28.4-21.1-46 0-.3.3-.6.6-.6s.6.3.6.6c0 17.3 7.6 33.7 20.7 45.1.3.2.3.6 0 .9.1.2-.1.2-.3.2zm-16-7.1c-.2 0-.5-.2-.5-.3-7.9-11.5-12.1-24.9-12.1-38.8 0-.3.3-.6.6-.6s.6.3.6.6c0 13.7 4.1 26.8 12 38.2.2.3.2.6-.2.9-.1-.2-.3 0-.4 0z"/><path class="st0" d="M153.5 107.8h-.2c-21.1-7.9-35.5-28.2-35.5-50.8 0-.3.3-.6.6-.6s.6.3.6.6c.2 22.1 14 42.1 34.7 49.7.3.2.5.5.3.8 0 .2-.3.3-.5.3z"/><path class="st0" d="M132.2 103.3c-.2 0-.3 0-.5-.2-13.4-11.7-21.1-28.4-21.1-46 0-.3.3-.6.6-.6s.6.3.6.6c0 17.3 7.6 33.7 20.7 45.1.3.2.3.6 0 .9.1.2-.1.2-.3.2zm39.9 1.4c-26.3 0-47.8-21.4-47.9-47.6 0-.3.3-.6.6-.6s.6.3.6.6c.2 25.5 21 46.5 46.7 46.5.3 0 .6.3.6.6.1.2-.3.5-.6.5z"/><path class="st0" d="M153.5 107.8h-.2c-21.1-7.9-35.5-28.2-35.5-50.8 0-.3.3-.6.6-.6s.6.3.6.6c.2 22.1 14 42.1 34.7 49.7.3.2.5.5.3.8 0 .2-.3.3-.5.3z"/><path class="st0" d="M172.1 98.7c-23 0-41.8-18.6-41.8-41.6 0-.3.3-.6.6-.6s.6.3.6.6c.2 22.2 18.3 40.4 40.5 40.4.3 0 .6.3.6.6.2.3-.2.6-.5.6z"/><path class="st0" d="M172.1 104.7c-26.3 0-47.8-21.4-47.9-47.6 0-.3.3-.6.6-.6s.6.3.6.6c.2 25.5 21 46.5 46.7 46.5.3 0 .6.3.6.6.1.2-.3.5-.6.5z"/><path class="st0" d="M172.1 93.3c-20 0-36.4-16.2-36.4-36.3 0-.3.3-.6.6-.6s.6.3.6.6c.2 19.2 15.9 35 35.2 35 .3 0 .6.3.6.6.1.4-.3.7-.6.7z"/><path class="st0" d="M172.1 98.7c-23 0-41.8-18.6-41.8-41.6 0-.3.3-.6.6-.6s.6.3.6.6c.2 22.2 18.3 40.4 40.5 40.4.3 0 .6.3.6.6.2.3-.2.6-.5.6z"/><path class="st0" d="M172.1 88.4c-17.3 0-31.5-14.2-31.7-31.5 0-.3.3-.6.6-.6s.6.3.6.6c.2 16.7 13.7 30.3 30.4 30.3.3 0 .6.3.6.6.2.5-.2.6-.5.6z"/><path class="st0" d="M172.1 93.3c-20 0-36.4-16.2-36.4-36.3 0-.3.3-.6.6-.6s.6.3.6.6c.2 19.2 15.9 35 35.2 35 .3 0 .6.3.6.6.1.4-.3.7-.6.7z"/><path class="st0" d="M172.1 84.2c-15 0-27.3-12.1-27.4-27.3 0-.3.3-.6.6-.6s.6.3.6.6c.2 14.4 11.8 26 26.2 26 .3 0 .6.3.6.6.1.5-.3.7-.6.7z"/><path class="st0" d="M172.1 88.4c-17.3 0-31.5-14.2-31.7-31.5 0-.3.3-.6.6-.6s.6.3.6.6c.2 16.7 13.7 30.3 30.4 30.3.3 0 .6.3.6.6.2.5-.2.6-.5.6z"/><path class="st0" d="M172.1 80.5c-12.9 0-23.5-10.6-23.7-23.5 0-.3.3-.6.6-.6s.6.3.6.6c.2 12.3 10.1 22.2 22.4 22.2.3 0 .6.3.6.6s-.2.7-.5.7z"/><path class="st0" d="M172.1 84.2c-15 0-27.3-12.1-27.4-27.3 0-.3.3-.6.6-.6s.6.3.6.6c.2 14.4 11.8 26 26.2 26 .3 0 .6.3.6.6.1.5-.3.7-.6.7z"/><path class="st0" d="M172.1 76.9c-11 0-20-9-20.2-20 0-.3.3-.6.6-.6s.6.3.6.6c.2 10.3 8.5 18.8 18.9 18.8.3 0 .6.3.6.6.2.3-.2.6-.5.6z"/><path class="st0" d="M172.1 80.5c-12.9 0-23.5-10.6-23.7-23.5 0-.3.3-.6.6-.6s.6.3.6.6c.2 12.3 10.1 22.2 22.4 22.2.3 0 .6.3.6.6s-.2.7-.5.7z"/><path class="st0" d="M172.1 73.6c-9.1 0-16.7-7.4-16.9-16.6 0-.3.3-.6.6-.6s.6.3.6.6c.2 8.5 7.1 15.5 15.6 15.5.3 0 .6.3.6.6s-.2.5-.5.5z"/><path class="st0" d="M172.1 76.9c-11 0-20-9-20.2-20 0-.3.3-.6.6-.6s.6.3.6.6c.2 10.3 8.5 18.8 18.9 18.8.3 0 .6.3.6.6.2.3-.2.6-.5.6z"/><path class="st0" d="M172.1 70.4c-7.4 0-13.6-6-13.7-13.6 0-.3.3-.6.6-.6s.6.3.6.6c.2 6.8 5.7 12.3 12.5 12.3.3 0 .6.3.6.6.1.6-.3.7-.6.7z"/><path class="st0" d="M172.1 73.6c-9.1 0-16.7-7.4-16.9-16.6 0-.3.3-.6.6-.6s.6.3.6.6c.2 8.5 7.1 15.5 15.6 15.5.3 0 .6.3.6.6s-.2.5-.5.5z"/><path class="st0" d="M172.1 67.5c-5.8 0-10.6-4.7-10.7-10.4 0-.3.3-.6.6-.6s.6.3.6.6c.2 5 4.4 9.3 9.5 9.3.3 0 .6.3.6.6s-.3.5-.6.5z"/><path class="st0" d="M172.1 70.4c-7.4 0-13.6-6-13.7-13.6 0-.3.3-.6.6-.6s.6.3.6.6c.2 6.8 5.7 12.3 12.5 12.3.3 0 .6.3.6.6.1.6-.3.7-.6.7z"/><path class="st0" d="M172.1 64.6c-4.3 0-7.7-3.3-7.9-7.6 0-.3.3-.6.6-.6s.6.3.6.6c.2 3.6 3 6.3 6.6 6.3.3 0 .6.3.6.6.2.4-.2.7-.5.7z"/><path class="st0" d="M172.1 67.5c-5.8 0-10.6-4.7-10.7-10.4 0-.3.3-.6.6-.6s.6.3.6.6c.2 5 4.4 9.3 9.5 9.3.3 0 .6.3.6.6s-.3.5-.6.5z"/></svg>