<svg id="Layer_1" data-name="Layer 1" xmlns="http://www.w3.org/2000/svg" viewBox="0 0 600 600"><defs><style>.cls-2{fill:#fff}</style></defs><path fill="#e31a52" d="M0 0h600v600H0z"/><path class="cls-2" d="M1.65 61.49h75.27a106.31 106.31 0 0 1 2.31 20.65q0 16.92-10.22 26.43t-28.57 9.51q-18.69 0-28.74-9.62t-10-27.41zm5.6 19.56q0 14.72 8.41 22.25t24.78 7.52q16.49 0 24.84-7.36t8.35-22a88.84 88.84 0 0 0-1.21-13.07H7.25zM38 147.42H7.25v37.47h-5.6v-44.4h76.92v44.29H73v-37.36H43.63v32.63H38zM1.65 221l76.92-27v7.36L8.9 224.89l69.67 23.74v7L1.65 228.74zM38 279.17H7.25v37.48h-5.6v-44.4h76.92v44.29H73v-37.37H43.63v32.64H38zM1.65 335.66h76.92v6.92H7.25v37h-5.6zM0 423.13q0-15.13 10.44-23.3t29.67-8.13q19.23 0 29.67 8.13t10.44 23.3q0 15.17-10.44 23.29t-29.67 8.14q-19.23 0-29.67-8.14T0 423.13zm5.6 0q0 24.17 34.51 24.17t34.51-24.17q0-24.13-34.51-24.13T5.6 423.13zM1.65 477h75.27q1 4.83 1.65 10.71a92.17 92.17 0 0 1 .66 10.05q0 12.75-6.21 20.11t-17.2 7.37q-11 0-17.25-7.64t-6.26-21v-12.7H1.65zm72.09 20a76.41 76.41 0 0 0-1.32-13.08H37.8v12.53q0 10.43 4.67 16t13.35 5.6q8.79 0 13.36-5.33T73.74 497zM1.1 533.46a5.05 5.05 0 0 1 1.37-3.63 4.89 4.89 0 0 1 3.68-1.42 4.9 4.9 0 0 1 3.69 1.42 5.49 5.49 0 0 1 0 7.26 4.9 4.9 0 0 1-3.69 1.42 4.89 4.89 0 0 1-3.68-1.42 5.07 5.07 0 0 1-1.37-3.63z"/><rect height="600" transform="rotate(180 0 300)" fill="#00c0e5" stroke="#231f20" stroke-miterlimit="10"/><path class="cls-2" d="M165.83 150.56v10.08h12.28v1.84h-14.55v-25.21h14.51v1.84h-12.24v9.61h10.69v1.84zm20.52 11.92l-6.84-18.11h2.27l5.65 15.8 5.83-15.8h2.16l-7 18.11zm24.77-.65a12.23 12.23 0 0 1-5.33 1.19 8.19 8.19 0 0 1-6.37-2.45q-2.23-2.44-2.23-7a11 11 0 0 1 2.09-7.13 6.93 6.93 0 0 1 5.72-2.59 6.54 6.54 0 0 1 5.06 2 7.72 7.72 0 0 1 1.85 5.45 14.22 14.22 0 0 1-.21 2.48h-12.39c0 5 2.25 7.53 6.66 7.53a12.23 12.23 0 0 0 5.15-1.15zM205 145.52a5 5 0 0 0-4 1.8 7.58 7.58 0 0 0-1.66 4.82h10.51a8 8 0 0 0 .08-1 6.08 6.08 0 0 0-1.3-4.14 4.57 4.57 0 0 0-3.63-1.48zm11.74 16.96v-18l1.83-.19.18 1.63a8 8 0 0 1 5.15-2 4.67 4.67 0 0 1 1.55.21v1.77a7.23 7.23 0 0 0-1.66-.22 7.82 7.82 0 0 0-4.9 1.84v14.94zm10.79 6.22a7.78 7.78 0 0 0 4-1.8 12 12 0 0 0 2.66-4.24l-6.91-18.29h2.27l5.65 15.87 5.8-15.87h2.16l-6.91 17.92a22.06 22.06 0 0 1-2 4.23 8.77 8.77 0 0 1-2.5 2.6 11 11 0 0 1-3.75 1.45zm25.47 0a7.78 7.78 0 0 0 4-1.8 12.19 12.19 0 0 0 2.66-4.24l-6.91-18.29H255l5.65 15.87 5.83-15.87h2.16l-6.91 17.92a22.67 22.67 0 0 1-2 4.23 8.8 8.8 0 0 1-2.51 2.6 11 11 0 0 1-3.74 1.45zm31.38-6.87a12.23 12.23 0 0 1-5.33 1.19 8.18 8.18 0 0 1-6.37-2.45q-2.24-2.44-2.23-7a11.07 11.07 0 0 1 2.08-7.13 7 7 0 0 1 5.73-2.59 6.55 6.55 0 0 1 5.06 2 7.72 7.72 0 0 1 1.85 5.45 13.3 13.3 0 0 1-.22 2.48h-12.38q0 7.53 6.66 7.53a12.26 12.26 0 0 0 5.15-1.15zm-6.16-16.31a5 5 0 0 0-4 1.8 7.53 7.53 0 0 0-1.66 4.82h10.51a7.77 7.77 0 0 0 .07-1 6.07 6.07 0 0 0-1.29-4.14 4.58 4.58 0 0 0-3.63-1.48zm22.86 17.03l-.14-1.26a12.55 12.55 0 0 1-6.12 1.73 6.35 6.35 0 0 1-4.4-1.46 5.14 5.14 0 0 1-1.62-4 4.93 4.93 0 0 1 1.82-4.12A8.55 8.55 0 0 1 296 152a27.12 27.12 0 0 1 4.82.5v-2.44q0-4.5-5.07-4.5a13.28 13.28 0 0 0-2.92.36 16.94 16.94 0 0 0-2.92.93v-1.69a13.8 13.8 0 0 1 3-1 15.22 15.22 0 0 1 3.19-.36 7.32 7.32 0 0 1 5.13 1.6 6 6 0 0 1 1.75 4.63v12.31zm-5.76-1.26a10.15 10.15 0 0 0 2.74-.4 12.94 12.94 0 0 0 2.73-1.08v-5.76a23.62 23.62 0 0 0-4.46-.43 6.78 6.78 0 0 0-4 .94 3.42 3.42 0 0 0-1.26 2.95c-.07 2.49 1.39 3.78 4.25 3.78zm13.39 1.19v-18l1.84-.19.18 1.63a8 8 0 0 1 5.15-2 4.6 4.6 0 0 1 1.54.21v1.77a7.08 7.08 0 0 0-1.65-.22 7.8 7.8 0 0 0-4.9 1.84v14.94zm8.17 5.43a12.23 12.23 0 0 0 1.57-2.66 7.28 7.28 0 0 0 .63-2.67 1.37 1.37 0 0 1-.83-.56 1.73 1.73 0 0 1-.29-1 1.62 1.62 0 0 1 .47-1.21 1.65 1.65 0 0 1 1.19-.45 1.44 1.44 0 0 1 1.22.56 2.42 2.42 0 0 1 .44 1.53 8 8 0 0 1-1 3.58 11.78 11.78 0 0 1-2.57 3.41zm33.23-5.43l-4.86-15.7-4.71 15.7h-2.06l-5.76-18.11h2.2l4.61 15.44 4.53-15.44h2.42l4.6 15.55 4.58-15.55h2.08l-5.58 18.11zm23.8-.65a12.23 12.23 0 0 1-5.33 1.19 8.19 8.19 0 0 1-6.37-2.45q-2.23-2.44-2.23-7a11.07 11.07 0 0 1 2.08-7.13 7 7 0 0 1 5.73-2.59 6.55 6.55 0 0 1 5.06 2 7.72 7.72 0 0 1 1.85 5.45 13.3 13.3 0 0 1-.22 2.48H362.1q0 7.53 6.66 7.53a12.26 12.26 0 0 0 5.15-1.15zm-6.16-16.31a5 5 0 0 0-4 1.8 7.53 7.53 0 0 0-1.66 4.82h10.51a7.77 7.77 0 0 0 .07-1 6.07 6.07 0 0 0-1.29-4.14 4.58 4.58 0 0 0-3.63-1.48zm20.77 16.96v-18l1.84-.19.18 1.63a8 8 0 0 1 5.15-2 4.71 4.71 0 0 1 1.55.21v1.77a7.23 7.23 0 0 0-1.66-.22 7.8 7.8 0 0 0-4.9 1.84v14.94zm23.11.07l-.14-1.26a12.49 12.49 0 0 1-6.12 1.73 6.32 6.32 0 0 1-4.39-1.46 5.14 5.14 0 0 1-1.62-4 4.9 4.9 0 0 1 1.82-4.12 8.52 8.52 0 0 1 5.34-1.42 27.13 27.13 0 0 1 4.83.5v-2.44c0-3-1.7-4.5-5.08-4.5a13.28 13.28 0 0 0-2.92.36 17.11 17.11 0 0 0-2.91.93v-1.69a13.44 13.44 0 0 1 3-1 15.13 15.13 0 0 1 3.18-.36 7.32 7.32 0 0 1 5.13 1.6 6 6 0 0 1 1.75 4.63v12.31zm-5.76-1.26a10.09 10.09 0 0 0 2.74-.4 13.24 13.24 0 0 0 2.74-1.08v-5.76a23.73 23.73 0 0 0-4.47-.43 6.78 6.78 0 0 0-4 .94 3.42 3.42 0 0 0-1.26 2.95q-.03 3.78 4.25 3.78zm13.4 1.19v-27l2.16-.29v27.33zm8.2 0v-27l2.16-.29v27.33zm5.73 6.22a7.78 7.78 0 0 0 4-1.8 12.19 12.19 0 0 0 2.67-4.24L433 144.37h2.26l5.66 15.87 5.83-15.87h2.16L442 162.29a22 22 0 0 1-2 4.23 8.77 8.77 0 0 1-2.5 2.6 11.06 11.06 0 0 1-3.74 1.45zm-257.43 43.13a12.23 12.23 0 0 1-5.33 1.19 8.19 8.19 0 0 1-6.37-2.45q-2.23-2.44-2.23-7a11.07 11.07 0 0 1 2.08-7.13 7 7 0 0 1 5.73-2.59 6.58 6.58 0 0 1 5.06 2 7.77 7.77 0 0 1 1.85 5.46 13.3 13.3 0 0 1-.22 2.48H164q0 7.53 6.66 7.53a12.23 12.23 0 0 0 5.15-1.15zm-6.16-16.31a5 5 0 0 0-4 1.8 7.53 7.53 0 0 0-1.66 4.82h10.51a7.77 7.77 0 0 0 .07-1 6.12 6.12 0 0 0-1.29-4.15 4.61 4.61 0 0 0-3.63-1.47zm18.11 7.6l6.77 9.36h-2.42l-5.5-7.78-5.57 7.78h-2.31l6.73-9.29-6.33-8.82h2.41l5.08 7.31 5.22-7.31h2.3zm10.11 17.38v-26l1.84-.18.14 1.26a11.54 11.54 0 0 1 5.62-1.73 6.77 6.77 0 0 1 5.54 2.46 10.47 10.47 0 0 1 2 6.83q0 4.78-2.29 7.34a8.4 8.4 0 0 1-6.6 2.56 14.07 14.07 0 0 1-4.11-.58v7.78zm7.31-24.94a9.31 9.31 0 0 0-2.55.39A13 13 0 0 0 200 197v13.68a13.12 13.12 0 0 0 3.93.58 6.33 6.33 0 0 0 5.13-2q1.66-2 1.67-6.14a9.48 9.48 0 0 0-1.42-5.65 4.81 4.81 0 0 0-4.17-1.91zm25.45 16.27a12.19 12.19 0 0 1-5.32 1.19 8.21 8.21 0 0 1-6.38-2.45c-1.48-1.63-2.23-4-2.23-7a11.07 11.07 0 0 1 2.09-7.13 6.94 6.94 0 0 1 5.72-2.59 6.55 6.55 0 0 1 5.06 2 7.72 7.72 0 0 1 1.86 5.46 14.21 14.21 0 0 1-.22 2.48h-12.38q0 7.53 6.66 7.53a12.19 12.19 0 0 0 5.14-1.15zm-6.15-16.31a5 5 0 0 0-4 1.8 7.58 7.58 0 0 0-1.65 4.82h10.51a7.77 7.77 0 0 0 .07-1 6.07 6.07 0 0 0-1.3-4.15 4.57 4.57 0 0 0-3.63-1.47zm11.77 16.96v-18l1.84-.18.18 1.62a8 8 0 0 1 5.14-2 4.63 4.63 0 0 1 1.55.21v1.77a7.15 7.15 0 0 0-1.65-.22 7.84 7.84 0 0 0-4.9 1.83v14.95zM251.26 196v11.52a4 4 0 0 0 .79 2.76 3.12 3.12 0 0 0 2.45.88 8.77 8.77 0 0 0 2.45-.4v1.59a9 9 0 0 1-2.78.5 5 5 0 0 1-3.78-1.35 5.6 5.6 0 0 1-1.29-4V196h-2.74v-1.54l2.81-.11.22-4.54 1.87-.22v4.76h5.43V196zm8.02 14.1a13.75 13.75 0 0 0 5.58 1.19c3.25 0 4.86-1.26 4.86-3.78a2.77 2.77 0 0 0-.7-2 5.17 5.17 0 0 0-2.32-1.26l-2.7-.85a7.76 7.76 0 0 1-3.34-1.81 3.9 3.9 0 0 1-1.05-2.79 4.3 4.3 0 0 1 1.79-3.62 7.75 7.75 0 0 1 4.8-1.35 12.37 12.37 0 0 1 4.86 1v1.69a13.14 13.14 0 0 0-4.75-.93 5.73 5.73 0 0 0-3.33.84 2.68 2.68 0 0 0-1.21 2.32 2.19 2.19 0 0 0 .67 1.68 6.6 6.6 0 0 0 2.39 1.2l2.85.94a7.14 7.14 0 0 1 3.22 1.91 4.47 4.47 0 0 1 1 3 5 5 0 0 1-1.8 4.11A7.93 7.93 0 0 1 265 213a12.87 12.87 0 0 1-5.44-1.12zm26.72 2.38V196h-2.7v-1.54l2.73-.11v-4.05a5.8 5.8 0 0 1 1.32-4.09 5 5 0 0 1 3.83-1.42 8.05 8.05 0 0 1 2.77.51v1.58a8.6 8.6 0 0 0-2.48-.4 3.18 3.18 0 0 0-2.48.88 4 4 0 0 0-.8 2.76v4.25h4.86V196h-4.86v16.46zm11.05 0v-18l1.83-.18.18 1.62a8 8 0 0 1 5.15-2 4.63 4.63 0 0 1 1.55.21v1.77a7.16 7.16 0 0 0-1.66-.22 7.84 7.84 0 0 0-4.89 1.83v14.95zm18.75.52a7.22 7.22 0 0 1-5.92-2.43q-2-2.43-2-7.19t2-7.14a8.44 8.44 0 0 1 11.85 0q2 2.43 2 7.14t-2 7.19a7.24 7.24 0 0 1-5.93 2.43zm0-1.73a4.94 4.94 0 0 0 4.31-1.89q1.35-1.89 1.35-6c0-2.71-.45-4.69-1.35-6a5.87 5.87 0 0 0-8.61 0c-.9 1.27-1.35 3.25-1.35 6s.45 4.74 1.35 6a4.93 4.93 0 0 0 4.3 1.91zm34.46 1.21v-12.86q0-4.06-3.86-4.06a10.74 10.74 0 0 0-5.11 1.62 7.31 7.31 0 0 1 .29 2.08v13.22h-2.16v-12.86q0-4.06-3.85-4.06a10.21 10.21 0 0 0-4.83 1.47v15.45h-2.16v-18l1.84-.18.14 1.26a11.42 11.42 0 0 1 5.55-1.73 5.09 5.09 0 0 1 4.57 2.09 12.47 12.47 0 0 1 6.26-2.09 5.52 5.52 0 0 1 4.05 1.4 5.42 5.42 0 0 1 1.43 4v13.22zm32.83-1.01a14.37 14.37 0 0 1-6.48 1.55 9 9 0 0 1-7.49-3.48c-1.8-2.31-2.7-5.54-2.7-9.66s.9-7.35 2.7-9.67a9 9 0 0 1 7.49-3.48 14.11 14.11 0 0 1 6.37 1.55v1.84a16.32 16.32 0 0 0-3.1-1.15 12.22 12.22 0 0 0-3-.36 6.9 6.9 0 0 0-6 2.86q-2 2.86-2 8.41t2 8.4a6.9 6.9 0 0 0 6 2.86 14.13 14.13 0 0 0 6.19-1.51zm16.02 1.08l-.15-1.26a12.49 12.49 0 0 1-6.12 1.73 6.34 6.34 0 0 1-4.39-1.46 5.13 5.13 0 0 1-1.62-4 4.93 4.93 0 0 1 1.82-4.12A8.54 8.54 0 0 1 394 202a27.12 27.12 0 0 1 4.82.5v-2.44q0-4.5-5.08-4.5a13.19 13.19 0 0 0-2.91.36 16.94 16.94 0 0 0-2.92.93v-1.69a13.8 13.8 0 0 1 3-1 15.22 15.22 0 0 1 3.19-.36 7.35 7.35 0 0 1 5.13 1.6 6 6 0 0 1 1.74 4.63v12.31zm-5.76-1.26a10.08 10.08 0 0 0 2.73-.4 13 13 0 0 0 2.74-1.08v-5.76a23.62 23.62 0 0 0-4.46-.43 6.82 6.82 0 0 0-4 .94 3.42 3.42 0 0 0-1.26 2.95q-.04 3.78 4.25 3.78zm13.39 9.21v-26l1.84-.18.14 1.26a11.51 11.51 0 0 1 5.62-1.73 6.78 6.78 0 0 1 5.54 2.46 10.53 10.53 0 0 1 2 6.83c0 3.19-.77 5.64-2.29 7.34A8.43 8.43 0 0 1 413 213a14.06 14.06 0 0 1-4.1-.58v7.78zm7.31-24.94a9.38 9.38 0 0 0-2.56.39 13.11 13.11 0 0 0-2.59 1.05v13.68a13.1 13.1 0 0 0 3.92.58 6.31 6.31 0 0 0 5.13-2q1.68-2 1.68-6.14a9.55 9.55 0 0 0-1.42-5.65 4.83 4.83 0 0 0-4.16-1.91zm13.78-5.56a1.63 1.63 0 0 1-1.17-.44 1.82 1.82 0 0 1 0-2.37 1.79 1.79 0 0 1 2.35 0 1.82 1.82 0 0 1 0 2.37 1.64 1.64 0 0 1-1.18.44zm-1.07 22.5v-17.95l2.15-.29v18.22zm10.87-16.5v11.52a4 4 0 0 0 .79 2.76 3.12 3.12 0 0 0 2.45.88 8.77 8.77 0 0 0 2.45-.4v1.59a9 9 0 0 1-2.78.5 5 5 0 0 1-3.78-1.35 5.6 5.6 0 0 1-1.29-4V196h-2.74v-1.54l2.81-.11.22-4.54 1.87-.22v4.76h5.43V196zm20.52 16.55l-.15-1.26a12.49 12.49 0 0 1-6.12 1.73 6.32 6.32 0 0 1-4.39-1.46 5.13 5.13 0 0 1-1.62-4 4.93 4.93 0 0 1 1.82-4.12A8.52 8.52 0 0 1 453 202a27.13 27.13 0 0 1 4.83.5v-2.44q0-4.5-5.08-4.5a13.12 13.12 0 0 0-2.91.36 16.94 16.94 0 0 0-2.92.93v-1.69a13.62 13.62 0 0 1 3-1 15.22 15.22 0 0 1 3.19-.36 7.35 7.35 0 0 1 5.13 1.6 6 6 0 0 1 1.74 4.63v12.31zm-5.76-1.26a10.08 10.08 0 0 0 2.73-.4 13.24 13.24 0 0 0 2.74-1.08v-5.76a23.62 23.62 0 0 0-4.46-.43 6.82 6.82 0 0 0-4 .94 3.42 3.42 0 0 0-1.26 2.95q-.04 3.78 4.25 3.78zm13.39 1.19v-27l2.16-.29v27.33zm26.71.52a9.09 9.09 0 0 1-7.63-3.42q-2.67-3.42-2.66-9.72t2.66-9.73a10.22 10.22 0 0 1 15.26 0q2.67 3.43 2.67 9.73t-2.67 9.72a9.09 9.09 0 0 1-7.63 3.42zm0-1.84q7.92 0 7.92-11.3t-7.92-11.31q-7.92 0-7.92 11.31t7.92 11.32zm27.61 1.32V200q0-4.42-4.5-4.42a10 10 0 0 0-2.6.42 16.4 16.4 0 0 0-2.8 1v15.45H508v-18l1.84-.18.14 1.26a12.56 12.56 0 0 1 6.12-1.73 6.32 6.32 0 0 1 4.52 1.51 5.59 5.59 0 0 1 1.6 4.28v12.86zm20.7-.65a12.2 12.2 0 0 1-5.33 1.19 8.19 8.19 0 0 1-6.37-2.45q-2.24-2.44-2.23-7a11.07 11.07 0 0 1 2.09-7.13 6.94 6.94 0 0 1 5.72-2.59 6.57 6.57 0 0 1 5.06 2 7.72 7.72 0 0 1 1.85 5.46 14.22 14.22 0 0 1-.21 2.48H529q0 7.53 6.66 7.53a12.2 12.2 0 0 0 5.15-1.15zm-6.15-16.31a5 5 0 0 0-4 1.8 7.64 7.64 0 0 0-1.66 4.82h10.52c0-.38.07-.72.07-1a6.07 6.07 0 0 0-1.3-4.15 4.57 4.57 0 0 0-3.63-1.47zm-360.54 67.03l-.14-1.26a12.55 12.55 0 0 1-6.12 1.73 6.32 6.32 0 0 1-4.39-1.46 5.13 5.13 0 0 1-1.62-4 4.92 4.92 0 0 1 1.81-4.12A8.55 8.55 0 0 1 169 252a27 27 0 0 1 4.82.5v-2.44q0-4.5-5.07-4.5a13.28 13.28 0 0 0-2.92.36 16.83 16.83 0 0 0-2.91.93v-1.69a13.44 13.44 0 0 1 3-1 15.05 15.05 0 0 1 3.18-.36 7.32 7.32 0 0 1 5.13 1.6 6 6 0 0 1 1.75 4.63v12.31zm-5.76-1.26a10.09 10.09 0 0 0 2.74-.4 12.94 12.94 0 0 0 2.73-1.08v-5.76a23.62 23.62 0 0 0-4.46-.43 6.78 6.78 0 0 0-4 .94 3.42 3.42 0 0 0-1.26 2.95q-.03 3.78 4.25 3.78zm25.45 1.19V250q0-4.42-4.5-4.42a10 10 0 0 0-2.61.39 16.73 16.73 0 0 0-2.79 1.03v15.45h-2.16v-18l1.84-.18.14 1.26a12.56 12.56 0 0 1 6.12-1.73 6.32 6.32 0 0 1 4.52 1.51 5.6 5.6 0 0 1 1.6 4.28v12.86zm21.93-27.33v27.22l-1.84.18-.14-1.26a11.64 11.64 0 0 1-5.62 1.73 6.78 6.78 0 0 1-5.54-2.47 10.44 10.44 0 0 1-2-6.82q0-4.78 2.29-7.35a8.39 8.39 0 0 1 6.6-2.55 14.08 14.08 0 0 1 4.11.57v-9zm-7.31 26.14a9.1 9.1 0 0 0 2.56-.4 12 12 0 0 0 2.59-1.08v-13.68a13.44 13.44 0 0 0-3.93-.57 6.33 6.33 0 0 0-5.13 2c-1.11 1.34-1.67 3.38-1.67 6.14a9.46 9.46 0 0 0 1.42 5.65 4.82 4.82 0 0 0 4.16 1.94zm24.51-15.84a14.62 14.62 0 0 1 2.79-1.19 9.08 9.08 0 0 1 2.65-.43 6.77 6.77 0 0 1 5.54 2.46 10.47 10.47 0 0 1 2 6.83q0 4.78-2.29 7.34A8.4 8.4 0 0 1 237 263a20.82 20.82 0 0 1-6.26-1v-26.56l2.15-.29zm5.15.11a9.31 9.31 0 0 0-2.55.39 13 13 0 0 0-2.6 1.08v13.68a13.12 13.12 0 0 0 3.93.58 6.33 6.33 0 0 0 5.13-2q1.66-2 1.67-6.14a9.48 9.48 0 0 0-1.42-5.65 4.81 4.81 0 0 0-4.16-1.94zm25.45 16.27a12.19 12.19 0 0 1-5.32 1.19 8.21 8.21 0 0 1-6.38-2.45c-1.48-1.63-2.23-4-2.23-7a11.07 11.07 0 0 1 2.09-7.13 6.94 6.94 0 0 1 5.72-2.59 6.53 6.53 0 0 1 5.06 2 7.68 7.68 0 0 1 1.86 5.45 14.21 14.21 0 0 1-.22 2.48h-12.38q0 7.53 6.66 7.53a12.19 12.19 0 0 0 5.14-1.15zm-6.15-16.31a5 5 0 0 0-4 1.8 7.58 7.58 0 0 0-1.65 4.82h10.51a7.77 7.77 0 0 0 .07-1A6 6 0 0 0 261 247a4.55 4.55 0 0 0-3.62-1.48zm9.29 23.18a7.78 7.78 0 0 0 4-1.8 12.19 12.19 0 0 0 2.67-4.24l-6.92-18.29h2.27l5.65 15.87 5.84-15.87h2.16l-6.92 17.93a22 22 0 0 1-2 4.23 8.86 8.86 0 0 1-2.5 2.59 11.25 11.25 0 0 1-3.75 1.46zM292 263a7.21 7.21 0 0 1-5.92-2.43q-2-2.43-2-7.19t2-7.14a8.43 8.43 0 0 1 11.84 0q2 2.43 2 7.14t-2 7.19A7.21 7.21 0 0 1 292 263zm0-1.73a4.92 4.92 0 0 0 4.3-1.89q1.35-1.89 1.35-6t-1.35-6a5.84 5.84 0 0 0-8.6 0q-1.35 1.89-1.35 6t1.35 6a4.92 4.92 0 0 0 4.3 1.91zm24.85 1.21V250q0-4.42-4.5-4.42a10 10 0 0 0-2.61.39A16.4 16.4 0 0 0 307 247v15.45h-2.16v-18l1.84-.18.14 1.26a12.56 12.56 0 0 1 6.12-1.73 6.33 6.33 0 0 1 4.52 1.51 5.6 5.6 0 0 1 1.6 4.28v12.86zm21.92-27.33v27.22l-1.83.18-.15-1.26a11.61 11.61 0 0 1-5.61 1.73 6.8 6.8 0 0 1-5.55-2.47 10.5 10.5 0 0 1-2-6.82q0-4.78 2.28-7.35a8.43 8.43 0 0 1 6.61-2.55 14 14 0 0 1 4.1.57v-9zm-7.31 26.14a9 9 0 0 0 2.56-.4 11.81 11.81 0 0 0 2.59-1.08v-13.68a13.37 13.37 0 0 0-3.92-.57 6.3 6.3 0 0 0-5.13 2c-1.12 1.34-1.68 3.38-1.68 6.14a9.46 9.46 0 0 0 1.43 5.65 4.8 4.8 0 0 0 4.15 1.94zM356.49 246v11.52a4 4 0 0 0 .79 2.76 3.1 3.1 0 0 0 2.44.88 8.66 8.66 0 0 0 2.45-.4v1.59a9 9 0 0 1-2.77.5 5 5 0 0 1-3.78-1.35 5.61 5.61 0 0 1-1.3-4V246h-2.73v-1.54l2.81-.11.21-4.54 1.88-.21v4.75h5.43V246zm16.16 17a7.21 7.21 0 0 1-5.92-2.43c-1.34-1.62-2-4-2-7.19s.66-5.52 2-7.14a8.43 8.43 0 0 1 11.84 0q2 2.43 2 7.14t-2 7.19a7.22 7.22 0 0 1-5.92 2.43zm0-1.73a4.92 4.92 0 0 0 4.3-1.89q1.35-1.89 1.35-6t-1.35-6a5.84 5.84 0 0 0-8.6 0q-1.35 1.89-1.35 6t1.35 6a4.92 4.92 0 0 0 4.3 1.91zm33.73.56a11.43 11.43 0 0 1-5.18 1.17 7.22 7.22 0 0 1-5.89-2.49c-1.38-1.65-2.07-4-2.07-7.09s.69-5.44 2.07-7.11a7.2 7.2 0 0 1 5.89-2.5 11.31 11.31 0 0 1 5.11 1.19v1.69a12 12 0 0 0-4.9-1.12 5.19 5.19 0 0 0-4.41 2 12.23 12.23 0 0 0 0 11.7 5.19 5.19 0 0 0 4.41 2 12.27 12.27 0 0 0 5-1.11zm4.62.65v-18l1.84-.18.18 1.62a8 8 0 0 1 5.15-2 4.67 4.67 0 0 1 1.55.21v1.77a7.23 7.23 0 0 0-1.66-.22 7.82 7.82 0 0 0-4.9 1.84v14.94zm24.79-.65a12.2 12.2 0 0 1-5.33 1.19 8.19 8.19 0 0 1-6.37-2.45q-2.23-2.44-2.23-7a11.07 11.07 0 0 1 2.09-7.13 6.94 6.94 0 0 1 5.72-2.59 6.54 6.54 0 0 1 5.06 2 7.72 7.72 0 0 1 1.85 5.45 14.22 14.22 0 0 1-.21 2.48H424q0 7.53 6.66 7.53a12.2 12.2 0 0 0 5.15-1.15zm-6.15-16.31a5 5 0 0 0-4 1.8 7.64 7.64 0 0 0-1.66 4.82h10.51a8 8 0 0 0 .08-1 6 6 0 0 0-1.3-4.14 4.55 4.55 0 0 0-3.63-1.48zm22.85 17.03l-.14-1.26a12.49 12.49 0 0 1-6.12 1.73 6.32 6.32 0 0 1-4.39-1.46 5.13 5.13 0 0 1-1.62-4 4.9 4.9 0 0 1 1.82-4.12 8.52 8.52 0 0 1 5.34-1.42 27.13 27.13 0 0 1 4.83.5v-2.44c0-3-1.7-4.5-5.08-4.5a13.28 13.28 0 0 0-2.92.36 17.11 17.11 0 0 0-2.91.93v-1.69a13.44 13.44 0 0 1 3-1 15.13 15.13 0 0 1 3.18-.36 7.32 7.32 0 0 1 5.13 1.6 6 6 0 0 1 1.75 4.63v12.31zm-5.76-1.26a10.09 10.09 0 0 0 2.74-.4 13.24 13.24 0 0 0 2.74-1.08v-5.76a23.73 23.73 0 0 0-4.47-.43 6.78 6.78 0 0 0-4 .94 3.42 3.42 0 0 0-1.26 2.95q-.03 3.78 4.25 3.78zM462.79 246v11.52a4 4 0 0 0 .79 2.76 3.13 3.13 0 0 0 2.45.88 8.71 8.71 0 0 0 2.45-.4v1.59a9 9 0 0 1-2.77.5 5 5 0 0 1-3.78-1.35 5.56 5.56 0 0 1-1.3-4V246h-2.74v-1.54l2.81-.11.22-4.54 1.87-.21v4.75h5.44V246zM485 261.83a12.26 12.26 0 0 1-5.33 1.19 8.18 8.18 0 0 1-6.37-2.45q-2.24-2.44-2.24-7a11.07 11.07 0 0 1 2.09-7.13 7 7 0 0 1 5.73-2.59 6.52 6.52 0 0 1 5 2 7.68 7.68 0 0 1 1.86 5.45 13.3 13.3 0 0 1-.22 2.48h-12.36q0 7.53 6.66 7.53a12.26 12.26 0 0 0 5.15-1.15zm-6.16-16.31a5 5 0 0 0-4 1.8 7.58 7.58 0 0 0-1.65 4.82h10.51a7.77 7.77 0 0 0 .07-1 6.07 6.07 0 0 0-1.29-4.14 4.58 4.58 0 0 0-3.67-1.48zm-304.73 67.03l-.14-1.26a12.55 12.55 0 0 1-6.12 1.73 6.32 6.32 0 0 1-4.39-1.46 5.13 5.13 0 0 1-1.62-4 4.92 4.92 0 0 1 1.81-4.12A8.55 8.55 0 0 1 169 302a27 27 0 0 1 4.82.5v-2.44q0-4.5-5.07-4.5a13.28 13.28 0 0 0-2.92.36 16.83 16.83 0 0 0-2.91.93v-1.69a13.44 13.44 0 0 1 3-1 15.05 15.05 0 0 1 3.18-.36 7.32 7.32 0 0 1 5.13 1.6 6 6 0 0 1 1.75 4.63v12.31zm-5.76-1.26a10.09 10.09 0 0 0 2.74-.4 12.94 12.94 0 0 0 2.73-1.08v-5.76a23.62 23.62 0 0 0-4.46-.43 6.78 6.78 0 0 0-4 .94 3.42 3.42 0 0 0-1.26 2.95q-.03 3.78 4.25 3.78zm22.39 9.21v-26l1.84-.18.14 1.26a11.54 11.54 0 0 1 5.62-1.73 6.77 6.77 0 0 1 5.54 2.46 10.47 10.47 0 0 1 2 6.83q0 4.78-2.29 7.34A8.4 8.4 0 0 1 197 313a14.07 14.07 0 0 1-4.11-.58v7.78zm7.31-24.94a9.31 9.31 0 0 0-2.55.39 13 13 0 0 0-2.6 1.08v13.68a13.12 13.12 0 0 0 3.93.58 6.33 6.33 0 0 0 5.13-2q1.66-2 1.67-6.14a9.48 9.48 0 0 0-1.42-5.65 4.83 4.83 0 0 0-4.16-1.94zM217.49 313a7.21 7.21 0 0 1-5.92-2.43q-2-2.43-2-7.19t2-7.14a8.43 8.43 0 0 1 11.84 0q2 2.43 2 7.14t-2 7.19a7.21 7.21 0 0 1-5.92 2.43zm0-1.73a4.92 4.92 0 0 0 4.3-1.89q1.35-1.89 1.35-6t-1.35-5.95a5.84 5.84 0 0 0-8.6 0q-1.35 1.89-1.35 5.95t1.35 6a4.92 4.92 0 0 0 4.3 1.91zm27.51 1.21l-4.86-15.7-4.72 15.7h-2l-5.76-18.11h2.2l4.61 15.44 4.53-15.44h2.42l4.6 15.55 4.57-15.55h2.09l-5.58 18.11zm23.83-.65a12.26 12.26 0 0 1-5.33 1.17 8.18 8.18 0 0 1-6.37-2.45q-2.24-2.44-2.24-7a11.07 11.07 0 0 1 2.09-7.13 7 7 0 0 1 5.73-2.59 6.52 6.52 0 0 1 5.05 2 7.68 7.68 0 0 1 1.86 5.45 13.3 13.3 0 0 1-.22 2.48H257q0 7.53 6.66 7.53a12.26 12.26 0 0 0 5.15-1.15zm-6.16-16.31a5 5 0 0 0-4 1.8 7.58 7.58 0 0 0-1.65 4.82h10.51a7.77 7.77 0 0 0 .07-1 6.07 6.07 0 0 0-1.29-4.14 4.58 4.58 0 0 0-3.64-1.48zm11.77 16.96v-18l1.84-.18.18 1.62a8 8 0 0 1 5.15-2 4.6 4.6 0 0 1 1.54.21v1.77a7.08 7.08 0 0 0-1.65-.22 7.8 7.8 0 0 0-4.9 1.84v14.94zm12.39 0v-27l2.16-.29v10.33a12.31 12.31 0 0 1 5.94-1.65 6.29 6.29 0 0 1 4.51 1.51 5.61 5.61 0 0 1 1.61 4.28v12.86h-2.16V300q0-4.43-4.5-4.42a9.84 9.84 0 0 0-2.61.39A16.4 16.4 0 0 0 289 297v15.45zm26.74.52a7.22 7.22 0 0 1-5.92-2.43q-2-2.43-2-7.19t2-7.14a8.43 8.43 0 0 1 11.84 0c1.34 1.62 2 4 2 7.14s-.66 5.57-2 7.19a7.21 7.21 0 0 1-5.92 2.43zm0-1.73a4.9 4.9 0 0 0 4.3-1.89q1.36-1.89 1.36-6t-1.36-5.95a5.84 5.84 0 0 0-8.6 0q-1.35 1.89-1.35 5.95t1.35 6a4.93 4.93 0 0 0 4.3 1.91zm14.69-16.9v12.49q0 4.42 4.36 4.43a9.59 9.59 0 0 0 2.61-.4 15.43 15.43 0 0 0 2.79-1.08v-15.44h2.16v18l-1.84.18-.14-1.26a12.66 12.66 0 0 1-6.12 1.73 6 6 0 0 1-4.41-1.53 5.68 5.68 0 0 1-1.57-4.27v-12.85zm16.56 15.73a13.75 13.75 0 0 0 5.58 1.19q4.86 0 4.86-3.78a2.77 2.77 0 0 0-.7-2 5.17 5.17 0 0 0-2.32-1.26l-2.74-.87a7.81 7.81 0 0 1-3.35-1.81 3.94 3.94 0 0 1-1-2.79 4.29 4.29 0 0 1 1.78-3.62 7.78 7.78 0 0 1 4.81-1.35 12.37 12.37 0 0 1 4.86 1v1.69a13.2 13.2 0 0 0-4.76-.93 5.78 5.78 0 0 0-3.33.84 2.7 2.7 0 0 0-1.2 2.32 2.21 2.21 0 0 0 .66 1.68 6.75 6.75 0 0 0 2.4 1.2l2.84.94a7 7 0 0 1 3.22 1.91 4.43 4.43 0 0 1 1 3 5 5 0 0 1-1.8 4.11 7.94 7.94 0 0 1-5.08 1.44 12.86 12.86 0 0 1-5.43-1.12zm29.99 1.73a12.23 12.23 0 0 1-5.33 1.19 8.19 8.19 0 0 1-6.37-2.45q-2.24-2.44-2.23-7a11.07 11.07 0 0 1 2.08-7.13 7 7 0 0 1 5.73-2.59 6.55 6.55 0 0 1 5.06 2 7.72 7.72 0 0 1 1.85 5.45 13.3 13.3 0 0 1-.22 2.48H363q0 7.53 6.66 7.53a12.23 12.23 0 0 0 5.15-1.15zm-6.16-16.31a5 5 0 0 0-4 1.8 7.53 7.53 0 0 0-1.66 4.82h10.51a7.77 7.77 0 0 0 .07-1 6.07 6.07 0 0 0-1.29-4.14 4.58 4.58 0 0 0-3.63-1.48zM169.76 363a7.24 7.24 0 0 1-5.93-2.43q-2-2.43-2-7.19t2-7.14a8.44 8.44 0 0 1 11.85 0q2 2.43 2 7.14t-2 7.19a7.22 7.22 0 0 1-5.92 2.43zm0-1.73a4.93 4.93 0 0 0 4.3-1.89q1.35-1.89 1.35-6t-1.35-5.95a5.85 5.85 0 0 0-8.61 0q-1.35 1.89-1.35 5.95t1.35 6a4.94 4.94 0 0 0 4.31 1.91zm13.24 1.21V346h-2.7v-1.54l2.74-.11v-4.05a5.84 5.84 0 0 1 1.31-4.09 5 5 0 0 1 3.84-1.42 8.1 8.1 0 0 1 2.77.51v1.58a8.6 8.6 0 0 0-2.48-.4 3.19 3.19 0 0 0-2.49.89 4 4 0 0 0-.79 2.75v4.25h4.86V346h-4.86v16.46zM205.72 346v11.52a4 4 0 0 0 .79 2.76 3.13 3.13 0 0 0 2.45.88 8.77 8.77 0 0 0 2.45-.4v1.59a9 9 0 0 1-2.78.5 5 5 0 0 1-3.77-1.35 5.56 5.56 0 0 1-1.3-4V346h-2.74v-1.54l2.81-.11.22-4.54 1.87-.21v4.75h5.44V346zm22.17 15.83a12.19 12.19 0 0 1-5.32 1.19 8.18 8.18 0 0 1-6.37-2.45q-2.23-2.44-2.24-7a11.07 11.07 0 0 1 2.09-7.13 7 7 0 0 1 5.73-2.59 6.52 6.52 0 0 1 5.05 2 7.68 7.68 0 0 1 1.86 5.45 14.21 14.21 0 0 1-.22 2.48h-12.38q0 7.53 6.66 7.53a12.19 12.19 0 0 0 5.14-1.15zm-6.15-16.31a5 5 0 0 0-4 1.8 7.58 7.58 0 0 0-1.65 4.82h10.51a7.77 7.77 0 0 0 .07-1 6 6 0 0 0-1.3-4.14 4.55 4.55 0 0 0-3.63-1.48zm23.72 16.31a11.43 11.43 0 0 1-5.18 1.19 7.22 7.22 0 0 1-5.89-2.49c-1.38-1.65-2.07-4-2.07-7.09s.69-5.44 2.07-7.11a7.2 7.2 0 0 1 5.89-2.5 11.31 11.31 0 0 1 5.11 1.19v1.69a12 12 0 0 0-4.9-1.12 5.19 5.19 0 0 0-4.41 2 12.23 12.23 0 0 0 0 11.7 5.19 5.19 0 0 0 4.41 2 12.24 12.24 0 0 0 5-1.11zm4.65.65v-27l2.16-.29v10.33a12.31 12.31 0 0 1 5.94-1.65 6.29 6.29 0 0 1 4.51 1.51 5.61 5.61 0 0 1 1.61 4.28v12.86h-2.16V350q0-4.43-4.5-4.42a9.84 9.84 0 0 0-2.61.39 16.4 16.4 0 0 0-2.79 1.08v15.45zm40.96-.65a11.43 11.43 0 0 1-5.18 1.19 7.24 7.24 0 0 1-5.89-2.49c-1.38-1.65-2.07-4-2.07-7.09s.69-5.44 2.07-7.11a7.21 7.21 0 0 1 5.89-2.5A11.31 11.31 0 0 1 291 345v1.69a12 12 0 0 0-4.89-1.12 5.16 5.16 0 0 0-4.41 2 12.16 12.16 0 0 0 0 11.7 5.16 5.16 0 0 0 4.41 2 12.23 12.23 0 0 0 5-1.11zm15.74.72l-.15-1.26a12.49 12.49 0 0 1-6.12 1.73 6.32 6.32 0 0 1-4.39-1.46 5.13 5.13 0 0 1-1.62-4 4.9 4.9 0 0 1 1.82-4.12 8.52 8.52 0 0 1 5.34-1.42 27.13 27.13 0 0 1 4.83.5v-2.44c0-3-1.7-4.5-5.08-4.5a13.12 13.12 0 0 0-2.91.36 16.94 16.94 0 0 0-2.92.93v-1.69a13.44 13.44 0 0 1 3-1 15.22 15.22 0 0 1 3.19-.36 7.35 7.35 0 0 1 5.13 1.6 6 6 0 0 1 1.74 4.63v12.31zm-5.81-1.26a10.09 10.09 0 0 0 2.74-.4 13.24 13.24 0 0 0 2.74-1.08v-5.76a23.73 23.73 0 0 0-4.47-.43 6.78 6.78 0 0 0-4 .94 3.42 3.42 0 0 0-1.26 2.95q.01 3.78 4.25 3.78zm13.44 9.21v-26l1.83-.18.15 1.26a11.5 11.5 0 0 1 5.61-1.73 6.8 6.8 0 0 1 5.55 2.46 10.53 10.53 0 0 1 2 6.83q0 4.78-2.28 7.34a8.43 8.43 0 0 1-6.6 2.52 14 14 0 0 1-4.1-.58v7.78zm7.3-24.94a9.31 9.31 0 0 0-2.55.39 12.87 12.87 0 0 0-2.59 1.05v13.68a13 13 0 0 0 3.92.58 6.33 6.33 0 0 0 5.13-2c1.12-1.33 1.67-3.38 1.67-6.14a9.48 9.48 0 0 0-1.42-5.65 4.81 4.81 0 0 0-4.16-1.91zm23.8 16.99l-.14-1.26a12.55 12.55 0 0 1-6.12 1.73 6.35 6.35 0 0 1-4.4-1.46 5.13 5.13 0 0 1-1.62-4 4.93 4.93 0 0 1 1.82-4.12 8.55 8.55 0 0 1 5.35-1.42 27.12 27.12 0 0 1 4.82.5v-2.44q0-4.5-5.07-4.5a13.28 13.28 0 0 0-2.92.36 16.94 16.94 0 0 0-2.92.93v-1.69a13.8 13.8 0 0 1 3-1 15.22 15.22 0 0 1 3.19-.36 7.32 7.32 0 0 1 5.13 1.6 6 6 0 0 1 1.75 4.63v12.31zm-5.76-1.26a10.15 10.15 0 0 0 2.74-.4 12.94 12.94 0 0 0 2.73-1.08v-5.76a23.62 23.62 0 0 0-4.46-.43 6.78 6.78 0 0 0-4 .94 3.42 3.42 0 0 0-1.26 2.95c-.03 2.49 1.39 3.78 4.25 3.78zm15.55-15.84a14.1 14.1 0 0 1 2.79-1.19 9.08 9.08 0 0 1 2.65-.43 6.77 6.77 0 0 1 5.54 2.46 10.47 10.47 0 0 1 2 6.83q0 4.78-2.29 7.34a8.4 8.4 0 0 1-6.6 2.56 20.93 20.93 0 0 1-6.27-1v-26.58l2.16-.29zm5.15.11a9.44 9.44 0 0 0-2.56.39 13.11 13.11 0 0 0-2.59 1.08v13.68a13.12 13.12 0 0 0 3.93.58 6.33 6.33 0 0 0 5.13-2q1.67-2 1.67-6.14a9.48 9.48 0 0 0-1.42-5.65 4.83 4.83 0 0 0-4.16-1.94zm13.79-5.56a1.62 1.62 0 0 1-1.17-.44 1.54 1.54 0 0 1-.45-1.18 1.57 1.57 0 0 1 .45-1.19 1.81 1.81 0 0 1 2.34 0 1.57 1.57 0 0 1 .45 1.19 1.54 1.54 0 0 1-.45 1.18 1.62 1.62 0 0 1-1.17.44zm-1.08 22.5v-17.95l2.16-.29v18.22zm8.21-.02v-27l2.16-.29v27.33zm9.28-22.48a1.62 1.62 0 0 1-1.17-.44 1.54 1.54 0 0 1-.45-1.18 1.57 1.57 0 0 1 .45-1.19 1.81 1.81 0 0 1 2.34 0 1.57 1.57 0 0 1 .45 1.19 1.54 1.54 0 0 1-.45 1.18 1.62 1.62 0 0 1-1.17.44zm-1.08 22.5v-17.95l2.16-.29v18.22zm10.88-16.5v11.52a4 4 0 0 0 .79 2.76 3.12 3.12 0 0 0 2.45.88 8.65 8.65 0 0 0 2.44-.4v1.59a8.94 8.94 0 0 1-2.77.5 5 5 0 0 1-3.78-1.35 5.6 5.6 0 0 1-1.29-4V346h-2.74v-1.54l2.81-.11.21-4.54 1.88-.21v4.75h5.43V346zm10.52-6a1.62 1.62 0 0 1-1.17-.44 1.54 1.54 0 0 1-.45-1.18 1.57 1.57 0 0 1 .45-1.19 1.81 1.81 0 0 1 2.34 0 1.57 1.57 0 0 1 .45 1.19 1.54 1.54 0 0 1-.45 1.18 1.62 1.62 0 0 1-1.17.44zm-1.08 22.5v-17.95l2.16-.29v18.22zm20.94-.67a12.23 12.23 0 0 1-5.33 1.19 8.19 8.19 0 0 1-6.37-2.45q-2.24-2.44-2.23-7a11 11 0 0 1 2.09-7.13 6.94 6.94 0 0 1 5.72-2.59 6.54 6.54 0 0 1 5.06 2 7.72 7.72 0 0 1 1.85 5.45 14.22 14.22 0 0 1-.21 2.48h-12.39c0 5 2.25 7.53 6.66 7.53a12.23 12.23 0 0 0 5.15-1.15zm-6.16-16.31a5 5 0 0 0-4 1.8 7.58 7.58 0 0 0-1.66 4.82h10.51a8 8 0 0 0 .08-1 6.08 6.08 0 0 0-1.3-4.14 4.57 4.57 0 0 0-3.63-1.48zm10.37 14.58a13.75 13.75 0 0 0 5.58 1.19q4.86 0 4.86-3.78a2.77 2.77 0 0 0-.7-2 5.17 5.17 0 0 0-2.32-1.26l-2.74-.87a7.81 7.81 0 0 1-3.35-1.81 3.94 3.94 0 0 1-1-2.79 4.29 4.29 0 0 1 1.78-3.62 7.78 7.78 0 0 1 4.81-1.35 12.37 12.37 0 0 1 4.86 1v1.69a13.2 13.2 0 0 0-4.76-.93 5.72 5.72 0 0 0-3.32.84 2.68 2.68 0 0 0-1.21 2.32 2.19 2.19 0 0 0 .67 1.68 6.6 6.6 0 0 0 2.39 1.2l2.84.94a7.12 7.12 0 0 1 3.23 1.91 4.47 4.47 0 0 1 1 3 5 5 0 0 1-1.8 4.11 7.94 7.94 0 0 1-5.08 1.44 12.86 12.86 0 0 1-5.43-1.12zm17.93 2.56a1.65 1.65 0 0 1-1.19-.45 1.79 1.79 0 0 1 0-2.42 1.8 1.8 0 0 1 2.38 0 1.79 1.79 0 0 1 0 2.42 1.66 1.66 0 0 1-1.19.45zm-284.94 75.16h1.8l-1.36 7.59h6.33l1.37-7.59h1.8l-1.37 7.59h4.68V447h-5l-1.15 6.3h5.4v1.58h-5.66l-1.36 7.6h-1.8l1.36-7.6h-6.33l-1.37 7.6h-1.8l1.37-7.6h-4.68v-1.58h5l1.15-6.3H161v-1.59h5.69zm-1 15.48h6.33l1.15-6.3h-6.33zm35.2 8.17a15.83 15.83 0 0 1-7 1.55 10.55 10.55 0 0 1-8.42-3.48c-2-2.31-3-5.54-3-9.66s1-7.32 3-9.65a10.32 10.32 0 0 1 8.26-3.49 14.68 14.68 0 0 1 6.66 1.54v1.84a14.63 14.63 0 0 0-6.48-1.55 8.11 8.11 0 0 0-6.73 2.92q-2.34 2.91-2.34 8.39c0 3.67.78 6.47 2.36 8.4a8.37 8.37 0 0 0 6.89 2.9 14.9 14.9 0 0 0 4.72-.76v-9.14h-3.28l.25-1.84h5.11zm6.37-21.47a1.63 1.63 0 0 1-1.17-.44 1.54 1.54 0 0 1-.44-1.18 1.56 1.56 0 0 1 .44-1.19 1.63 1.63 0 0 1 1.17-.43 1.65 1.65 0 0 1 1.18.43 1.56 1.56 0 0 1 .44 1.19 1.54 1.54 0 0 1-.44 1.18 1.66 1.66 0 0 1-1.18.44zm-1.07 22.5v-17.95l2.15-.29v18.22zm8.71-.02V446h-2.74v-1.54l2.74-.11v-4.05a5.8 5.8 0 0 1 1.31-4.09 5 5 0 0 1 3.83-1.42 7.56 7.56 0 0 1 2.13.29v1.62a8.77 8.77 0 0 0-1.84-.22 3.17 3.17 0 0 0-2.48.89 4 4 0 0 0-.79 2.75v4.25h8.42l.22-4.54 1.87-.21v4.75h5.43V446h-5.43v11.52a4 4 0 0 0 .79 2.76 3.12 3.12 0 0 0 2.45.88 8.77 8.77 0 0 0 2.45-.4v1.59a9 9 0 0 1-2.77.5 5 5 0 0 1-3.79-1.35 5.6 5.6 0 0 1-1.29-4V446h-8.35v16.46zm27.21 0v-23.37h-7.59v-1.83h17.46v1.83h-7.6v23.37zm13.43 0v-27l2.16-.29v10.33a12.37 12.37 0 0 1 5.94-1.65 6.33 6.33 0 0 1 4.52 1.51 5.6 5.6 0 0 1 1.6 4.28v12.86H269V450q0-4.43-4.5-4.42a10 10 0 0 0-2.61.39 16.4 16.4 0 0 0-2.79 1.08v15.45zm32.76-.65a12.23 12.23 0 0 1-5.33 1.19 8.19 8.19 0 0 1-6.37-2.45q-2.24-2.44-2.23-7a11 11 0 0 1 2.09-7.13 6.94 6.94 0 0 1 5.72-2.59 6.54 6.54 0 0 1 5.06 2 7.72 7.72 0 0 1 1.85 5.45 14.22 14.22 0 0 1-.21 2.48h-12.39q0 7.53 6.66 7.53a12.23 12.23 0 0 0 5.15-1.15zm-6.16-16.31a5 5 0 0 0-4 1.8 7.58 7.58 0 0 0-1.66 4.82h10.51a8 8 0 0 0 .08-1 6.08 6.08 0 0 0-1.3-4.14 4.57 4.57 0 0 0-3.63-1.48zm27.65 15.95a14.31 14.31 0 0 1-6.48 1.55 9 9 0 0 1-7.49-3.48c-1.8-2.31-2.7-5.54-2.7-9.66s.9-7.35 2.7-9.67a8.94 8.94 0 0 1 7.49-3.47 14.1 14.1 0 0 1 6.37 1.54v1.84A16.25 16.25 0 0 0 308 439a12.3 12.3 0 0 0-3-.36 6.91 6.91 0 0 0-6 2.86c-1.36 1.91-2 4.71-2 8.41s.67 6.49 2 8.4a6.91 6.91 0 0 0 6 2.86 14.13 14.13 0 0 0 6.19-1.51zm11.31 1.53a7.24 7.24 0 0 1-5.93-2.43q-2-2.43-2-7.19t2-7.14a8.44 8.44 0 0 1 11.85 0q2 2.43 2 7.14t-2 7.19a7.22 7.22 0 0 1-5.92 2.43zm0-1.73a4.93 4.93 0 0 0 4.3-1.89q1.35-1.89 1.35-6t-1.35-5.95a5.85 5.85 0 0 0-8.61 0q-1.35 1.89-1.35 5.95t1.35 6a4.94 4.94 0 0 0 4.31 1.91zm26.74-26.12v27.22l-1.83.18-.15-1.26a11.61 11.61 0 0 1-5.61 1.73 6.81 6.81 0 0 1-5.55-2.47 10.5 10.5 0 0 1-2-6.82q0-4.78 2.28-7.35a8.43 8.43 0 0 1 6.61-2.55 14 14 0 0 1 4.1.57v-9zm-7.3 26.14a9 9 0 0 0 2.55-.4 11.81 11.81 0 0 0 2.59-1.08v-13.68a13.32 13.32 0 0 0-3.92-.57 6.3 6.3 0 0 0-5.13 2c-1.12 1.34-1.68 3.38-1.68 6.14a9.46 9.46 0 0 0 1.43 5.65 4.82 4.82 0 0 0 4.16 1.94zm26.09.54a12.19 12.19 0 0 1-5.32 1.19 8.18 8.18 0 0 1-6.37-2.45q-2.24-2.44-2.24-7a11.07 11.07 0 0 1 2.09-7.13 7 7 0 0 1 5.73-2.59 6.52 6.52 0 0 1 5.05 2 7.68 7.68 0 0 1 1.86 5.45 13.3 13.3 0 0 1-.22 2.48H356.2q0 7.53 6.66 7.53a12.19 12.19 0 0 0 5.14-1.15zm-6.15-16.31a5 5 0 0 0-4 1.8 7.58 7.58 0 0 0-1.65 4.82h10.51a7.77 7.77 0 0 0 .07-1 6.07 6.07 0 0 0-1.29-4.14 4.58 4.58 0 0 0-3.64-1.48z"/></svg>