<svg xmlns="http://www.w3.org/2000/svg" viewBox="0 0 675 220"><path d="M29.6 54.9c3.6 0 6.9-1 10.3-2.4h.2V49l-.5.2c-3.1 1.7-6.4 2.4-9.5 2.4-4.1 0-7.2-1.4-9.1-4.5-2.1-2.9-3.1-7.4-3.1-13.1s1-10.3 3.1-13.1c2.1-2.9 5-4.5 9.1-4.5 1.7 0 3.1.2 4.5.5 1.4.5 3.1 1 4.8 1.9l.5.2v-3.6h-.2c-3.3-1.7-6.7-2.4-10-2.4-5 0-9.1 1.9-11.9 5.7s-4.3 9.1-4.3 15.5 1.4 11.9 4.3 15.5c2.8 3.3 6.8 5.2 11.8 5.2zm19.3-15.7C47 40.9 46 43 46 45.9c0 2.9 1 5 2.6 6.7 1.7 1.7 4.1 2.4 6.9 2.4 3.1 0 6.2-1 9.3-2.6l.2 1.9 3.3-.2V34.2c0-3.3-1-5.7-2.9-7.6-1.9-1.7-4.5-2.6-8.1-2.6-1.7 0-3.3.2-5 .5-1.7.5-3.3 1-4.8 1.7h-.2v3.3l.5-.2c1.4-.7 2.9-1.2 4.5-1.4 1.7-.5 3.1-.5 4.5-.5 5 0 7.6 2.1 7.6 6.9v3.6c-7.1-1.6-12.4-1.1-15.5 1.3zm7.4 12.4c-4.3 0-6.4-1.9-6.4-5.7 0-2.1.7-3.6 1.9-4.5 1.2-1 3.3-1.4 6-1.4 2.1 0 4.3.2 6.7.7v8.8c-1.2.7-2.6 1.2-4.1 1.7-1.2.1-2.7.4-4.1.4zm33.4-27.7c-2.6 0-5.5 1-8.3 2.6l-.2-1.9-3.3.2v42l4.1-.5V54.2c1.9.5 3.8.7 6 .7 4.5 0 8.1-1.4 10.5-4.1 2.4-2.9 3.6-6.7 3.6-11.9 0-4.8-1-8.3-3.1-11-2.6-2.8-5.5-4-9.3-4zm-.5 3.4c2.6 0 4.8 1 6.2 2.9 1.4 1.9 2.1 5 2.1 8.8 0 4.3-1 7.6-2.6 9.5-1.7 2.1-4.3 3.1-7.6 3.1-1.9 0-4.1-.2-5.7-1V29.2c1.2-.7 2.4-1.2 3.8-1.7 1.4-.2 2.6-.2 3.8-.2zM109.5 54h4V24.4l-4 .7zm1.9-35.8c.7 0 1.4-.2 1.9-.7.5-.5.7-1.2.7-2.1 0-1-.2-1.7-.7-2.1-.5-.5-1.2-.7-1.9-.7s-1.4.2-1.9.7c-.5.5-.7 1.2-.7 2.1 0 1 .2 1.7.7 2.1.4.5 1.2.7 1.9.7zm12.4 27.7c0 2.9.7 5 2.1 6.7 1.4 1.4 3.3 2.1 6 2.1 1.4 0 2.9-.2 4.3-.7h.2v-3.1h-.5c-3.3 1-6 .7-7.2-.7-.7-1-1.2-2.4-1.2-4.3V27.7h8.3v-3.3h-8.3V17l-3.6.5-.2 7.2-4.3.2V28h4.3v17.9zm36 8.3l3.3-.2V34.2c0-3.3-1-5.7-2.9-7.6-1.9-1.7-4.5-2.6-8.1-2.6-1.7 0-3.3.2-5 .5-1.7.5-3.3 1-4.8 1.7h-.2v3.3l.5-.2c1.4-.7 2.9-1.2 4.5-1.4 1.7-.5 3.1-.5 4.5-.5 5 0 7.6 2.1 7.6 6.9v3.6c-7.2-1.4-12.6-1-15.7 1.7-1.9 1.7-2.9 3.8-2.9 6.7 0 2.9 1 5 2.6 6.7 1.7 1.7 4.1 2.4 6.9 2.4 3.1 0 6.2-1 9.3-2.6l.4 1.4zm-8.6-2.6c-4.3 0-6.4-1.9-6.4-5.7 0-2.1.7-3.6 1.9-4.5s3.3-1.4 6-1.4c2.1 0 4.3.2 6.7.7v8.8c-1.2.7-2.6 1.2-4.1 1.7-1.5.1-2.9.4-4.1.4zm25.3-41.5l-4.1.5V54h4.1zm51.2 39.3c2.9-3.6 4.3-8.8 4.3-15.7s-1.4-11.9-4.3-15.7c-2.9-3.6-6.9-5.5-12.2-5.5-5.2 0-9.3 1.9-12.2 5.5-2.9 3.6-4.3 8.8-4.3 15.7s1.4 11.9 4.3 15.7c2.9 3.6 6.9 5.5 12.2 5.5 5.5 0 9.6-1.9 12.2-5.5zm-11.9-33.3c8.1 0 11.9 5.7 11.9 17.6s-3.8 17.6-11.9 17.6-11.9-5.7-11.9-17.6 3.8-17.6 11.9-17.6zm28.6 13.3c1.4-.7 2.6-1.2 4.1-1.7 1.4-.5 2.9-.7 4.1-.7 4.5 0 6.7 2.1 6.7 6.7V54h4.1V33.2c0-3.1-1-5.5-2.6-6.9-1.7-1.7-4.1-2.4-7.2-2.4s-6.2 1-9.3 2.6l-.2-1.9-3.3.2V54h4.1V29.4h-.5zM284 54.9c2.9 0 5.7-.7 8.3-1.9h.2v-3.3l-.5.2c-2.6 1.2-5.2 1.9-7.9 1.9-6.7 0-10-3.8-10-11.4h19.1v-.2c.2-1.2.2-2.6.2-4.1 0-3.8-1-6.7-2.9-8.8-1.9-2.1-4.8-3.3-8.1-3.3-3.8 0-6.9 1.4-9.1 4.3-2.1 2.9-3.3 6.7-3.3 11.4 0 5 1.2 8.8 3.6 11.4 2.5 2.4 6.1 3.8 10.4 3.8zM282.8 27c2.4 0 4.1.7 5.5 2.1 1.2 1.4 1.9 3.6 1.9 6.4v1.2h-15.7c.2-2.9 1-5.5 2.4-7.2 1.3-1.5 3.2-2.5 5.9-2.5zM43.2 117.8h6.2v17.6c-2.6.7-5.2 1-7.9 1-6 0-10.7-1.9-13.8-5.7-3.1-3.8-4.8-9.5-4.8-17.2 0-7.6 1.4-13.3 4.5-17.2 3.1-3.8 7.6-6 13.6-6 5 0 9.8 1.2 14.5 3.6v-6.4c-4.8-2.4-9.8-3.6-15.3-3.6-5.2 0-9.8 1.2-13.6 3.3-3.8 2.4-6.7 5.7-8.8 10-2.1 4.5-3.1 9.8-3.1 16 0 9.3 2.1 16.7 6.7 21.7 4.5 5 10.7 7.9 19.1 7.9 6 0 11.2-1.2 16.2-3.6v-28.1H44.2l-1 6.7zm34.1-32.6h7.6v56.7h-7.6zm38.6 32.4h22.4v-6.4h-22.4V91.6h25.7v-6.4H108v56.7h7.9zm39.6-26h16.2v50.3h7.6V91.6h16.2v-6.4h-40zm109.2-6.4h-40.1v6.4h16.2v50.3h7.6V91.6h16.3zm50.5 56.7h7.6V85.2h-7.6v24.3h-25.8V85.2h-7.6v56.7h7.6v-25.7h25.8zm64.6-6.4h-26.2v-19.1h22.6V110h-22.6V91.6h26v-6.4h-33.7v56.7h33.9zm57.9 1.2c-10.7 0-16.2-7.6-16.2-23.1s5.5-23.1 16.2-23.1c2.4 0 4.5.2 6.4.7 2.1.5 4.3 1.4 6.7 2.6v-6.4c-4.5-2.4-9.5-3.6-14.5-3.6-7.4 0-13.1 2.6-17.2 7.9-4.1 5.2-6.2 12.4-6.2 21.7s1.9 16.7 6.2 21.7c4.1 5.2 9.8 7.9 17.2 7.9 5.5 0 10.3-1.2 14.8-3.6V133c-2.4 1.2-4.5 2.1-6.7 2.6-2.2.8-4.3 1.1-6.7 1.1zM491.1 84c-7.6 0-13.3 2.6-17.4 7.6-4.1 5-6 12.4-6 21.9s1.9 16.9 6 21.9 9.8 7.6 17.4 7.6c7.6 0 13.3-2.6 17.4-7.6 4.1-5 6-12.4 6-21.9s-1.9-16.9-6-21.9c-4-5-9.8-7.6-17.4-7.6zm11.5 47c-2.4 3.8-6.4 5.7-11.7 5.7-5.2 0-9.1-1.9-11.7-5.7-2.4-3.8-3.8-9.5-3.8-17.4s1.2-13.6 3.8-17.4c2.4-3.8 6.4-5.7 11.7-5.7 5.2 0 9.1 1.9 11.7 5.7 2.4 3.8 3.8 9.5 3.8 17.4s-1.2 13.5-3.8 17.4zm48.3-46.3c-4.8 0-10 .5-16 1.7v55.5h15.5c8.8 0 15.5-2.4 20-7.4s6.9-11.9 6.9-21.2c0-9.1-2.4-16.2-6.9-21.2-4.4-5-11.1-7.4-19.5-7.4zm13.6 45.3c-3.1 3.6-7.9 5.5-14.1 5.5h-7.6V91.9c2.9-.5 5.5-.7 8.1-.7 6.2 0 11 1.9 14.1 5.5 3.1 3.6 4.5 9.3 4.5 16.9-.2 7.3-1.6 12.8-5 16.4zm41-13.6h22.7V110h-22.7V91.6h26v-6.4h-33.6v56.7h33.9v-6.4h-26.3zM40.6 185.5H20.1v-18.3h-4.3v41.7h4.3v-19.8h20.5v19.8h4.3v-41.7h-4.3zm43.1-18.3h-4.5l-14.3 41.5-.2.5H69l3.6-11.2H90l3.8 11.2H98l-14.3-42zm5.3 27.2H73.7l7.6-22.6 7.7 22.6zm43.1 11.9c-4.1 0-7.4-1.4-9.3-4.5-2.1-3.1-3.1-7.6-3.1-13.6s1.2-10.5 3.1-13.6c2.1-3.1 5.2-4.5 9.3-4.5 1.7 0 3.1.2 4.8.5 1.4.5 3.1 1 5 1.9l.5.2v-3.6h-.2c-3.3-1.7-6.9-2.6-10.3-2.6-5.2 0-9.3 1.9-12.2 5.7-2.9 3.8-4.3 9.3-4.3 16 0 6.7 1.4 12.2 4.3 16 2.9 3.8 6.9 5.7 12.2 5.7 3.6 0 7.2-1 10.5-2.6h.2v-3.6l-.5.2c-3.6 1.4-6.6 2.4-10 2.4zm61-39.1h-5.2l-18.8 17.9v-17.9h-4.3v41.7h4.3v-19.8l18.8 19.8h5.5L172.2 187zm34.4 0H223l-14.3 41.5-.2.5h4.3l3.6-11.2h17.4l3.8 11.2h4.3l-14.4-42zm5.4 27.2h-15.3l7.6-22.6 7.7 22.6zm21.3-23.6h12.1v38.1h4.3v-38.1h12.2v-3.6h-28.6zm73.6 14.7h-20.5v-18.3H303v41.7h4.3v-19.8h20.5v19.8h4.3v-41.7h-4.3zm44.1-19.3c-5.2 0-9.5 1.9-12.4 5.7-2.9 3.8-4.3 9.3-4.3 16.2s1.4 12.4 4.3 16.2c2.9 3.8 7.2 5.7 12.4 5.7s9.5-1.9 12.4-5.7c2.9-3.8 4.3-9.3 4.3-16.2s-1.4-12.4-4.3-16.2c-2.8-3.8-7.1-5.7-12.4-5.7zm0 40.1c-8.3 0-12.4-6-12.4-18.1s4.1-18.1 12.4-18.1 12.4 6 12.4 18.1-4.3 18.1-12.4 18.1zm64.6-4.8l-21-34.3h-4v41.7h4.3v-34.3l21 34.3h4v-41.7h-4.3zM638.4 83.8h3.6v10.7h1.4V83.8h3.6v-1.2h-8.6zm21.2-1.2h-1.4l-3.6 9-3.5-9h-1.7l-.7 11.9h1.4l.5-9.8 3.3 8.6h1.5l3.1-8.6.7 9.8h1.4zM308.7 26.2c-1.5 0-2.8-.4-3.9-1.1-1.2-.7-2-1.6-2.7-2.8-.6-1.2-1-2.4-1-3.7 0-1.5.4-2.8 1.1-3.9.7-1.2 1.6-2.1 2.8-2.7s2.4-1 3.7-1c1.4 0 2.8.4 3.9 1.1 1.2.7 2 1.6 2.7 2.8.6 1.2 1 2.4 1 3.7 0 1.4-.4 2.8-1.1 3.9-.7 1.2-1.6 2.1-2.8 2.7-1.1.7-2.3 1-3.7 1zm0-1.1c1.2 0 2.3-.3 3.2-.9 1-.6 1.7-1.4 2.2-2.3.5-1 .8-2 .8-3.2 0-1.3-.3-2.4-.9-3.4s-1.3-1.7-2.3-2.3c-.9-.5-2-.8-3.1-.8-1.2 0-2.3.3-3.2.9-1 .6-1.7 1.4-2.2 2.3-.5 1-.8 2-.8 3.2 0 1.3.3 2.4.9 3.4.6 1 1.3 1.7 2.3 2.3 1 .5 2 .8 3.1.8zm2-2.4l-2-3.3h-1.4v3.3h-1.1v-8.1c.9-.2 1.7-.2 2.4-.2.9 0 1.7.2 2.2.7.5.5.8 1.1.8 1.8 0 1.2-.6 2-1.8 2.3l2.2 3.5h-1.3zm-3.4-4.2h1.2c.6 0 1.1-.1 1.5-.4.4-.3.5-.7.5-1.2s-.2-.9-.5-1.2c-.3-.3-.8-.4-1.5-.4-.4 0-.8 0-1.2.1v3.1z" fill="#fff"/></svg>