<svg xmlns="http://www.w3.org/2000/svg" viewBox="0 0 600 600"><path fill="#013d5b" d="M0 0h600v600H0z"/><path d="M38.02 65.22H7.25v37.47h-5.6V58.3h76.92v44.29h-5.6V65.22H43.63v32.64h-5.6V65.22zM1.65 121.7h75.28c1.54 7.69 2.31 14.58 2.31 20.66 0 11.28-3.41 20.09-10.22 26.43-6.81 6.33-16.34 9.5-28.57 9.5-12.46 0-22.03-3.21-28.74-9.61C5 162.27 1.65 153.13 1.65 141.26V121.7zm5.6 19.56c0 9.82 2.8 17.23 8.41 22.25 5.6 5.02 13.86 7.53 24.78 7.53 10.99 0 19.27-2.45 24.84-7.36s8.35-12.24 8.35-21.98c0-3.52-.4-7.88-1.21-13.08H7.25v12.64zm71.32 105.5v6.7H27.25c-8.87 0-15.62-2.29-20.27-6.87C2.32 242.01 0 235.44 0 226.87c0-8.65 2.32-15.26 6.98-19.84 4.65-4.58 11.41-6.87 20.27-6.87h51.32v6.92H27.14c-14.29 0-21.43 6.59-21.43 19.78 0 6.67 1.76 11.65 5.27 14.95 3.52 3.3 8.9 4.95 16.15 4.95h51.44zM4.73 326.21C1.58 319.91 0 313.31 0 306.43c0-9.74 3.53-17.36 10.6-22.86 7.07-5.49 16.9-8.24 29.51-8.24 12.6 0 22.43 2.75 29.51 8.24 7.07 5.49 10.6 13.11 10.6 22.86 0 6.67-1.58 13.15-4.72 19.45h-5.6c1.61-3.37 2.78-6.52 3.52-9.45.73-2.93 1.1-5.97 1.1-9.12 0-8.13-2.91-14.27-8.74-18.41-5.82-4.14-14.38-6.21-25.66-6.21s-19.84 2.07-25.66 6.21c-5.82 4.14-8.74 10.28-8.74 18.41 0 6.23 1.54 12.53 4.61 18.9h-5.6zm-3.08 67.25l20.77-7.25v-34.29l-20.77-7.03v-7.14L78.57 365v8.02L1.65 400.38v-6.92zm26.04-39.67v30.66l44.4-15.49-44.4-15.17zM1.65 425.44h71.32v-23.19h5.6v53.3h-5.6v-23.19H1.65v-6.92zm36.37 54.29H7.25v37.47h-5.6v-44.4h76.92v44.29h-5.6v-37.36H43.63v32.64h-5.6v-32.64zM1.1 536.65c0-1.47.46-2.68 1.37-3.63.91-.95 2.14-1.43 3.68-1.43s2.76.47 3.68 1.43c.92.95 1.37 2.16 1.37 3.63 0 1.46-.46 2.67-1.37 3.63-.92.95-2.14 1.43-3.68 1.43s-2.77-.48-3.68-1.43c-.91-.96-1.37-2.17-1.37-3.63zm162.46-277.03v-25.2h2.27v11.3h13.25v-11.3h2.27v25.2h-2.27v-12.06h-13.25v12.06h-2.27zm37.12-.65c-1.66.79-3.43 1.19-5.33 1.19-2.76 0-4.88-.82-6.37-2.45-1.49-1.63-2.23-3.97-2.23-7.02 0-3.02.7-5.4 2.09-7.13 1.39-1.73 3.3-2.59 5.72-2.59 2.14 0 3.82.67 5.06 2 1.24 1.33 1.85 3.15 1.85 5.45 0 .86-.07 1.69-.22 2.48h-12.38c.02 5.02 2.24 7.52 6.66 7.52 1.78 0 3.49-.38 5.15-1.15v1.7zm-6.16-16.31c-1.63 0-2.96.6-4 1.8-1.03 1.2-1.58 2.81-1.66 4.82h10.51c.05-.38.07-.72.07-1.01 0-1.78-.43-3.16-1.3-4.14-.85-.98-2.06-1.47-3.62-1.47zm11.77 16.96v-27.04l2.16-.29v27.32h-2.16zm8.21 8.03v-26.03l1.84-.18.14 1.26c2.04-1.15 3.91-1.73 5.62-1.73 2.35 0 4.2.82 5.54 2.47 1.34 1.64 2.02 3.92 2.02 6.82 0 3.19-.76 5.64-2.29 7.34-1.52 1.71-3.73 2.56-6.61 2.56-1.49 0-2.86-.19-4.1-.58v7.78l-2.16.29zm7.31-24.95c-.79 0-1.64.13-2.56.4-.91.26-1.78.62-2.59 1.08v13.68c1.25.38 2.56.58 3.92.58 2.3 0 4.01-.67 5.13-2s1.67-3.38 1.67-6.14c0-2.47-.47-4.36-1.42-5.65-.94-1.31-2.33-1.95-4.15-1.95zm13.79-5.58c-.48 0-.87-.14-1.17-.43s-.45-.68-.45-1.19.15-.9.45-1.19.69-.43 1.17-.43.87.14 1.17.43c.3.29.45.68.45 1.19s-.15.9-.45 1.19c-.3.28-.69.43-1.17.43zm-1.08 22.5v-17.93l2.16-.29v18.22h-2.16zm20.27 0v-12.49c0-2.95-1.5-4.43-4.5-4.43-.79 0-1.66.13-2.61.4-.95.26-1.88.62-2.79 1.08v15.44h-2.16v-18l1.84-.18.14 1.26c2.09-1.15 4.13-1.73 6.12-1.73 1.94 0 3.45.5 4.52 1.51 1.07 1.01 1.6 2.44 1.6 4.28v12.85h-2.16zm13.86 8.38c-2.14 0-3.95-.37-5.44-1.12l-.29-1.84c1.97.82 3.84 1.22 5.62 1.22 4.01 0 6.01-1.86 6.01-5.58v-2.48c-.91.5-1.84.9-2.79 1.19-.95.29-1.83.43-2.65.43-2.35 0-4.2-.79-5.54-2.38-1.34-1.58-2.02-3.78-2.02-6.59 0-3.19.76-5.64 2.29-7.34 1.52-1.7 3.73-2.56 6.61-2.56 2.18 0 4.27.38 6.26 1.15v18.4c0 2.4-.7 4.25-2.09 5.54-1.39 1.32-3.38 1.96-5.97 1.96zm.75-9.9c.79 0 1.64-.13 2.56-.4.91-.26 1.78-.62 2.59-1.08v-13.36c-1.25-.38-2.56-.58-3.92-.58-2.3 0-4.01.67-5.13 2s-1.67 3.38-1.67 6.14c0 2.38.47 4.18 1.42 5.42.94 1.25 2.33 1.86 4.15 1.86zm38.23.51c-2.06 1.03-4.22 1.55-6.48 1.55-3.19 0-5.69-1.16-7.49-3.47-1.8-2.32-2.7-5.54-2.7-9.67s.9-7.35 2.7-9.67c1.8-2.32 4.3-3.47 7.49-3.47 2.18 0 4.31.52 6.37 1.55v1.84c-1.1-.53-2.14-.91-3.1-1.15-.96-.24-1.96-.36-2.99-.36-2.66 0-4.67.95-6.03 2.86-1.36 1.91-2.03 4.71-2.03 8.41s.68 6.5 2.03 8.41 3.37 2.86 6.03 2.86c2.04 0 4.1-.5 6.19-1.51v1.82zm16.02 1.08l-.14-1.26c-2.06 1.15-4.1 1.73-6.12 1.73-1.85 0-3.31-.49-4.39-1.46-1.08-.97-1.62-2.31-1.62-4.01 0-1.8.61-3.17 1.82-4.12 1.21-.95 2.99-1.42 5.35-1.42 1.42 0 3.02.17 4.82.5v-2.45c0-3-1.69-4.5-5.08-4.5-.89 0-1.86.12-2.92.36-1.06.24-2.03.55-2.92.94v-1.69c.86-.41 1.85-.73 2.97-.97s2.18-.36 3.19-.36c2.25 0 3.97.53 5.13 1.6 1.16 1.07 1.75 2.61 1.75 4.63v12.31l-1.84.17zm-5.76-1.26c.86 0 1.78-.13 2.74-.4s1.87-.62 2.74-1.08v-5.76c-1.51-.29-3-.43-4.46-.43-1.85 0-3.19.31-4.03.94-.84.62-1.26 1.61-1.26 2.95-.01 2.52 1.42 3.78 4.27 3.78zm25.45 1.19v-12.49c0-2.95-1.5-4.43-4.5-4.43-.79 0-1.66.13-2.61.4-.95.26-1.88.62-2.79 1.08v15.44h-2.16v-18l1.84-.18.14 1.26c2.09-1.15 4.13-1.73 6.12-1.73 1.94 0 3.45.5 4.52 1.51 1.07 1.01 1.6 2.44 1.6 4.28v12.85h-2.16zm19.05.07l-.14-1.26c-2.06 1.15-4.1 1.73-6.12 1.73-1.85 0-3.31-.49-4.39-1.46-1.08-.97-1.62-2.31-1.62-4.01 0-1.8.61-3.17 1.82-4.12 1.21-.95 2.99-1.42 5.35-1.42 1.42 0 3.02.17 4.82.5v-2.45c0-3-1.69-4.5-5.08-4.5-.89 0-1.86.12-2.92.36-1.06.24-2.03.55-2.92.94v-1.69c.86-.41 1.85-.73 2.97-.97s2.18-.36 3.19-.36c2.25 0 3.97.53 5.13 1.6 1.16 1.07 1.75 2.61 1.75 4.63v12.31l-1.84.17zm-5.76-1.26c.86 0 1.78-.13 2.74-.4s1.87-.62 2.74-1.08v-5.76c-1.51-.29-3-.43-4.46-.43-1.85 0-3.19.31-4.03.94-.84.62-1.26 1.61-1.26 2.95-.02 2.52 1.41 3.78 4.27 3.78zm27.36-26.14v27.22l-1.84.18-.14-1.26c-2.04 1.15-3.91 1.73-5.62 1.73-2.35 0-4.2-.82-5.54-2.47-1.34-1.64-2.02-3.92-2.02-6.82 0-3.19.76-5.64 2.29-7.34 1.52-1.7 3.73-2.56 6.61-2.56 1.49 0 2.86.19 4.1.58v-8.96l2.16-.3zm-7.31 26.14c.79 0 1.64-.13 2.56-.4.91-.26 1.78-.62 2.59-1.08v-13.68c-1.25-.38-2.56-.58-3.92-.58-2.3 0-4.01.67-5.13 2s-1.67 3.38-1.67 6.14c0 2.47.47 4.36 1.42 5.65.94 1.3 2.33 1.95 4.15 1.95zm14.43-21.31c-.48 0-.87-.14-1.17-.43s-.45-.68-.45-1.19.15-.9.45-1.19.69-.43 1.17-.43.87.14 1.17.43c.3.29.45.68.45 1.19s-.15.9-.45 1.19c-.29.28-.68.43-1.17.43zm-1.07 22.5v-17.93l2.16-.29v18.22h-2.16zm19.29.07l-.14-1.26c-2.06 1.15-4.1 1.73-6.12 1.73-1.85 0-3.31-.49-4.39-1.46-1.08-.97-1.62-2.31-1.62-4.01 0-1.8.61-3.17 1.82-4.12 1.21-.95 2.99-1.42 5.35-1.42 1.42 0 3.02.17 4.82.5v-2.45c0-3-1.69-4.5-5.08-4.5-.89 0-1.86.12-2.92.36-1.06.24-2.03.55-2.92.94v-1.69c.86-.41 1.85-.73 2.97-.97s2.18-.36 3.19-.36c2.25 0 3.97.53 5.13 1.6 1.16 1.07 1.75 2.61 1.75 4.63v12.31l-1.84.17zm-5.76-1.26c.86 0 1.78-.13 2.74-.4s1.87-.62 2.74-1.08v-5.76c-1.51-.29-3-.43-4.46-.43-1.85 0-3.19.31-4.03.94-.84.62-1.26 1.61-1.26 2.95-.01 2.52 1.42 3.78 4.27 3.78zm25.45 1.19v-12.49c0-2.95-1.5-4.43-4.5-4.43-.79 0-1.66.13-2.61.4-.95.26-1.88.62-2.79 1.08v15.44h-2.16v-18l1.84-.18.14 1.26c2.09-1.15 4.13-1.73 6.12-1.73 1.94 0 3.45.5 4.52 1.51 1.07 1.01 1.6 2.44 1.6 4.28v12.85h-2.16zm-254.04 49.35c-1.58.79-3.31 1.19-5.18 1.19-2.54 0-4.51-.83-5.89-2.48-1.38-1.66-2.07-4.02-2.07-7.09 0-3.07.69-5.44 2.07-7.11s3.34-2.5 5.89-2.5c1.8 0 3.5.4 5.11 1.19v1.69c-1.68-.74-3.31-1.12-4.9-1.12-1.94 0-3.41.66-4.41 1.98-1 1.32-1.49 3.28-1.49 5.87 0 2.57.5 4.51 1.49 5.83 1 1.32 2.47 1.98 4.41 1.98 1.63 0 3.29-.37 4.97-1.12v1.69zm4.64.65v-27.04l2.16-.29v10.33c2.02-1.1 4-1.66 5.94-1.66s3.45.5 4.52 1.51c1.07 1.01 1.6 2.44 1.6 4.28v12.85h-2.16v-12.49c0-2.95-1.5-4.43-4.5-4.43-.79 0-1.66.13-2.61.4-.95.26-1.88.62-2.79 1.08v15.44h-2.16zm31.1.07l-.14-1.26c-2.06 1.15-4.1 1.73-6.12 1.73-1.85 0-3.31-.49-4.39-1.46s-1.62-2.31-1.62-4.01c0-1.8.61-3.17 1.82-4.12 1.21-.95 2.99-1.42 5.35-1.42 1.42 0 3.02.17 4.82.5v-2.45c0-3-1.69-4.5-5.08-4.5-.89 0-1.86.12-2.92.36-1.06.24-2.03.55-2.92.94v-1.69c.86-.41 1.85-.73 2.97-.97s2.18-.36 3.19-.36c2.25 0 3.97.54 5.13 1.6 1.16 1.07 1.75 2.61 1.75 4.63v12.31l-1.84.17zm-5.76-1.26c.86 0 1.78-.13 2.74-.4.96-.26 1.87-.62 2.74-1.08v-5.76c-1.51-.29-3-.43-4.46-.43-1.85 0-3.19.31-4.03.94-.84.62-1.26 1.61-1.26 2.95-.01 2.52 1.42 3.78 4.27 3.78zm13.4 1.19v-18l1.84-.18.18 1.62c1.61-1.32 3.32-1.98 5.15-1.98.65 0 1.16.07 1.55.22v1.76c-.62-.14-1.18-.22-1.66-.22-1.7 0-3.34.61-4.9 1.84v14.94h-2.16zm13.46-22.5c-.48 0-.87-.14-1.17-.43s-.45-.68-.45-1.19.15-.9.45-1.19.69-.43 1.17-.43.87.14 1.17.43c.3.29.45.68.45 1.19s-.15.9-.45 1.19c-.3.28-.69.43-1.17.43zm-1.08 22.5v-17.93l2.16-.29v18.22h-2.16zm10.87-16.46v11.52c0 1.25.26 2.17.79 2.75.53.59 1.34.88 2.45.88.72 0 1.54-.13 2.45-.4v1.58c-1.01.34-1.93.5-2.77.5-1.66 0-2.92-.45-3.78-1.35-.86-.9-1.3-2.24-1.3-4.01v-11.48h-2.74v-1.55l2.81-.11.22-4.54 1.87-.22v4.75h5.44v1.66h-5.44zm10.51-6.04c-.48 0-.87-.14-1.17-.43s-.45-.68-.45-1.19.15-.9.45-1.19.69-.43 1.17-.43.87.14 1.17.43c.3.29.45.68.45 1.19s-.15.9-.45 1.19c-.3.28-.69.43-1.17.43zm-1.08 22.5v-17.93l2.16-.29v18.22h-2.16zm20.95-.65c-1.66.79-3.43 1.19-5.33 1.19-2.76 0-4.88-.82-6.37-2.45-1.49-1.63-2.23-3.97-2.23-7.02 0-3.02.7-5.4 2.09-7.13 1.39-1.73 3.3-2.59 5.72-2.59 2.14 0 3.82.67 5.06 2 1.24 1.33 1.85 3.15 1.85 5.45 0 .86-.07 1.69-.22 2.48h-12.38c.02 5.02 2.24 7.52 6.66 7.52 1.78 0 3.49-.38 5.15-1.15v1.7zm-6.15-16.31c-1.63 0-2.96.6-4 1.8-1.03 1.2-1.58 2.81-1.66 4.82h10.51c.05-.38.07-.72.07-1.01 0-1.78-.43-3.16-1.3-4.14-.85-.98-2.06-1.47-3.62-1.47zm10.37 14.58c1.8.79 3.66 1.19 5.58 1.19 3.24 0 4.86-1.26 4.86-3.78 0-.82-.23-1.48-.7-1.98s-1.24-.92-2.32-1.26l-2.74-.86c-1.54-.48-2.65-1.08-3.35-1.82-.7-.73-1.04-1.66-1.04-2.79 0-1.51.59-2.72 1.78-3.62 1.19-.9 2.79-1.35 4.81-1.35 1.7 0 3.32.32 4.86.97v1.69c-1.61-.62-3.19-.94-4.75-.94-1.42 0-2.53.28-3.33.85-.8.56-1.21 1.34-1.21 2.32 0 .7.22 1.25.67 1.67.44.42 1.24.82 2.39 1.21l2.84.94c1.46.48 2.54 1.12 3.22 1.91.68.79 1.03 1.8 1.03 3.02 0 1.78-.6 3.14-1.8 4.1-1.2.96-2.89 1.44-5.08 1.44-2.02 0-3.83-.37-5.44-1.12l-.28-1.79zm28.9-14.08v11.52c0 1.25.26 2.17.79 2.75.53.59 1.34.88 2.45.88.72 0 1.54-.13 2.45-.4v1.58c-1.01.34-1.93.5-2.77.5-1.66 0-2.92-.45-3.78-1.35-.86-.9-1.3-2.24-1.3-4.01v-11.48h-2.74v-1.55l2.81-.11.22-4.54 1.87-.22v4.75h5.44v1.66h-5.44zm16.17 17c-2.62 0-4.59-.81-5.92-2.43s-2-4.01-2-7.18c0-3.14.67-5.53 2-7.15s3.31-2.43 5.92-2.43 4.59.81 5.92 2.43 2 4 2 7.15c0 3.17-.67 5.56-2 7.18s-3.31 2.43-5.92 2.43zm0-1.73c1.97 0 3.4-.63 4.3-1.89.9-1.26 1.35-3.26 1.35-5.99 0-2.71-.45-4.7-1.35-5.96-.9-1.26-2.33-1.89-4.3-1.89s-3.4.63-4.3 1.89c-.9 1.26-1.35 3.25-1.35 5.96 0 2.74.45 4.73 1.35 5.99.89 1.26 2.33 1.89 4.3 1.89zm24.44-15.27v11.52c0 1.25.26 2.17.79 2.75.53.59 1.34.88 2.45.88.72 0 1.54-.13 2.45-.4v1.58c-1.01.34-1.93.5-2.77.5-1.66 0-2.92-.45-3.78-1.35-.86-.9-1.3-2.24-1.3-4.01v-11.48h-2.74v-1.55l2.81-.11.22-4.54 1.87-.22v4.75h5.44v1.66h-5.44zm9.43 16.46v-27.04l2.16-.29v10.33c2.02-1.1 4-1.66 5.94-1.66s3.45.5 4.52 1.51c1.07 1.01 1.6 2.44 1.6 4.28v12.85h-2.16v-12.49c0-2.95-1.5-4.43-4.5-4.43-.79 0-1.66.13-2.61.4-.95.26-1.88.62-2.79 1.08v15.44h-2.16zm20.02 0v-18l1.84-.18.18 1.62c1.61-1.32 3.32-1.98 5.15-1.98.65 0 1.16.07 1.55.22v1.76c-.62-.14-1.18-.22-1.66-.22-1.7 0-3.34.61-4.9 1.84v14.94h-2.16zm13.46-22.5c-.48 0-.87-.14-1.17-.43s-.45-.68-.45-1.19.15-.9.45-1.19.69-.43 1.17-.43.87.14 1.17.43c.3.29.45.68.45 1.19s-.15.9-.45 1.19c-.3.28-.69.43-1.17.43zm-1.08 22.5v-17.93l2.16-.29v18.22h-2.16zm12.31 0l-6.84-18.11h2.27l5.65 15.8 5.83-15.8h2.16l-6.98 18.11h-2.09zm24.77-.65c-1.66.79-3.43 1.19-5.33 1.19-2.76 0-4.88-.82-6.37-2.45-1.49-1.63-2.23-3.97-2.23-7.02 0-3.02.7-5.4 2.09-7.13 1.39-1.73 3.3-2.59 5.72-2.59 2.14 0 3.82.67 5.06 2 1.24 1.33 1.85 3.15 1.85 5.45 0 .86-.07 1.69-.22 2.48h-12.38c.02 5.02 2.24 7.52 6.66 7.52 1.78 0 3.49-.38 5.15-1.15v1.7zm-6.15-16.31c-1.63 0-2.96.6-4 1.8-1.03 1.2-1.58 2.81-1.66 4.82h10.51c.05-.38.07-.72.07-1.01 0-1.78-.43-3.16-1.3-4.14-.85-.98-2.06-1.47-3.62-1.47zm21.85-5.54c-.48 0-.87-.14-1.17-.43s-.45-.68-.45-1.19.15-.9.45-1.19.69-.43 1.17-.43.87.14 1.17.43c.3.29.45.68.45 1.19s-.15.9-.45 1.19c-.3.28-.69.43-1.17.43zm-1.08 22.5v-17.93l2.16-.29v18.22h-2.16zm20.27 0v-12.49c0-2.95-1.5-4.43-4.5-4.43-.79 0-1.66.13-2.61.4-.95.26-1.88.62-2.79 1.08v15.44h-2.16v-18l1.84-.18.14 1.26c2.09-1.15 4.13-1.73 6.12-1.73 1.94 0 3.45.5 4.52 1.51 1.07 1.01 1.6 2.44 1.6 4.28v12.85h-2.16zm-285.41 50.07l-.14-1.26c-2.06 1.15-4.1 1.73-6.12 1.73-1.85 0-3.31-.49-4.39-1.46s-1.62-2.31-1.62-4.01c0-1.8.61-3.17 1.82-4.12 1.21-.95 2.99-1.42 5.35-1.42 1.42 0 3.02.17 4.82.5v-2.45c0-3-1.69-4.5-5.08-4.5-.89 0-1.86.12-2.92.36-1.06.24-2.03.55-2.92.94v-1.69c.86-.41 1.85-.73 2.97-.97s2.18-.36 3.19-.36c2.25 0 3.97.54 5.13 1.6 1.16 1.07 1.75 2.61 1.75 4.63v12.31l-1.84.17zm-5.76-1.26c.86 0 1.78-.13 2.74-.4.96-.26 1.87-.62 2.74-1.08v-5.76c-1.51-.29-3-.43-4.46-.43-1.85 0-3.19.31-4.03.94-.84.62-1.26 1.61-1.26 2.95-.01 2.52 1.42 3.78 4.27 3.78zm36.36-26.14v27.22l-1.84.18-.14-1.26c-2.04 1.15-3.91 1.73-5.62 1.73-2.35 0-4.2-.82-5.54-2.47-1.34-1.64-2.02-3.92-2.02-6.82 0-3.19.76-5.64 2.29-7.34 1.52-1.7 3.73-2.56 6.61-2.56 1.49 0 2.86.19 4.1.58v-8.96l2.16-.3zm-7.31 26.14c.79 0 1.64-.13 2.56-.4.91-.26 1.78-.62 2.59-1.08v-13.68c-1.25-.38-2.56-.58-3.92-.58-2.3 0-4.01.67-5.13 2s-1.67 3.38-1.67 6.14c0 2.47.47 4.36 1.42 5.65.94 1.3 2.33 1.95 4.15 1.95zm14.44-21.31c-.48 0-.87-.14-1.17-.43s-.45-.68-.45-1.19.15-.9.45-1.19.69-.43 1.17-.43.87.14 1.17.43c.3.29.45.68.45 1.19s-.15.9-.45 1.19c-.3.28-.69.43-1.17.43zm-1.08 22.5v-17.93l2.16-.29v18.22h-2.16zm14.11 8.38c-2.14 0-3.95-.37-5.44-1.12l-.29-1.84c1.97.82 3.84 1.22 5.62 1.22 4.01 0 6.01-1.86 6.01-5.58v-2.48c-.91.5-1.84.9-2.79 1.19s-1.83.43-2.65.43c-2.35 0-4.2-.79-5.54-2.38-1.34-1.58-2.02-3.78-2.02-6.59 0-3.19.76-5.64 2.29-7.34 1.52-1.7 3.73-2.56 6.61-2.56 2.18 0 4.27.38 6.26 1.15v18.4c0 2.4-.7 4.25-2.09 5.54-1.39 1.32-3.38 1.96-5.97 1.96zm.76-9.9c.79 0 1.64-.13 2.56-.4.91-.26 1.78-.62 2.59-1.08v-13.36c-1.25-.38-2.56-.58-3.92-.58-2.3 0-4.01.67-5.13 2s-1.67 3.38-1.67 6.14c0 2.38.47 4.18 1.42 5.42.94 1.25 2.32 1.86 4.15 1.86zm14.43-20.98c-.48 0-.87-.14-1.17-.43s-.45-.68-.45-1.19.15-.9.45-1.19.69-.43 1.17-.43.87.14 1.17.43c.3.29.45.68.45 1.19s-.15.9-.45 1.19c-.3.28-.69.43-1.17.43zm-1.08 22.5v-17.93l2.16-.29v18.22h-2.16zm10.88-16.46v11.52c0 1.25.26 2.17.79 2.75.53.59 1.34.88 2.45.88.72 0 1.54-.13 2.45-.4v1.58c-1.01.34-1.93.5-2.77.5-1.66 0-2.92-.45-3.78-1.35-.86-.9-1.3-2.24-1.3-4.01v-11.48h-2.74v-1.55l2.81-.11.22-4.54 1.87-.22v4.75h5.44v1.66h-5.44zm20.51 16.53l-.14-1.26c-2.06 1.15-4.1 1.73-6.12 1.73-1.85 0-3.31-.49-4.39-1.46s-1.62-2.31-1.62-4.01c0-1.8.61-3.17 1.82-4.12 1.21-.95 2.99-1.42 5.35-1.42 1.42 0 3.02.17 4.82.5v-2.45c0-3-1.69-4.5-5.08-4.5-.89 0-1.86.12-2.92.36-1.06.24-2.03.55-2.92.94v-1.69c.86-.41 1.85-.73 2.97-.97s2.18-.36 3.19-.36c2.25 0 3.97.54 5.13 1.6 1.16 1.07 1.75 2.61 1.75 4.63v12.31l-1.84.17zm-5.76-1.26c.86 0 1.78-.13 2.74-.4.96-.26 1.87-.62 2.74-1.08v-5.76c-1.51-.29-3-.43-4.46-.43-1.85 0-3.19.31-4.03.94-.84.62-1.26 1.61-1.26 2.95-.01 2.52 1.42 3.78 4.27 3.78zm13.4 1.19v-27.04l2.16-.29v27.32h-2.16zm17.71 0v-16.45h-2.74v-1.55l2.74-.11v-4.07c0-1.78.44-3.14 1.31-4.09s2.15-1.42 3.83-1.42c.91 0 1.84.17 2.77.5v1.58c-.86-.26-1.69-.4-2.48-.4-1.13 0-1.96.29-2.48.88-.53.59-.79 1.51-.79 2.75v4.25h4.86v1.66h-4.86v16.45h-2.16zm12.92-18.11V354c0 2.95 1.45 4.43 4.36 4.43.79 0 1.66-.13 2.61-.4.95-.26 1.88-.62 2.79-1.08v-15.44h2.16v18l-1.84.18-.14-1.26c-2.09 1.15-4.13 1.73-6.12 1.73-1.9 0-3.37-.51-4.41-1.53s-1.57-2.44-1.57-4.27v-12.85h2.16zm20.63 1.65v11.52c0 1.25.26 2.17.79 2.75.53.59 1.34.88 2.45.88.72 0 1.54-.13 2.45-.4v1.58c-1.01.34-1.93.5-2.77.5-1.66 0-2.92-.45-3.78-1.35-.86-.9-1.3-2.24-1.3-4.01v-11.48h-2.74v-1.55l2.81-.11.22-4.54 1.87-.22v4.75h5.44v1.66h-5.44zm11.34-1.65V354c0 2.95 1.45 4.43 4.36 4.43.79 0 1.66-.13 2.61-.4.95-.26 1.88-.62 2.79-1.08v-15.44h2.16v18l-1.84.18-.14-1.26c-2.09 1.15-4.13 1.73-6.12 1.73-1.9 0-3.37-.51-4.41-1.53s-1.57-2.44-1.57-4.27v-12.85h2.16zm17.96 18.11v-18l1.84-.18.18 1.62c1.61-1.32 3.32-1.98 5.15-1.98.65 0 1.16.07 1.55.22v1.76c-.62-.14-1.18-.22-1.66-.22-1.7 0-3.34.61-4.9 1.84v14.94h-2.16zm24.77-.65c-1.66.79-3.43 1.19-5.33 1.19-2.76 0-4.88-.82-6.37-2.45-1.49-1.63-2.23-3.97-2.23-7.02 0-3.02.7-5.4 2.09-7.13 1.39-1.73 3.3-2.59 5.72-2.59 2.14 0 3.82.67 5.06 2 1.24 1.33 1.85 3.15 1.85 5.45 0 .86-.07 1.69-.22 2.48h-12.38c.02 5.02 2.24 7.52 6.66 7.52 1.78 0 3.49-.38 5.15-1.15v1.7zm-6.16-16.31c-1.63 0-2.96.6-4 1.8-1.03 1.2-1.58 2.81-1.66 4.82h10.51c.05-.38.07-.72.07-1.01 0-1.78-.43-3.16-1.3-4.14-.84-.98-2.06-1.47-3.62-1.47zm12.46 17.14c-.48 0-.88-.15-1.19-.45-.31-.3-.47-.7-.47-1.21 0-.5.16-.91.47-1.21.31-.3.71-.45 1.19-.45s.88.15 1.19.45c.31.3.47.7.47 1.21 0 .5-.16.91-.47 1.21-.31.3-.71.45-1.19.45z" fill="#fff"/></svg>