<svg xmlns="http://www.w3.org/2000/svg" viewBox="0 0 600 600"><path fill="#00c0e5" d="M0 0h600v600H0z"/><path d="M38.02 31.92H7.25V69.4h-5.6V25h76.92v44.29h-5.6V31.92H43.63v32.64h-5.6V31.92zM1.65 155.33l67.69-4.18-60.99-24.06v-6.37l61.1-24.29-67.8-4.07v-6.59l76.92 5.38v8.02l-62.42 24.62 62.42 24.84v8.02l-76.92 5.38v-6.7zm0 30.55h75.28c.66 3.22 1.21 6.79 1.65 10.71.44 3.92.66 7.27.66 10.06 0 8.5-2.07 15.2-6.21 20.11-4.14 4.91-9.87 7.36-17.2 7.36s-13.08-2.55-17.25-7.64c-4.18-5.09-6.26-12.11-6.26-21.04V192.8H1.65v-6.92zm72.09 20c0-3.74-.44-8.1-1.32-13.08H37.8v12.53c0 6.96 1.56 12.31 4.67 16.04 3.11 3.74 7.56 5.6 13.35 5.6 5.86 0 10.31-1.78 13.35-5.33 3.05-3.54 4.57-8.8 4.57-15.76zM0 281.37c0-10.11 3.48-17.88 10.44-23.3 6.96-5.42 16.85-8.13 29.67-8.13s22.71 2.71 29.67 8.13c6.96 5.42 10.44 13.19 10.44 23.3 0 10.11-3.48 17.88-10.44 23.3-6.96 5.42-16.85 8.13-29.67 8.13s-22.71-2.71-29.67-8.13C3.48 299.25 0 291.48 0 281.37zm5.6 0c0 16.12 11.5 24.18 34.51 24.18 23 0 34.51-8.06 34.51-24.18s-11.5-24.18-34.51-24.18c-23 .01-34.51 8.07-34.51 24.18zM1.65 389.18l68.57-17.91-68.57-18.03v-7.36l76.92-19.45v7.03l-68.02 16.26 68.02 17.58v7.91L10.33 392.8l68.24 16.37v6.92L1.65 396.65v-7.47zm36.37 51.54H7.25v37.47h-5.6v-44.4h76.92v44.29h-5.6v-37.36H43.63v32.64h-5.6v-32.64zM1.65 497.2h75.28c.66 3.22 1.21 6.79 1.65 10.71.44 3.92.66 7.27.66 10.06 0 8.42-2.05 15.09-6.15 20-4.1 4.91-9.67 7.36-16.7 7.36-5.64 0-10.33-1.56-14.07-4.67-3.74-3.12-6.3-7.57-7.69-13.35L1.65 549.07v-8.13l31.87-20.44a15.3 15.3 0 0 1-.11-1.81v-14.67H1.65v-6.82zm72.09 20c0-3.81-.44-8.21-1.32-13.19H38.9v12.64c0 7.03 1.48 12.4 4.45 16.1 2.97 3.7 7.31 5.55 13.02 5.55 5.64 0 9.95-1.8 12.91-5.39 2.97-3.59 4.46-8.82 4.46-15.71zM1.1 569.95c0-1.47.46-2.68 1.37-3.63.92-.95 2.14-1.43 3.68-1.43s2.76.47 3.68 1.43c.92.95 1.37 2.16 1.37 3.63 0 1.46-.46 2.67-1.37 3.63-.91.94-2.14 1.42-3.68 1.42s-2.77-.48-3.68-1.43c-.91-.95-1.37-2.16-1.37-3.62zm160.48-363.64c2.52 1.1 4.91 1.66 7.16 1.66 2.14 0 3.79-.47 4.95-1.42 1.16-.95 1.75-2.31 1.75-4.09 0-1.34-.38-2.42-1.15-3.24-.77-.82-2.05-1.5-3.85-2.05l-2.56-.79c-1.97-.6-3.41-1.39-4.32-2.36-.91-.97-1.37-2.21-1.37-3.73 0-2.04.77-3.68 2.32-4.91 1.55-1.24 3.62-1.85 6.21-1.85 2.09 0 4.1.44 6.05 1.33v1.8c-2.06-.86-4.06-1.3-5.98-1.3-1.97 0-3.5.43-4.61 1.28-1.1.85-1.66 2.05-1.66 3.58 0 1.08.31 1.93.94 2.56s1.72 1.19 3.28 1.69l2.56.83c2.3.74 3.96 1.67 4.97 2.79 1.01 1.12 1.51 2.56 1.51 4.34 0 2.28-.8 4.08-2.39 5.4s-3.77 1.98-6.53 1.98c-2.54 0-4.85-.52-6.91-1.55l-.37-1.95zm22.72-15.15v12.49c0 2.95 1.45 4.43 4.36 4.43.79 0 1.66-.13 2.61-.4.95-.26 1.88-.62 2.79-1.08v-15.44h2.16v18l-1.84.18-.14-1.26c-2.09 1.15-4.13 1.73-6.12 1.73-1.9 0-3.37-.51-4.41-1.53s-1.57-2.44-1.57-4.27v-12.85h2.16zm17.96 26.13v-26.03l1.84-.18.14 1.26c2.04-1.15 3.91-1.73 5.62-1.73 2.35 0 4.2.82 5.54 2.47 1.34 1.64 2.02 3.92 2.02 6.82 0 3.19-.76 5.64-2.29 7.34s-3.73 2.56-6.61 2.56c-1.49 0-2.86-.19-4.1-.58V217l-2.16.29zm7.31-24.94c-.79 0-1.64.13-2.56.4-.91.26-1.78.62-2.59 1.08v13.68c1.25.38 2.56.58 3.92.58 2.3 0 4.01-.67 5.13-2s1.67-3.38 1.67-6.14c0-2.47-.47-4.36-1.42-5.65-.94-1.31-2.33-1.95-4.15-1.95zm12.71 24.94v-26.03l1.84-.18.14 1.26c2.04-1.15 3.91-1.73 5.62-1.73 2.35 0 4.2.82 5.54 2.47 1.34 1.64 2.02 3.92 2.02 6.82 0 3.19-.76 5.64-2.29 7.34s-3.73 2.56-6.61 2.56c-1.49 0-2.86-.19-4.1-.58V217l-2.16.29zm7.31-24.94c-.79 0-1.64.13-2.56.4-.91.26-1.78.62-2.59 1.08v13.68c1.25.38 2.56.58 3.92.58 2.3 0 4.01-.67 5.13-2s1.67-3.38 1.67-6.14c0-2.47-.47-4.36-1.42-5.65-.94-1.31-2.33-1.95-4.15-1.95zm19.44 17.46c-2.62 0-4.59-.81-5.92-2.43s-2-4.01-2-7.18c0-3.14.67-5.53 2-7.15s3.31-2.43 5.92-2.43 4.59.81 5.92 2.43 2 4 2 7.15c0 3.17-.67 5.56-2 7.18s-3.31 2.43-5.92 2.43zm0-1.73c1.97 0 3.4-.63 4.3-1.89.9-1.26 1.35-3.26 1.35-5.99 0-2.71-.45-4.7-1.35-5.96-.9-1.26-2.33-1.89-4.3-1.89s-3.4.63-4.3 1.89c-.9 1.26-1.35 3.25-1.35 5.96 0 2.74.45 4.73 1.35 5.99.89 1.26 2.33 1.89 4.3 1.89zm12.78 1.19v-18l1.84-.18.18 1.62c1.61-1.32 3.32-1.98 5.15-1.98.65 0 1.16.07 1.55.22v1.76c-.62-.14-1.18-.22-1.66-.22-1.7 0-3.34.61-4.9 1.84v14.94h-2.16zm15.04-16.46v11.52c0 1.25.26 2.17.79 2.75.53.59 1.34.88 2.45.88.72 0 1.54-.13 2.45-.4v1.58c-1.01.34-1.93.5-2.77.5-1.66 0-2.92-.45-3.78-1.35-.86-.9-1.3-2.24-1.3-4.01V192.8h-2.74v-1.55l2.81-.11.22-4.54 1.87-.22v4.75h5.44v1.66h-5.44zm10.51-6.04c-.48 0-.87-.14-1.17-.43s-.45-.68-.45-1.19.15-.9.45-1.19.69-.43 1.17-.43.87.14 1.17.43c.3.29.45.68.45 1.19s-.15.9-.45 1.19c-.29.28-.68.43-1.17.43zm-1.07 22.5v-17.93l2.16-.29v18.22h-2.16zm20.26 0v-12.49c0-2.95-1.5-4.43-4.5-4.43-.79 0-1.66.13-2.61.4-.95.26-1.88.62-2.79 1.08v15.44h-2.16v-18l1.84-.18.14 1.26c2.09-1.15 4.13-1.73 6.12-1.73 1.94 0 3.45.5 4.52 1.51 1.07 1.01 1.6 2.44 1.6 4.28v12.85h-2.16zm13.86 8.38c-2.14 0-3.95-.37-5.44-1.12l-.29-1.84c1.97.82 3.84 1.22 5.62 1.22 4.01 0 6.01-1.86 6.01-5.58v-2.48c-.91.5-1.84.9-2.79 1.19s-1.83.43-2.65.43c-2.35 0-4.2-.79-5.54-2.38-1.34-1.58-2.02-3.78-2.02-6.59 0-3.19.76-5.64 2.29-7.34 1.52-1.7 3.73-2.56 6.61-2.56 2.18 0 4.27.38 6.26 1.15v18.4c0 2.4-.7 4.25-2.09 5.54-1.38 1.32-3.38 1.96-5.97 1.96zm.76-9.9c.79 0 1.64-.13 2.56-.4.91-.26 1.78-.62 2.59-1.08v-13.36c-1.25-.38-2.56-.58-3.92-.58-2.3 0-4.01.67-5.13 2s-1.67 3.38-1.67 6.14c0 2.38.47 4.18 1.42 5.42.94 1.25 2.32 1.86 4.15 1.86zm34.31.87c-1.58.79-3.31 1.19-5.18 1.19-2.54 0-4.51-.83-5.89-2.48-1.38-1.66-2.07-4.02-2.07-7.09 0-3.07.69-5.44 2.07-7.11s3.34-2.5 5.89-2.5c1.8 0 3.5.4 5.11 1.19v1.69c-1.68-.74-3.31-1.12-4.9-1.12-1.94 0-3.41.66-4.41 1.98s-1.49 3.28-1.49 5.87c0 2.57.5 4.51 1.49 5.83 1 1.32 2.47 1.98 4.41 1.98 1.63 0 3.29-.37 4.97-1.12v1.69zm4.64.65v-27.04l2.16-.29v10.33c2.02-1.1 4-1.66 5.94-1.66s3.45.5 4.52 1.51c1.07 1.01 1.6 2.44 1.6 4.28v12.85h-2.16v-12.49c0-2.95-1.5-4.43-4.5-4.43-.79 0-1.66.13-2.61.4-.95.26-1.88.62-2.79 1.08v15.44h-2.16zm31.1.07l-.14-1.26c-2.06 1.15-4.1 1.73-6.12 1.73-1.85 0-3.31-.49-4.39-1.46-1.08-.97-1.62-2.31-1.62-4.01 0-1.8.61-3.17 1.82-4.12 1.21-.95 2.99-1.42 5.35-1.42 1.42 0 3.02.17 4.82.5v-2.45c0-3-1.69-4.5-5.08-4.5-.89 0-1.86.12-2.92.36-1.06.24-2.03.55-2.92.94v-1.69c.86-.41 1.85-.73 2.97-.97s2.18-.36 3.19-.36c2.25 0 3.97.53 5.13 1.6s1.75 2.61 1.75 4.63v12.31l-1.84.17zm-5.76-1.26c.86 0 1.78-.13 2.74-.4.96-.26 1.87-.62 2.74-1.08v-5.76c-1.51-.29-3-.43-4.46-.43-1.85 0-3.19.31-4.03.94-.84.62-1.26 1.61-1.26 2.95-.01 2.52 1.42 3.78 4.27 3.78zm13.4 1.19v-18l1.84-.18.18 1.62c1.61-1.32 3.32-1.98 5.15-1.98.65 0 1.16.07 1.55.22v1.76c-.62-.14-1.18-.22-1.66-.22-1.7 0-3.34.61-4.9 1.84v14.94h-2.16zm13.46-22.5c-.48 0-.87-.14-1.17-.43s-.45-.68-.45-1.19.15-.9.45-1.19.69-.43 1.17-.43.87.14 1.17.43c.3.29.45.68.45 1.19s-.15.9-.45 1.19c-.3.28-.69.43-1.17.43zm-1.08 22.5v-17.93l2.16-.29v18.22h-2.16zm10.87-16.46v11.52c0 1.25.26 2.17.79 2.75.53.59 1.34.88 2.45.88.72 0 1.54-.13 2.45-.4v1.58c-1.01.34-1.93.5-2.77.5-1.66 0-2.92-.45-3.78-1.35-.86-.9-1.3-2.24-1.3-4.01V192.8h-2.74v-1.55l2.81-.11.22-4.54 1.87-.22v4.75h5.44v1.66h-5.44zm10.51-6.04c-.48 0-.87-.14-1.17-.43s-.45-.68-.45-1.19.15-.9.45-1.19.69-.43 1.17-.43.87.14 1.17.43c.3.29.45.68.45 1.19s-.15.9-.45 1.19c-.3.28-.69.43-1.17.43zm-1.08 22.5v-17.93l2.16-.29v18.22h-2.16zm20.95-.65c-1.66.79-3.43 1.19-5.33 1.19-2.76 0-4.88-.82-6.37-2.45-1.49-1.63-2.23-3.97-2.23-7.02 0-3.02.7-5.4 2.09-7.13s3.3-2.59 5.72-2.59c2.14 0 3.82.67 5.06 2 1.24 1.33 1.85 3.15 1.85 5.45 0 .86-.07 1.69-.22 2.48h-12.38c.02 5.02 2.24 7.52 6.66 7.52 1.78 0 3.49-.38 5.15-1.15v1.7zm-6.15-16.31c-1.63 0-2.96.6-4 1.8-1.03 1.2-1.58 2.81-1.66 4.82h10.51c.05-.38.07-.72.07-1.01 0-1.78-.43-3.16-1.3-4.14-.85-.98-2.06-1.47-3.62-1.47zm10.37 14.58c1.8.79 3.66 1.19 5.58 1.19 3.24 0 4.86-1.26 4.86-3.78 0-.82-.23-1.48-.7-1.98s-1.24-.92-2.32-1.26l-2.74-.86c-1.54-.48-2.65-1.09-3.35-1.82-.7-.73-1.04-1.66-1.04-2.79 0-1.51.59-2.72 1.78-3.62 1.19-.9 2.79-1.35 4.81-1.35 1.7 0 3.32.32 4.86.97v1.69c-1.61-.62-3.19-.94-4.75-.94-1.42 0-2.53.28-3.33.85-.8.56-1.21 1.34-1.21 2.32 0 .7.22 1.25.67 1.67.44.42 1.24.82 2.39 1.21l2.84.94c1.46.48 2.54 1.12 3.22 1.91.68.79 1.03 1.8 1.03 3.02 0 1.78-.6 3.14-1.8 4.1-1.2.96-2.89 1.44-5.08 1.44-2.02 0-3.83-.37-5.44-1.12l-.28-1.79zm-282.6 52.45l-.14-1.26c-2.06 1.15-4.1 1.73-6.12 1.73-1.85 0-3.31-.49-4.39-1.46s-1.62-2.31-1.62-4.01c0-1.8.61-3.17 1.82-4.12 1.21-.95 2.99-1.42 5.35-1.42 1.42 0 3.02.17 4.82.5v-2.45c0-3-1.69-4.5-5.08-4.5-.89 0-1.86.12-2.92.36-1.06.24-2.03.55-2.92.94v-1.69c.86-.41 1.85-.73 2.97-.97s2.18-.36 3.19-.36c2.25 0 3.97.54 5.13 1.6 1.16 1.07 1.75 2.61 1.75 4.63v12.31l-1.84.17zm-5.76-1.26c.86 0 1.78-.13 2.74-.4.96-.26 1.87-.62 2.74-1.08v-5.76c-1.51-.29-3-.43-4.46-.43-1.85 0-3.19.31-4.03.94-.84.62-1.26 1.61-1.26 2.95-.01 2.52 1.42 3.78 4.27 3.78zm11.99-1.19c1.8.79 3.66 1.19 5.58 1.19 3.24 0 4.86-1.26 4.86-3.78 0-.82-.23-1.48-.7-1.98s-1.24-.92-2.32-1.26l-2.74-.86c-1.54-.48-2.65-1.08-3.35-1.82-.7-.73-1.04-1.66-1.04-2.79 0-1.51.59-2.72 1.78-3.62 1.19-.9 2.79-1.35 4.81-1.35 1.7 0 3.32.32 4.86.97v1.69c-1.61-.62-3.19-.94-4.75-.94-1.42 0-2.53.28-3.33.85-.8.56-1.21 1.34-1.21 2.32 0 .7.22 1.25.67 1.67.44.42 1.24.82 2.39 1.21l2.84.94c1.46.48 2.54 1.12 3.22 1.91.68.79 1.03 1.8 1.03 3.02 0 1.78-.6 3.14-1.8 4.1-1.2.96-2.89 1.44-5.08 1.44-2.02 0-3.83-.37-5.44-1.12l-.28-1.79zm28.91-14.08v11.52c0 1.25.26 2.17.79 2.75.53.59 1.34.88 2.45.88.72 0 1.54-.13 2.45-.4v1.58c-1.01.34-1.93.5-2.77.5-1.66 0-2.92-.45-3.78-1.35-.86-.9-1.3-2.24-1.3-4.01V242.8h-2.74v-1.55l2.81-.11.22-4.54 1.87-.22v4.75h5.44v1.66h-5.44zm9.43 16.46v-27.04l2.16-.29v10.33c2.02-1.1 4-1.66 5.94-1.66s3.45.5 4.52 1.51c1.07 1.01 1.6 2.44 1.6 4.28v12.85h-2.16v-12.49c0-2.95-1.5-4.43-4.5-4.43-.79 0-1.66.13-2.61.4-.95.26-1.88.62-2.79 1.08v15.44h-2.16zm32.76-.65c-1.66.79-3.43 1.19-5.33 1.19-2.76 0-4.88-.82-6.37-2.45-1.49-1.63-2.23-3.97-2.23-7.02 0-3.02.7-5.4 2.09-7.13 1.39-1.73 3.3-2.59 5.72-2.59 2.14 0 3.82.67 5.06 2 1.24 1.33 1.85 3.15 1.85 5.45 0 .86-.07 1.69-.22 2.48h-12.38c.02 5.02 2.24 7.52 6.66 7.52 1.78 0 3.49-.38 5.15-1.15v1.7zm-6.16-16.31c-1.63 0-2.96.6-4 1.8-1.03 1.2-1.58 2.81-1.66 4.82h10.51c.05-.38.07-.72.07-1.01 0-1.78-.43-3.16-1.3-4.14-.85-.98-2.06-1.47-3.62-1.47zm9.29 23.18c1.7-.31 3.04-.91 4-1.8s1.85-2.3 2.66-4.25l-6.91-18.29h2.27l5.65 15.88 5.83-15.88h2.16l-6.91 17.93c-.65 1.73-1.33 3.14-2.03 4.23s-1.54 1.96-2.5 2.59-2.21 1.12-3.74 1.46l-.48-1.87zm40.71-6.87c-1.66.79-3.43 1.19-5.33 1.19-2.76 0-4.88-.82-6.37-2.45-1.49-1.63-2.23-3.97-2.23-7.02 0-3.02.7-5.4 2.09-7.13 1.39-1.73 3.3-2.59 5.72-2.59 2.14 0 3.82.67 5.06 2 1.24 1.33 1.85 3.15 1.85 5.45 0 .86-.07 1.69-.22 2.48h-12.38c.02 5.02 2.24 7.52 6.66 7.52 1.78 0 3.49-.38 5.15-1.15v1.7zm-6.15-16.31c-1.63 0-2.96.6-4 1.8-1.03 1.2-1.58 2.81-1.66 4.82h10.51c.05-.38.07-.72.07-1.01 0-1.78-.43-3.16-1.3-4.14-.85-.98-2.06-1.47-3.62-1.47zm33.44 16.96v-12.85c0-2.71-1.28-4.07-3.85-4.07-1.49 0-3.19.54-5.11 1.62.19.65.29 1.34.29 2.09v13.21h-2.16v-12.85c0-2.71-1.28-4.07-3.85-4.07-1.44 0-3.05.49-4.82 1.48v15.44h-2.16v-18l1.84-.18.14 1.26c2.04-1.15 3.89-1.73 5.54-1.73 2.11 0 3.64.7 4.57 2.09 2.33-1.39 4.42-2.09 6.26-2.09 1.75 0 3.1.47 4.05 1.4.95.94 1.42 2.28 1.42 4.03v13.21h-2.16zm10.12-17.03c.91-.5 1.84-.9 2.79-1.19s1.83-.43 2.65-.43c2.35 0 4.2.82 5.54 2.47 1.34 1.64 2.02 3.92 2.02 6.82 0 3.19-.76 5.64-2.29 7.34s-3.73 2.56-6.61 2.56c-2.04 0-4.13-.34-6.26-1.01v-26.57l2.16-.29v10.3zm5.15.11c-.79 0-1.64.13-2.56.4-.91.26-1.78.62-2.59 1.08v13.68c1.25.38 2.56.58 3.92.58 2.3 0 4.01-.67 5.13-2s1.67-3.38 1.67-6.14c0-2.47-.47-4.36-1.42-5.65-.94-1.31-2.33-1.95-4.15-1.95zm12.7 16.92v-18l1.84-.18.18 1.62c1.61-1.32 3.32-1.98 5.15-1.98.65 0 1.16.07 1.55.22v1.76c-.62-.14-1.18-.22-1.66-.22-1.7 0-3.34.61-4.9 1.84v14.94h-2.16zm23.12.07l-.14-1.26c-2.06 1.15-4.1 1.73-6.12 1.73-1.85 0-3.31-.49-4.39-1.46s-1.62-2.31-1.62-4.01c0-1.8.61-3.17 1.82-4.12 1.21-.95 2.99-1.42 5.35-1.42 1.42 0 3.02.17 4.82.5v-2.45c0-3-1.69-4.5-5.08-4.5-.89 0-1.86.12-2.92.36-1.06.24-2.03.55-2.92.94v-1.69c.86-.41 1.85-.73 2.97-.97s2.18-.36 3.19-.36c2.25 0 3.97.54 5.13 1.6 1.16 1.07 1.75 2.61 1.75 4.63v12.31l-1.84.17zm-5.76-1.26c.86 0 1.78-.13 2.74-.4.96-.26 1.87-.62 2.74-1.08v-5.76c-1.51-.29-3-.43-4.46-.43-1.85 0-3.19.31-4.03.94-.84.62-1.26 1.61-1.26 2.95-.02 2.52 1.41 3.78 4.27 3.78zm25.34.54c-1.58.79-3.31 1.19-5.18 1.19-2.54 0-4.51-.83-5.89-2.48-1.38-1.66-2.07-4.02-2.07-7.09 0-3.07.69-5.44 2.07-7.11s3.34-2.5 5.89-2.5c1.8 0 3.5.4 5.11 1.19v1.69c-1.68-.74-3.31-1.12-4.9-1.12-1.94 0-3.41.66-4.41 1.98-1 1.32-1.49 3.28-1.49 5.87 0 2.57.5 4.51 1.49 5.83 1 1.32 2.47 1.98 4.41 1.98 1.63 0 3.29-.37 4.97-1.12v1.69zm17.03 0c-1.66.79-3.43 1.19-5.33 1.19-2.76 0-4.88-.82-6.37-2.45-1.49-1.63-2.23-3.97-2.23-7.02 0-3.02.7-5.4 2.09-7.13 1.39-1.73 3.3-2.59 5.72-2.59 2.14 0 3.82.67 5.06 2 1.24 1.33 1.85 3.15 1.85 5.45 0 .86-.07 1.69-.22 2.48h-12.38c.02 5.02 2.24 7.52 6.66 7.52 1.78 0 3.49-.38 5.15-1.15v1.7zm-6.16-16.31c-1.63 0-2.96.6-4 1.8-1.03 1.2-1.58 2.81-1.66 4.82h10.51c.05-.38.07-.72.07-1.01 0-1.78-.43-3.16-1.3-4.14-.85-.98-2.06-1.47-3.62-1.47zm32.83 16.96v-12.49c0-2.95-1.5-4.43-4.5-4.43-.79 0-1.66.13-2.61.4-.95.26-1.88.62-2.79 1.08v15.44h-2.16v-18l1.84-.18.14 1.26c2.09-1.15 4.13-1.73 6.12-1.73 1.94 0 3.45.5 4.52 1.51 1.07 1.01 1.6 2.44 1.6 4.28v12.85h-2.16zm20.7-.65c-1.66.79-3.43 1.19-5.33 1.19-2.76 0-4.88-.82-6.37-2.45-1.49-1.63-2.23-3.97-2.23-7.02 0-3.02.7-5.4 2.09-7.13 1.39-1.73 3.3-2.59 5.72-2.59 2.14 0 3.82.67 5.06 2 1.24 1.33 1.85 3.15 1.85 5.45 0 .86-.07 1.69-.22 2.48h-12.38c.02 5.02 2.24 7.52 6.66 7.52 1.78 0 3.49-.38 5.15-1.15v1.7zm-6.15-16.31c-1.63 0-2.96.6-4 1.8-1.03 1.2-1.58 2.81-1.66 4.82h10.51c.05-.38.07-.72.07-1.01 0-1.78-.43-3.16-1.3-4.14-.85-.98-2.06-1.47-3.62-1.47zm26.53 16.96l-4.86-15.7-4.72 15.7h-2.05l-5.76-18.11h2.2l4.61 15.44 4.54-15.44h2.41l4.61 15.55 4.57-15.55h2.09l-5.58 18.11h-2.06zm-315 58.02v-26.03l1.84-.18.14 1.26c2.04-1.15 3.91-1.73 5.62-1.73 2.35 0 4.2.82 5.54 2.47 1.34 1.64 2.02 3.92 2.02 6.82 0 3.19-.76 5.64-2.29 7.34s-3.73 2.56-6.61 2.56c-1.49 0-2.86-.19-4.1-.58V317l-2.16.29zm7.31-24.94c-.79 0-1.64.13-2.56.4-.91.26-1.78.62-2.59 1.08v13.68c1.25.38 2.56.58 3.92.58 2.3 0 4.01-.67 5.13-2s1.67-3.38 1.67-6.14c0-2.47-.47-4.36-1.42-5.65-.94-1.31-2.33-1.95-4.15-1.95zm19.44 17.46c-2.62 0-4.59-.81-5.92-2.43s-2-4.01-2-7.18c0-3.14.67-5.53 2-7.15s3.31-2.43 5.92-2.43 4.59.81 5.92 2.43 2 4 2 7.15c0 3.17-.67 5.56-2 7.18s-3.3 2.43-5.92 2.43zm0-1.73c1.97 0 3.4-.63 4.3-1.89.9-1.26 1.35-3.26 1.35-5.99 0-2.71-.45-4.7-1.35-5.96-.9-1.26-2.33-1.89-4.3-1.89s-3.4.63-4.3 1.89c-.9 1.26-1.35 3.25-1.35 5.96 0 2.74.45 4.73 1.35 5.99.9 1.26 2.33 1.89 4.3 1.89zm11.38-1.19c1.8.79 3.66 1.19 5.58 1.19 3.24 0 4.86-1.26 4.86-3.78 0-.82-.23-1.48-.7-1.98s-1.24-.92-2.32-1.26l-2.74-.86c-1.54-.48-2.65-1.08-3.35-1.82-.7-.73-1.04-1.66-1.04-2.79 0-1.51.59-2.72 1.78-3.62 1.19-.9 2.79-1.35 4.81-1.35 1.7 0 3.32.32 4.86.97v1.69c-1.61-.62-3.19-.94-4.75-.94-1.42 0-2.53.28-3.33.85-.8.56-1.21 1.34-1.21 2.32 0 .7.22 1.25.67 1.67.44.42 1.24.82 2.39 1.21l2.84.94c1.46.48 2.54 1.12 3.22 1.91.68.79 1.03 1.8 1.03 3.02 0 1.78-.6 3.14-1.8 4.1-1.2.96-2.89 1.44-5.08 1.44-2.02 0-3.83-.37-5.44-1.12l-.28-1.79zm15.84 0c1.8.79 3.66 1.19 5.58 1.19 3.24 0 4.86-1.26 4.86-3.78 0-.82-.23-1.48-.7-1.98s-1.24-.92-2.32-1.26l-2.74-.86c-1.54-.48-2.65-1.08-3.35-1.82-.7-.73-1.04-1.66-1.04-2.79 0-1.51.59-2.72 1.78-3.62 1.19-.9 2.79-1.35 4.81-1.35 1.7 0 3.32.32 4.86.97v1.69c-1.61-.62-3.19-.94-4.75-.94-1.42 0-2.53.28-3.33.85-.8.56-1.21 1.34-1.21 2.32 0 .7.22 1.25.67 1.67.44.42 1.24.82 2.39 1.21l2.84.94c1.46.48 2.54 1.12 3.22 1.91.68.79 1.03 1.8 1.03 3.02 0 1.78-.6 3.14-1.8 4.1-1.2.96-2.89 1.44-5.08 1.44-2.02 0-3.83-.37-5.44-1.12l-.28-1.79zm18.32-20.12c-.48 0-.87-.14-1.17-.43s-.45-.68-.45-1.19.15-.9.45-1.19.69-.43 1.17-.43.87.14 1.17.43c.3.29.45.68.45 1.19s-.15.9-.45 1.19c-.3.28-.69.43-1.17.43zm-1.08 22.5v-17.93l2.16-.29v18.22h-2.16zm10.37-17.03c.91-.5 1.84-.9 2.79-1.19s1.83-.43 2.65-.43c2.35 0 4.2.82 5.54 2.47 1.34 1.64 2.02 3.92 2.02 6.82 0 3.19-.76 5.64-2.29 7.34s-3.73 2.56-6.61 2.56c-2.04 0-4.13-.34-6.26-1.01v-26.57l2.16-.29v10.3zm5.15.11c-.79 0-1.64.13-2.56.4-.91.26-1.78.62-2.59 1.08v13.68c1.25.38 2.56.58 3.92.58 2.3 0 4.01-.67 5.13-2s1.67-3.38 1.67-6.14c0-2.47-.47-4.36-1.42-5.65-.94-1.31-2.33-1.95-4.15-1.95zm13.78-5.58c-.48 0-.87-.14-1.17-.43s-.45-.68-.45-1.19.15-.9.45-1.19.69-.43 1.17-.43.87.14 1.17.43c.3.29.45.68.45 1.19s-.15.9-.45 1.19c-.3.28-.69.43-1.17.43zm-1.08 22.5v-17.93l2.16-.29v18.22h-2.16zm8.21 0v-27.04l2.16-.29v27.32h-2.16zm9.29-22.5c-.48 0-.87-.14-1.17-.43s-.45-.68-.45-1.19.15-.9.45-1.19.69-.43 1.17-.43.87.14 1.17.43c.3.29.45.68.45 1.19s-.15.9-.45 1.19c-.3.28-.69.43-1.17.43zm-1.08 22.5v-17.93l2.16-.29v18.22h-2.16zm10.87-16.46v11.52c0 1.25.26 2.17.79 2.75.53.59 1.34.88 2.45.88.72 0 1.54-.13 2.45-.4v1.58c-1.01.34-1.93.5-2.77.5-1.66 0-2.92-.45-3.78-1.35-.86-.9-1.3-2.24-1.3-4.01V292.8h-2.74v-1.55l2.81-.11.22-4.54 1.87-.22v4.75h5.44v1.66h-5.44zm10.51-6.04c-.48 0-.87-.14-1.17-.43s-.45-.68-.45-1.19.15-.9.45-1.19.69-.43 1.17-.43.87.14 1.17.43c.3.29.45.68.45 1.19s-.15.9-.45 1.19c-.3.28-.69.43-1.17.43zm-1.08 22.5v-17.93l2.16-.29v18.22h-2.16zm20.96-.65c-1.66.79-3.43 1.19-5.33 1.19-2.76 0-4.88-.82-6.37-2.45-1.49-1.63-2.23-3.97-2.23-7.02 0-3.02.7-5.4 2.09-7.13 1.39-1.73 3.3-2.59 5.72-2.59 2.14 0 3.82.67 5.06 2 1.24 1.33 1.85 3.15 1.85 5.45 0 .86-.07 1.69-.22 2.48h-12.38c.02 5.02 2.24 7.52 6.66 7.52 1.78 0 3.49-.38 5.15-1.15v1.7zm-6.16-16.31c-1.63 0-2.96.6-4 1.8-1.03 1.2-1.58 2.81-1.66 4.82h10.51c.05-.38.07-.72.07-1.01 0-1.78-.43-3.16-1.3-4.14-.85-.98-2.06-1.47-3.62-1.47zm10.37 14.58c1.8.79 3.66 1.19 5.58 1.19 3.24 0 4.86-1.26 4.86-3.78 0-.82-.23-1.48-.7-1.98s-1.24-.92-2.32-1.26l-2.74-.86c-1.54-.48-2.65-1.08-3.35-1.82-.7-.73-1.04-1.66-1.04-2.79 0-1.51.59-2.72 1.78-3.62 1.19-.9 2.79-1.35 4.81-1.35 1.7 0 3.32.32 4.86.97v1.69c-1.61-.62-3.19-.94-4.75-.94-1.42 0-2.53.28-3.33.85-.8.56-1.21 1.34-1.21 2.32 0 .7.22 1.25.67 1.67.44.42 1.24.82 2.39 1.21l2.84.94c1.46.48 2.54 1.12 3.22 1.91.68.79 1.03 1.8 1.03 3.02 0 1.78-.6 3.14-1.8 4.1-1.2.96-2.89 1.44-5.08 1.44-2.02 0-3.83-.37-5.44-1.12l-.28-1.79zm17.93 2.56c-.48 0-.88-.15-1.19-.45-.31-.3-.47-.7-.47-1.21 0-.5.16-.91.47-1.21.31-.3.71-.45 1.19-.45s.88.15 1.19.45c.31.3.47.7.47 1.21 0 .5-.16.91-.47 1.21-.32.3-.72.45-1.19.45zm-174.21 75.16h1.8l-1.37 7.6h6.34l1.37-7.6h1.8l-1.37 7.6h4.68v1.58h-4.97l-1.15 6.3h5.4v1.58h-5.69l-1.37 7.6h-1.8l1.37-7.6h-6.34l-1.37 7.6h-1.8l1.37-7.6h-4.68v-1.58h4.97l1.15-6.3H161v-1.58h5.69l1.37-7.6zm-1 15.48h6.34l1.15-6.3h-6.34l-1.15 6.3zm18.1 9.18v-24.66c2.52-.5 4.78-.76 6.77-.76 3.7 0 6.58 1.12 8.66 3.35s3.11 5.35 3.11 9.36c0 4.08-1.05 7.22-3.15 9.41-2.1 2.2-5.09 3.29-8.98 3.29h-6.41zm6.41-1.84c3.22 0 5.65-.92 7.29-2.75s2.47-4.54 2.47-8.12c0-3.6-.8-6.31-2.41-8.14-1.61-1.82-4.01-2.74-7.2-2.74-1.15 0-2.58.13-4.28.4v21.35h4.13zm18.47-20.66c-.48 0-.87-.14-1.17-.43s-.45-.68-.45-1.19.15-.9.45-1.19.69-.43 1.17-.43.87.14 1.17.43c.3.29.45.68.45 1.19s-.15.9-.45 1.19c-.3.28-.69.43-1.17.43zm-1.08 22.5v-17.93l2.16-.29v18.22h-2.16zm14.11 8.38c-2.14 0-3.95-.37-5.44-1.12l-.29-1.84c1.97.82 3.84 1.22 5.62 1.22 4.01 0 6.01-1.86 6.01-5.58v-2.48c-.91.5-1.84.9-2.79 1.19s-1.83.43-2.65.43c-2.35 0-4.2-.79-5.54-2.38-1.34-1.58-2.02-3.78-2.02-6.59 0-3.19.76-5.64 2.29-7.34 1.52-1.7 3.73-2.56 6.61-2.56 2.18 0 4.27.38 6.26 1.15v18.4c0 2.4-.7 4.25-2.09 5.54-1.39 1.32-3.38 1.96-5.97 1.96zm.76-9.9c.79 0 1.64-.13 2.56-.4.91-.26 1.78-.62 2.59-1.08v-13.36c-1.25-.38-2.56-.58-3.92-.58-2.3 0-4.01.67-5.13 2s-1.67 3.38-1.67 6.14c0 2.38.47 4.18 1.42 5.42.94 1.25 2.32 1.86 4.15 1.86zm14.43-20.98c-.48 0-.87-.14-1.17-.43s-.45-.68-.45-1.19.15-.9.45-1.19.69-.43 1.17-.43.87.14 1.17.43c.3.29.45.68.45 1.19s-.15.9-.45 1.19c-.3.28-.69.43-1.17.43zm-1.08 22.5v-17.93l2.16-.29v18.22h-2.16zm10.88-16.46v11.52c0 1.25.26 2.17.79 2.75.53.59 1.34.88 2.45.88.72 0 1.54-.13 2.45-.4v1.58c-1.01.34-1.93.5-2.77.5-1.66 0-2.92-.45-3.78-1.35-.86-.9-1.3-2.24-1.3-4.01V392.8h-2.74v-1.55l2.81-.11.22-4.54 1.87-.22v4.75h5.44v1.66h-5.44zm20.51 16.53l-.14-1.26c-2.06 1.15-4.1 1.73-6.12 1.73-1.85 0-3.31-.49-4.39-1.46s-1.62-2.31-1.62-4.01c0-1.8.61-3.17 1.82-4.12 1.21-.95 2.99-1.42 5.35-1.42 1.42 0 3.02.17 4.82.5v-2.45c0-3-1.69-4.5-5.08-4.5-.89 0-1.86.12-2.92.36-1.06.24-2.03.55-2.92.94v-1.69c.86-.41 1.85-.73 2.97-.97s2.18-.36 3.19-.36c2.25 0 3.97.54 5.13 1.6 1.16 1.07 1.75 2.61 1.75 4.63v12.31l-1.84.17zm-5.76-1.26c.86 0 1.78-.13 2.74-.4.96-.26 1.87-.62 2.74-1.08v-5.76c-1.51-.29-3-.43-4.46-.43-1.85 0-3.19.31-4.03.94-.84.62-1.26 1.61-1.26 2.95-.01 2.52 1.42 3.78 4.27 3.78zm13.4 1.19v-27.04l2.16-.29v27.32h-2.16zm8.74 0v-25.2h14.51v1.84h-12.24v10.22h10.69v1.84h-10.69v11.3h-2.27zm24.41.54c-2.62 0-4.59-.81-5.92-2.43s-2-4.01-2-7.18c0-3.14.67-5.53 2-7.15s3.31-2.43 5.92-2.43 4.59.81 5.92 2.43 2 4 2 7.15c0 3.17-.67 5.56-2 7.18s-3.3 2.43-5.92 2.43zm0-1.73c1.97 0 3.4-.63 4.3-1.89.9-1.26 1.35-3.26 1.35-5.99 0-2.71-.45-4.7-1.35-5.96-.9-1.26-2.33-1.89-4.3-1.89s-3.4.63-4.3 1.89c-.9 1.26-1.35 3.25-1.35 5.96 0 2.74.45 4.73 1.35 5.99.9 1.26 2.33 1.89 4.3 1.89zm12.78 1.19v-18l1.84-.18.18 1.62c1.61-1.32 3.32-1.98 5.15-1.98.65 0 1.16.07 1.55.22v1.76c-.62-.14-1.18-.22-1.66-.22-1.7 0-3.34.61-4.9 1.84v14.94h-2.16zm30.03-1.01c-2.14 1.03-4.46 1.55-6.98 1.55-3.6 0-6.41-1.16-8.42-3.47-2.02-2.32-3.02-5.54-3.02-9.67 0-4.1 1-7.32 3.01-9.65 2-2.33 4.76-3.49 8.26-3.49 2.38 0 4.6.52 6.66 1.55v1.84c-2.11-1.03-4.27-1.55-6.48-1.55-2.93 0-5.17.97-6.73 2.92-1.56 1.94-2.34 4.74-2.34 8.39 0 3.67.79 6.47 2.36 8.41 1.57 1.93 3.87 2.9 6.89 2.9 1.61 0 3.18-.25 4.72-.76v-9.14h-3.28l.25-1.84h5.11v12.01zm12.02 1.55c-2.62 0-4.59-.81-5.92-2.43s-2-4.01-2-7.18c0-3.14.67-5.53 2-7.15s3.31-2.43 5.92-2.43 4.59.81 5.92 2.43 2 4 2 7.15c0 3.17-.67 5.56-2 7.18s-3.3 2.43-5.92 2.43zm0-1.73c1.97 0 3.4-.63 4.3-1.89.9-1.26 1.35-3.26 1.35-5.99 0-2.71-.45-4.7-1.35-5.96-.9-1.26-2.33-1.89-4.3-1.89s-3.4.63-4.3 1.89c-.9 1.26-1.35 3.25-1.35 5.96 0 2.74.45 4.73 1.35 5.99.9 1.26 2.33 1.89 4.3 1.89zm19.51 1.73c-2.62 0-4.59-.81-5.92-2.43s-2-4.01-2-7.18c0-3.14.67-5.53 2-7.15s3.31-2.43 5.92-2.43 4.59.81 5.92 2.43 2 4 2 7.15c0 3.17-.67 5.56-2 7.18s-3.3 2.43-5.92 2.43zm0-1.73c1.97 0 3.4-.63 4.3-1.89.9-1.26 1.35-3.26 1.35-5.99 0-2.71-.45-4.7-1.35-5.96-.9-1.26-2.33-1.89-4.3-1.89s-3.4.63-4.3 1.89c-.9 1.26-1.35 3.25-1.35 5.96 0 2.74.45 4.73 1.35 5.99.9 1.26 2.33 1.89 4.3 1.89zm26.75-26.14v27.22l-1.84.18-.14-1.26c-2.04 1.15-3.91 1.73-5.62 1.73-2.35 0-4.2-.82-5.54-2.47-1.34-1.64-2.02-3.92-2.02-6.82 0-3.19.76-5.64 2.29-7.34 1.52-1.7 3.73-2.56 6.61-2.56 1.49 0 2.86.19 4.1.58v-8.96l2.16-.3zm-7.31 26.14c.79 0 1.64-.13 2.56-.4.91-.26 1.78-.62 2.59-1.08v-13.68c-1.25-.38-2.56-.58-3.92-.58-2.3 0-4.01.67-5.13 2s-1.67 3.38-1.67 6.14c0 2.47.47 4.36 1.42 5.65.94 1.3 2.33 1.95 4.15 1.95z" fill="#fff"/></svg>