<svg id="Layer_1" xmlns="http://www.w3.org/2000/svg" viewBox="0 0 600 600"><style>.st3{fill:#fff}.st4{font-family:&apos;Optimist-Light&apos;}.st5{font-size:28px}</style><path fill="#013d5b" d="M0 0h600v600H0z"/><path class="st3" d="M359.66 149.41c-1.27 0-2.42-.32-3.43-.95a6.614 6.614 0 0 1-2.36-2.51 6.989 6.989 0 0 1-.84-3.37c0-1.3.31-2.48.93-3.53a6.513 6.513 0 0 1 2.43-2.43c1-.57 2.09-.86 3.27-.86 1.27 0 2.42.32 3.43.95 1.02.63 1.8 1.47 2.36 2.51s.84 2.16.84 3.37c0 1.3-.31 2.48-.93 3.53a6.513 6.513 0 0 1-2.43 2.43c-1 .58-2.09.86-3.27.86zm0-1.04c1.07 0 2.01-.26 2.85-.79.84-.52 1.48-1.22 1.94-2.09.45-.87.68-1.84.68-2.91 0-1.13-.25-2.14-.75-3.03-.5-.89-1.16-1.57-2-2.05-.83-.48-1.74-.71-2.72-.71-1.06 0-2.01.26-2.85.79-.84.52-1.48 1.22-1.94 2.09-.45.87-.68 1.84-.68 2.91 0 1.13.25 2.14.75 3.03.5.89 1.16 1.57 2 2.05.83.47 1.74.71 2.72.71zm1.74-2.17l-1.8-2.98h-1.21v2.98h-.98v-7.28c.81-.14 1.52-.2 2.14-.2.83 0 1.48.2 1.95.61.48.41.71.96.71 1.65 0 1.07-.54 1.77-1.62 2.11l1.94 3.12h-1.13zm-3.01-3.77h1.02c.56 0 1-.13 1.32-.39.32-.25.48-.61.48-1.07 0-.46-.15-.81-.45-1.06-.3-.25-.73-.37-1.29-.37-.33 0-.69.03-1.07.09l-.01 2.8zm-235.4 29.83c-2.84 1.46-5.83 2.19-8.94 2.19-4.4 0-7.85-1.64-10.33-4.92s-3.72-7.84-3.72-13.68 1.25-10.4 3.72-13.68c2.48-3.28 5.93-4.92 10.33-4.92 3.01 0 5.94.73 8.79 2.19v2.6c-1.52-.75-2.94-1.29-4.27-1.63-1.32-.34-2.7-.51-4.12-.51-3.67 0-6.44 1.35-8.31 4.05-1.87 2.7-2.8 6.67-2.8 11.9s.93 9.2 2.8 11.9c1.87 2.7 4.64 4.05 8.31 4.05 2.81 0 5.66-.71 8.54-2.14v2.6zm22.84 1.53l-.2-1.79c-2.84 1.63-5.66 2.44-8.44 2.44-2.55 0-4.57-.69-6.06-2.07-1.49-1.38-2.23-3.27-2.23-5.68 0-2.55.84-4.49 2.51-5.84 1.67-1.34 4.13-2.02 7.37-2.02 1.95 0 4.17.24 6.66.71v-3.47c0-4.25-2.34-6.37-7-6.37-1.23 0-2.57.17-4.03.51-1.46.34-2.8.78-4.03 1.33v-2.39c1.19-.57 2.56-1.03 4.1-1.38 1.54-.34 3.01-.51 4.39-.51 3.11 0 5.47.75 7.08 2.27 1.61 1.51 2.41 3.7 2.41 6.55v17.43l-2.53.28zm-7.95-1.78c1.19 0 2.45-.19 3.77-.56 1.32-.38 2.58-.89 3.77-1.52v-8.16c-2.08-.41-4.14-.61-6.16-.61-2.55 0-4.4.44-5.56 1.33-1.16.89-1.74 2.28-1.74 4.18.01 3.56 1.99 5.34 5.92 5.34zm19.22 13.05v-36.85l2.53-.25.2 1.79c2.81-1.63 5.39-2.45 7.75-2.45 3.25 0 5.79 1.16 7.64 3.49 1.85 2.33 2.78 5.55 2.78 9.66 0 4.52-1.05 7.99-3.16 10.4-2.11 2.41-5.14 3.62-9.11 3.62-2.05 0-3.94-.27-5.67-.81v11.01l-2.96.39zm10.08-35.33c-1.09 0-2.26.19-3.53.56-1.26.38-2.45.89-3.57 1.53v19.36c1.72.54 3.53.81 5.41.81 3.18 0 5.53-.94 7.08-2.83s2.31-4.78 2.31-8.69c0-3.5-.66-6.17-1.96-8-1.32-1.82-3.23-2.74-5.74-2.74zm19.76-7.89c-.66 0-1.2-.2-1.62-.61-.42-.41-.62-.97-.62-1.68s.2-1.27.62-1.68c.42-.41.95-.61 1.62-.61s1.2.2 1.62.61c.42.41.62.97.62 1.68s-.2 1.27-.62 1.68c-.42.4-.96.61-1.62.61zm-1.49 31.85v-25.38l2.98-.41v25.79h-2.98zm15.74-23.29v16.31c0 1.77.36 3.07 1.09 3.9.73.84 1.85 1.25 3.38 1.25.99 0 2.12-.19 3.38-.56v2.25c-1.39.48-2.66.71-3.82.71-2.29 0-4.03-.64-5.21-1.91-1.19-1.27-1.79-3.16-1.79-5.68V150.4h-3.77v-2.19l3.87-.16.3-6.42 2.58-.3v6.73h7.49v2.34h-7.5zm29.05 23.39l-.2-1.79c-2.84 1.63-5.66 2.44-8.44 2.44-2.55 0-4.57-.69-6.06-2.07-1.49-1.38-2.23-3.27-2.23-5.68 0-2.55.84-4.49 2.51-5.84 1.67-1.34 4.13-2.02 7.37-2.02 1.95 0 4.17.24 6.66.71v-3.47c0-4.25-2.34-6.37-7-6.37-1.23 0-2.57.17-4.03.51-1.46.34-2.8.78-4.03 1.33v-2.39c1.19-.57 2.56-1.03 4.1-1.38 1.54-.34 3.01-.51 4.39-.51 3.11 0 5.47.75 7.08 2.27 1.61 1.51 2.41 3.7 2.41 6.55v17.43l-2.53.28zm-7.94-1.78c1.19 0 2.45-.19 3.77-.56 1.32-.38 2.58-.89 3.77-1.52v-8.16c-2.08-.41-4.14-.61-6.16-.61-2.55 0-4.4.44-5.56 1.33-1.16.89-1.74 2.28-1.74 4.18 0 3.56 1.97 5.34 5.92 5.34zm19.21 1.68v-38.28l2.98-.41v38.69h-2.98zm38.33.76c-4.57 0-8.08-1.62-10.53-4.85-2.45-3.23-3.67-7.81-3.67-13.77 0-5.95 1.23-10.53 3.67-13.77 2.45-3.23 5.96-4.85 10.53-4.85 4.57 0 8.08 1.62 10.53 4.85 2.45 3.23 3.67 7.81 3.67 13.77 0 5.95-1.23 10.53-3.67 13.77-2.45 3.24-5.96 4.85-10.53 4.85zm0-2.6c7.28 0 10.92-5.34 10.92-16s-3.64-16-10.92-16-10.92 5.34-10.92 16 3.64 16 10.92 16zm38.83 1.84V156c0-4.18-2.07-6.27-6.21-6.27-1.09 0-2.3.19-3.6.56-1.31.38-2.59.89-3.85 1.53v21.87h-2.98v-25.48l2.53-.25.2 1.79c2.88-1.63 5.69-2.45 8.44-2.45 2.68 0 4.76.71 6.23 2.14 1.48 1.43 2.21 3.45 2.21 6.07v18.19l-2.97-.01zm29.29-.92c-2.29 1.12-4.73 1.68-7.35 1.68-3.8 0-6.74-1.16-8.79-3.47-2.05-2.31-3.07-5.62-3.07-9.94 0-4.28.96-7.64 2.88-10.09 1.92-2.44 4.55-3.67 7.9-3.67 2.94 0 5.27.94 6.98 2.83 1.71 1.89 2.56 4.46 2.56 7.72 0 1.22-.1 2.39-.3 3.52h-17.08c.03 7.1 3.09 10.65 9.18 10.65 2.45 0 4.81-.54 7.1-1.63l-.01 2.4zm-8.48-23.09c-2.25 0-4.09.85-5.51 2.55-1.43 1.7-2.19 3.98-2.29 6.83h14.49c.07-.54.1-1.02.1-1.43 0-2.52-.6-4.47-1.79-5.86-1.18-1.39-2.86-2.09-5-2.09zm-236.3 102.75v-49.46c5.16-1.06 9.87-1.59 14.13-1.59 7.55 0 13.37 2.23 17.48 6.68 4.1 4.45 6.16 10.72 6.16 18.81 0 8.28-2.07 14.61-6.19 18.99-4.12 4.39-10.08 6.58-17.86 6.58l-13.72-.01zm13.72-5.78c5.63 0 9.84-1.62 12.63-4.87 2.79-3.25 4.18-8.17 4.18-14.77 0-6.74-1.36-11.73-4.08-14.99-2.72-3.25-6.87-4.87-12.45-4.87-2.25 0-4.64.21-7.17.65v38.84h6.89zm42.34 5.78v-50.54h6.82v50.54h-6.82zm62.4-2.09c-4.31 2.12-9.1 3.18-14.35 3.18-7.27 0-12.9-2.31-16.91-6.93-4.01-4.62-6.02-11.09-6.02-19.42 0-5.53.93-10.29 2.78-14.27 1.85-3.97 4.48-6.98 7.88-9.03 3.4-2.04 7.42-3.07 12.06-3.07 4.88 0 9.43 1.06 13.65 3.18v5.71c-4.27-2.07-8.58-3.11-12.95-3.11-5.3 0-9.32 1.75-12.06 5.23-2.75 3.49-4.12 8.61-4.12 15.35 0 6.79 1.38 11.91 4.15 15.38 2.76 3.47 6.85 5.2 12.24 5.2 2.48 0 4.85-.31 7.11-.94v-15.81h-5.56l.77-5.71h11.32v25.06zm18.43 2.09v-50.54h6.82v50.54h-6.82zm36.65 0v-44.77H262.3v-5.78h35.66v5.78h-14.42v44.77h-6.82zm62.67 0l-4.08-12.49h-20.18l-4.01 12.49h-7.03l17.09-50.54h8.09l17.09 50.54h-6.97zm-22.58-17.84h16.74l-8.44-26.07-8.3 26.07zm44.38 17.84v-50.54h6.82v44.76h22.65v5.78h-29.47zm-258.01 78.58v-50.54h29.89v5.78H110v17.33h20.12v5.78H110v21.66l-6.82-.01zm42.91-25.28c0-8.52 1.8-15.04 5.38-19.57 3.59-4.53 8.76-6.79 15.51-6.79 6.76 0 11.92 2.26 15.51 6.79s5.38 11.05 5.38 19.57-1.8 15.04-5.38 19.57c-3.59 4.53-8.76 6.79-15.51 6.79s-11.92-2.26-15.51-6.79c-3.58-4.52-5.38-11.05-5.38-19.57zm7.25 0c0 6.93 1.11 12.09 3.34 15.49 2.22 3.39 5.67 5.09 10.31 5.09s8.08-1.7 10.31-5.09 3.34-8.56 3.34-15.49-1.11-12.09-3.34-15.49c-2.23-3.39-5.67-5.09-10.31-5.09-4.64 0-8.08 1.7-10.31 5.09-2.23 3.4-3.34 8.56-3.34 15.49zm80.39 25.28l-12.03-20h-8.86v20h-6.68v-49.46c2.21-.48 4.67-.87 7.42-1.16 2.74-.29 5.1-.43 7.07-.43 5.72 0 10.21 1.39 13.47 4.19 3.26 2.8 4.89 6.62 4.89 11.48 0 3.52-.93 6.5-2.78 8.95-1.85 2.46-4.49 4.21-7.91 5.27l13.44 21.16h-8.03zm-13.5-45.64c-2.21 0-4.66.24-7.39.72v19.5h7.25c3.85 0 6.8-.87 8.86-2.6s3.1-4.19 3.1-7.36c0-3.32-1-5.86-2.99-7.62-1.99-1.76-4.94-2.64-8.83-2.64zm82.02 43.54c-4.31 2.12-9.1 3.18-14.35 3.18-7.27 0-12.9-2.31-16.91-6.93-4.01-4.62-6.02-11.09-6.02-19.42 0-5.53.93-10.29 2.78-14.26 1.85-3.97 4.48-6.98 7.88-9.03 3.4-2.04 7.42-3.07 12.06-3.07 4.88 0 9.43 1.06 13.65 3.18v5.71c-4.27-2.07-8.58-3.11-12.95-3.11-5.3 0-9.32 1.75-12.06 5.23-2.74 3.48-4.12 8.61-4.12 15.34 0 6.79 1.38 11.91 4.15 15.38 2.76 3.47 6.85 5.2 12.24 5.2 2.48 0 4.85-.31 7.11-.94v-15.81h-5.56l.77-5.71h11.32v25.06zm16.11-23.18c0-8.52 1.8-15.04 5.38-19.57 3.59-4.53 8.76-6.79 15.51-6.79s11.92 2.26 15.51 6.79 5.38 11.05 5.38 19.57-1.8 15.04-5.38 19.57c-3.59 4.53-8.76 6.79-15.51 6.79s-11.92-2.26-15.51-6.79c-3.59-4.52-5.38-11.05-5.38-19.57zm7.24 0c0 6.93 1.11 12.09 3.34 15.49 2.22 3.39 5.67 5.09 10.31 5.09 4.64 0 8.08-1.7 10.31-5.09 2.23-3.39 3.34-8.56 3.34-15.49s-1.11-12.09-3.34-15.49c-2.23-3.39-5.67-5.09-10.31-5.09-4.64 0-8.08 1.7-10.31 5.09-2.22 3.4-3.34 8.56-3.34 15.49zm50.51 0c0-8.52 1.8-15.04 5.38-19.57 3.59-4.53 8.76-6.79 15.51-6.79s11.92 2.26 15.51 6.79 5.38 11.05 5.38 19.57-1.8 15.04-5.38 19.57c-3.59 4.53-8.76 6.79-15.51 6.79s-11.92-2.26-15.51-6.79c-3.59-4.52-5.38-11.05-5.38-19.57zm7.24 0c0 6.93 1.11 12.09 3.34 15.49 2.22 3.39 5.67 5.09 10.31 5.09 4.64 0 8.08-1.7 10.31-5.09 2.23-3.39 3.34-8.56 3.34-15.49s-1.11-12.09-3.34-15.49c-2.23-3.39-5.67-5.09-10.31-5.09-4.64 0-8.08 1.7-10.31 5.09-2.22 3.4-3.34 8.56-3.34 15.49zm52.83 25.28v-49.46c5.16-1.06 9.87-1.59 14.13-1.59 7.55 0 13.37 2.23 17.48 6.68 4.1 4.45 6.16 10.72 6.16 18.81 0 8.28-2.07 14.61-6.19 18.99-4.12 4.39-10.08 6.58-17.86 6.58h-13.72zm13.71-5.78c5.63 0 9.84-1.62 12.63-4.87s4.18-8.17 4.18-14.77c0-6.74-1.36-11.73-4.08-14.99-2.72-3.25-6.87-4.87-12.45-4.87-2.25 0-4.64.22-7.17.65v38.84h6.89zm33.61-31.9v-9.68h-3.16v-1.07h7.62v1.07h-3.16v9.68h-1.3zm15.25 0l-.56-8.81-2.97 7.72h-1.11l-3.02-7.72-.53 8.81h-1.23l.77-10.75h1.45l3.11 8.1 3.13-8.1h1.43l.77 10.75h-1.24z"/><text transform="translate(103.18 451.047)"><tspan x="0" y="0" class="st3 st4 st5">November 15-18, 2019</tspan><tspan x="0" y="42" class="st3 st4 st5">Arcadian Loft, Toronto, Canada</tspan></text></svg>