<svg xmlns="http://www.w3.org/2000/svg" viewBox="0 0 255 55"><path d="M26.8 9.9c0-1 .5-1.6 1.5-1.6s1.5.7 1.5 1.6v4.8l5.4-5.8c.4-.4.8-.7 1.3-.7.8 0 1.4.6 1.4 1.4 0 .5-.3.9-.6 1.2L34 14.3l4 6.1c.3.5.7 1 .7 1.3 0 1.2-.9 1.5-1.6 1.5-.7 0-1.1-.2-1.4-.9l-3.8-5.9-1.9 1.9v3.2c0 1-.5 1.6-1.5 1.6s-1.5-.7-1.5-1.6l-.2-11.6zm15.1-1.7c.9 0 1.5.7 1.5 1.5s-.7 1.5-1.5 1.5-1.5-.7-1.5-1.5.7-1.5 1.5-1.5zm-1.4 5.5c0-.8.3-1.4 1.4-1.4 1.2 0 1.4.7 1.4 1.4v8.1c0 .8-.3 1.4-1.4 1.4-1.2 0-1.4-.7-1.4-1.4v-8.1zm15.1 8.2c0 .9-.4 1.4-1.4 1.4-.9 0-1.4-.5-1.4-1.4v-.5c-.5 1.3-1.6 1.8-3.1 1.8-2.4 0-4.6-1.8-4.6-5.6 0-2.8 1.4-5.4 4.5-5.4 1.4 0 2.3.6 2.9 1.4v-4c0-1 .6-1.4 1.4-1.4s1.4.5 1.4 1.4l.3 12.3zm-5.1-1c1.7 0 2.3-1.5 2.3-3.2 0-1.5-.6-3.3-2.3-3.3-1.8 0-2.3 1.9-2.3 3.3-.1 1.7.7 3.2 2.3 3.2zm11.4-8.7c2.2 0 4.4.9 4.4 2.2 0 .7-.5 1.3-1.3 1.3-1.2 0-1.2-1.4-3-1.4-1.1 0-1.6.3-1.6.9 0 .7.7.9 1.5 1.1l1.3.3c1.6.4 3.7 1.1 3.7 3.1 0 2.4-2.3 3.5-4.5 3.5-2.6 0-4.8-1.2-4.8-2.6 0-.7.4-1.3 1.2-1.3 1.3 0 1.4 1.8 3.6 1.8 1.1 0 1.7-.5 1.7-1.1 0-.8-.7-.9-1.6-1.2l-1.7-.4c-1.7-.4-3-1.2-3-3.1-.2-2.2 2.1-3.1 4.1-3.1zm12.8-2.3c0-1 .5-1.6 1.5-1.6s1.5.7 1.5 1.6v4.2h6V9.9c0-1 .5-1.6 1.5-1.6s1.5.7 1.5 1.6v11.7c0 1-.5 1.6-1.5 1.6s-1.5-.7-1.5-1.6v-4.8h-6v4.8c0 1-.5 1.6-1.5 1.6s-1.5-.7-1.5-1.6V9.9zm17 8.4c0 1.5 1 2.7 2.7 2.7 2.2 0 2.2-1.4 3.4-1.4.7 0 1.2.6 1.2 1.2 0 1.7-2.8 2.6-4.6 2.6-4.1 0-5.6-2.8-5.6-5.3 0-3.4 2-5.7 5.5-5.7 3.4 0 5.3 2.4 5.3 4.8 0 1-.3 1.3-1.3 1.3l-6.6-.2zm5.1-1.8c-.2-1.4-1.2-2.3-2.5-2.3-1.4 0-2.3.9-2.7 2.3h5.2zm4.7-6.8c0-1 .6-1.4 1.4-1.4.9 0 1.4.5 1.4 1.4v12.1c0 1-.6 1.4-1.4 1.4-.9 0-1.4-.5-1.4-1.4V9.7zm5.5 3.9c0-.9.4-1.4 1.4-1.4.9 0 1.4.5 1.4 1.4v.4c.5-1.3 1.6-1.8 3.1-1.8 2.4 0 4.6 1.8 4.6 5.6 0 2.8-1.4 5.4-4.5 5.4-1.4 0-2.3-.6-2.9-1.4v4c0 1-.6 1.4-1.4 1.4-.9 0-1.4-.5-1.4-1.4l-.3-12.2zm5.1.8c-1.7 0-2.3 1.5-2.3 3.2 0 1.5.6 3.3 2.3 3.3 1.8 0 2.3-1.9 2.3-3.3 0-1.6-.8-3.1-2.3-3.2zm12.9-4c0-1.4.7-1.9 1.8-1.9h4.8c2.8 0 4.7 1.4 4.7 4.5 0 2.6-1.6 4.5-4.8 4.5H128v4c0 1-.5 1.6-1.5 1.6s-1.5-.7-1.5-1.6V10.4zm3 4.7h3c1.4 0 2.3-.8 2.3-2 0-1.4-1.1-2-2.6-2h-2.6l-.1 4zm10.1-5.4c0-1 .6-1.4 1.4-1.4s1.4.5 1.4 1.4v4.1c.6-.8 1.6-1.5 3.3-1.5 1.7 0 3.7.9 3.7 3.9v5.7c0 .8-.3 1.4-1.4 1.4-1.2 0-1.4-.7-1.4-1.4v-5.1c0-1.2-.6-2-1.8-2-1.1 0-2.2.9-2.2 2.3v4.8c0 .8-.3 1.4-1.4 1.4s-1.4-.7-1.4-1.4V9.7zm16.9 2.5c3.6 0 5.4 2.4 5.4 5.5 0 2.9-1.4 5.5-5.4 5.5s-5.4-2.6-5.4-5.5c0-3.1 2-5.5 5.4-5.5zm0 8.9c1.7 0 2.5-1.5 2.5-3.4s-.8-3.4-2.5-3.4-2.5 1.4-2.5 3.4c.1 1.7.8 3.4 2.5 3.4zm7.2-7.4c0-.9.4-1.4 1.4-1.4s1.4.6 1.4 1.4v.3c.9-1.1 1.9-1.8 3.6-1.8 1.7 0 3.7.9 3.7 3.9v5.7c0 .8-.3 1.4-1.4 1.4s-1.4-.7-1.4-1.4v-5.1c0-1.2-.6-2-1.8-2-1.1 0-2.2.9-2.2 2.3v4.8c0 .8-.3 1.4-1.4 1.4-1.2 0-1.4-.7-1.4-1.4l-.5-8.1zm14.6 4.6c0 1.5 1 2.7 2.7 2.7 2.2 0 2.2-1.4 3.4-1.4.7 0 1.2.6 1.2 1.2 0 1.7-2.8 2.6-4.6 2.6-4.1 0-5.6-2.8-5.6-5.3 0-3.4 2-5.7 5.5-5.7 3.4 0 5.3 2.4 5.3 4.8 0 1-.3 1.3-1.3 1.3l-6.6-.2zm5.1-1.8c-.2-1.4-1.2-2.3-2.5-2.3-1.4 0-2.3.9-2.7 2.3h5.2zM12.4 43c0 3-1.5 4.8-4.8 4.8-4 0-4.6-2.6-4.6-4.1 0-1.3.5-2 1.4-2 1.2 0 1.4 1 1.4 1.9s.5 1.7 1.7 1.7c1.3 0 1.8-.9 1.8-2.5v-8.5c0-1 .5-1.6 1.5-1.6s1.5.7 1.5 1.6V43zm4.6-.1c0 1.5 1 2.7 2.7 2.7 2.2 0 2.2-1.4 3.4-1.4.7 0 1.2.6 1.2 1.2 0 1.7-2.8 2.6-4.6 2.6-4.1 0-5.6-2.8-5.6-5.3 0-3.4 2-5.7 5.5-5.7 3.4 0 5.3 2.4 5.3 4.8 0 1-.3 1.3-1.3 1.3l-6.6-.2zm5.1-1.7c-.2-1.4-1.2-2.3-2.5-2.3-1.4 0-2.3.9-2.7 2.3h5.2zm14.1 5.2c0 .9-.4 1.4-1.4 1.4s-1.4-.6-1.4-1.4V46c-.9 1.1-1.9 1.8-3.6 1.8-1.7 0-3.7-.9-3.7-3.9v-5.7c0-.8.3-1.4 1.4-1.4s1.4.7 1.4 1.4v5.1c0 1.2.6 2 1.8 2 1.1 0 2.2-.9 2.2-2.3v-4.8c0-.8.3-1.4 1.4-1.4s1.4.7 1.4 1.4l.5 8.2zm2.4-8.1c0-.9.4-1.4 1.4-1.4s1.4.6 1.4 1.4v.4c.9-1.1 1.9-1.8 3.6-1.8 1.7 0 3.7.9 3.7 3.9v5.7c0 .8-.3 1.4-1.4 1.4-1.2 0-1.4-.7-1.4-1.4v-5.1c0-1.2-.6-2-1.8-2-1.1 0-2.2.9-2.2 2.3v4.8c0 .8-.3 1.4-1.4 1.4s-1.4-.7-1.4-1.4l-.5-8.2c.1 0 0 0 0 0zm14.5 4.6c0 1.5 1 2.7 2.7 2.7 2.2 0 2.2-1.4 3.4-1.4.7 0 1.2.6 1.2 1.2 0 1.7-2.8 2.6-4.6 2.6-4.1 0-5.6-2.8-5.6-5.3 0-3.4 2-5.7 5.5-5.7 3.4 0 5.3 2.4 5.3 4.8 0 1-.3 1.3-1.3 1.3l-6.6-.2zm5.1-1.7c-.2-1.4-1.2-2.3-2.5-2.3-1.4 0-2.3.9-2.7 2.3h5.2zm8.6-4.4c2.2 0 4.4.9 4.4 2.2 0 .7-.5 1.3-1.3 1.3-1.2 0-1.2-1.4-3-1.4-1.1 0-1.6.3-1.6.9 0 .7.7.9 1.5 1.1l1.3.3c1.6.4 3.7 1.1 3.7 3.1 0 2.4-2.3 3.5-4.5 3.5-2.6 0-4.8-1.2-4.8-2.6 0-.7.4-1.3 1.2-1.3 1.3 0 1.4 1.8 3.6 1.8 1.1 0 1.7-.5 1.7-1.1 0-.8-.7-.9-1.6-1.2l-1.7-.4c-1.7-.4-3-1.2-3-3.1-.3-2.2 2.1-3.1 4.1-3.1zm10.5 0c2.2 0 4.4.9 4.4 2.2 0 .7-.5 1.3-1.3 1.3-1.2 0-1.2-1.4-3-1.4-1.1 0-1.6.3-1.6.9 0 .7.7.9 1.5 1.1l1.3.3c1.6.4 3.7 1.1 3.7 3.1 0 2.4-2.3 3.5-4.5 3.5-2.6 0-4.8-1.2-4.8-2.6 0-.7.4-1.3 1.2-1.3 1.3 0 1.4 1.8 3.6 1.8 1.1 0 1.7-.5 1.7-1.1 0-.8-.7-.9-1.6-1.2l-1.7-.4c-1.7-.4-3-1.2-3-3.1-.2-2.2 2.1-3.1 4.1-3.1zm9.3 6.1c0 1.5 1 2.7 2.7 2.7 2.2 0 2.2-1.4 3.4-1.4.7 0 1.2.6 1.2 1.2 0 1.7-2.8 2.6-4.6 2.6-4.1 0-5.6-2.8-5.6-5.3 0-3.4 2-5.7 5.5-5.7 3.4 0 5.3 2.4 5.3 4.8 0 1-.3 1.3-1.3 1.3l-6.6-.2zm5.2-1.7c-.2-1.4-1.2-2.3-2.5-2.3-1.4 0-2.3.9-2.7 2.3h5.2zm25.6-8.3c1.4 0 1.9 1.2 1.9 2.5s-.4 2-1.1 2.7c-.3.3-1.2.9-1.8.9-.5 0-.7-.3-.7-.6 0-.9 2-.4 2.1-2.5-.2.1-.4.2-.7.2-1 0-1.4-.8-1.4-1.5.1-1.1.8-1.7 1.7-1.7zm4.9 10c0 1.5 1 2.7 2.7 2.7 2.2 0 2.2-1.4 3.4-1.4.7 0 1.2.6 1.2 1.2 0 1.7-2.8 2.6-4.6 2.6-4.1 0-5.6-2.8-5.6-5.3 0-3.4 2-5.7 5.5-5.7 3.4 0 5.3 2.4 5.3 4.8 0 1-.3 1.3-1.3 1.3l-6.6-.2zm5.1-1.7c-.2-1.4-1.2-2.3-2.5-2.3-1.4 0-2.3.9-2.7 2.3h5.2zm-2.3-8.2c.4-.3.9-.7 1.4-.7.8 0 1.1.7 1.1 1.1 0 .4-.3.8-.8 1.1l-1.7 1.3c-.5.4-.7.4-1 .4-.5 0-1.1-.3-1.1-1 0-.4.1-.6.6-1l1.5-1.2zm11.9 3.8c2.4 0 4.2 1.4 4.2 2.8 0 .9-.6 1.3-1.4 1.3-1.4 0-.9-1.7-3-1.7-1.2 0-2.5.8-2.5 3.5 0 1.8.9 3 2.5 3 2 0 1.6-1.9 3.2-1.9.8 0 1.3.6 1.3 1.2 0 1.3-1.4 3.1-4.4 3.1-3.6 0-5.3-2.2-5.3-5.3-.1-3.7 1.8-6 5.4-6zm10.8 0c3.6 0 5.4 2.4 5.4 5.5 0 2.9-1.4 5.5-5.4 5.5s-5.4-2.6-5.4-5.5c0-3.1 1.8-5.5 5.4-5.5zm0 8.8c1.7 0 2.5-1.5 2.5-3.4s-.8-3.4-2.5-3.4-2.5 1.4-2.5 3.4c0 1.9.8 3.4 2.5 3.4zm16.9.8c0 .9-.4 1.4-1.4 1.4-1 0-1.4-.6-1.4-1.4V46c-.9 1.1-1.9 1.8-3.6 1.8-1.7 0-3.7-.9-3.7-3.9v-5.7c0-.8.3-1.4 1.4-1.4 1.2 0 1.4.7 1.4 1.4v5.1c0 1.2.6 2 1.8 2 1.1 0 2.2-.9 2.2-2.3v-4.8c0-.8.3-1.4 1.4-1.4s1.4.7 1.4 1.4l.5 8.2zm3.1-7.5h-.5c-.9 0-1.2-.3-1.2-1s.4-1 1.2-1h.5v-1.8c0-1 .6-1.4 1.4-1.4.9 0 1.4.5 1.4 1.4V37h.9c.9 0 1.4.3 1.4 1s-.5 1-1.4 1h-.9v5.9c0 .5.2.7.8.7h.4c.7 0 1.1.4 1.1 1 0 .9-.7 1.4-2.1 1.4-2.1 0-3-.9-3-2.6v-6.5zm9 4c0 1.5 1 2.7 2.7 2.7 2.2 0 2.2-1.4 3.4-1.4.7 0 1.2.6 1.2 1.2 0 1.7-2.8 2.6-4.6 2.6-4.1 0-5.6-2.8-5.6-5.3 0-3.4 2-5.7 5.5-5.7 3.4 0 5.3 2.4 5.3 4.8 0 1-.3 1.3-1.3 1.3l-6.6-.2zm5.1-1.7c-.2-1.4-1.2-2.3-2.5-2.3-1.4 0-2.3.9-2.7 2.3h5.2zM113.8 43c0 3-1.5 4.8-4.8 4.8-4 0-4.6-2.6-4.6-4.1 0-1.3.5-2 1.4-2 1.2 0 1.4 1 1.4 1.9s.5 1.7 1.7 1.7 1.8-.9 1.8-2.5v-8.5c0-1 .5-1.6 1.5-1.6s1.5.7 1.5 1.6V43zm-16.7 1.4c1.4 0 1.9 1.2 1.9 2.5s-.4 2-1.1 2.7c-.3.3-1.2.9-1.8.9-.5 0-.7-.3-.7-.6 0-.9 2-.4 2.1-2.5-.2.1-.4.2-.7.2-1 0-1.4-.8-1.4-1.5.1-1 .9-1.7 1.7-1.7zm155.8-32.6V44c0 4.2-3.4 7.6-7.6 7.6H211c-4.2 0-7.6-3.4-7.6-7.6v-8.9l-9.5-6.6c-.5-.3-.5-1.1 0-1.4l9.5-6.6v-8.9c0-4.2 3.4-7.6 7.6-7.6h34.3c4.2.2 7.6 3.6 7.6 7.8zM228 41.3c5.2 0 9.9-2.2 13.4-5.8l-3-3.6c-2.6 2.9-6.4 4.7-10.4 4.7-4.1 0-7.8-1.8-10.4-4.7l-3 3.6c3.5 3.5 8.2 5.8 13.4 5.8zm8.1-24.5c-2.1 0-3.9 1.7-3.9 3.9s1.7 3.9 3.9 3.9 3.9-1.7 3.9-3.9c-.1-2.2-1.7-3.9-3.9-3.9zm-16.2 0c-2.1 0-3.9 1.7-3.9 3.9s1.7 3.9 3.9 3.9 3.9-1.7 3.9-3.9-1.8-3.9-3.9-3.9z" fill="#0b95c8"/></svg>