<svg xmlns="http://www.w3.org/2000/svg" viewBox="0 0 574.5 196.5"><path d="M45.6 121.3c-4.1 2.1-8.7 3.1-13.9 3.1-7 0-12.4-2.3-16.2-6.8S9.6 107 9.6 99c0-5.2.8-9.9 2.7-13.7 1.7-3.9 4.3-6.8 7.5-8.5 3.3-2.1 7.2-2.9 11.6-2.9 4.6 0 8.9 1 13 3.1v5.4c-4.1-2.1-8.1-3.1-12.4-3.1-5 0-8.9 1.5-11.6 5-2.7 3.3-3.9 8.3-3.9 14.7 0 6.6 1.4 11.4 4.1 14.7 2.7 3.3 6.6 4.8 11.8 4.8 2.5 0 4.6-.2 6.8-.8v-15.1H34l.8-5.4h10.8v24.1zm17.8 1.9V74.7H70v48.5h-6.6zm26.2 0V74.7h28.8v5.4H96.2v16.6h19.3v5.4H96.2v20.7l-6.6.4zm54.2 0V80.3h-13.9v-5.4h34.2v5.4h-13.7v42.9h-6.6zm59.1 0V80.3H189v-5.4h34.2v5.4h-13.9v42.9h-6.4zm35.2 0V74.7h6.6v20.7h21.7V74.7h6.6v48.5h-6.6v-22h-22v22h-6.3zm61.3-21.8v16.2h22.2v5.4h-28.8V74.5h28.6v5.4h-22.2v15.7h19.3v5.4l-19.1.4zm83.3 19.9c-3.9 2.1-7.9 3.1-12.6 3.1-6.4 0-11.2-2.3-14.7-6.8s-5.2-10.6-5.2-18.6 1.7-14.1 5.2-18.6c3.5-4.4 8.3-6.8 14.7-6.8 4.3 0 8.5 1 12.4 3.1v5.4c-2.1-1-4.1-1.7-5.8-2.3-1.7-.4-3.7-.6-5.4-.6-9.1 0-13.9 6.6-13.9 19.7s4.6 19.7 13.9 19.7c2.1 0 3.9-.2 5.8-.6 1.7-.4 3.7-1.2 5.8-2.3v5.4h-.2zm14.1-22.4c0-8.1 1.5-14.5 5-18.8 3.5-4.3 8.3-6.6 14.9-6.6s11.4 2.3 14.9 6.6 5 10.6 5 18.8-1.5 14.5-5 18.8c-3.5 4.3-8.3 6.6-14.9 6.6s-11.4-2.3-14.9-6.6c-3.4-4.3-5-10.7-5-18.8zm7 0c0 6.8 1 11.6 3.3 14.9 2.1 3.3 5.4 4.8 10.1 4.8s7.7-1.5 10.1-4.8c2.1-3.3 3.3-8.1 3.3-14.9 0-6.8-1-11.6-3.3-14.9-2.1-3.3-5.4-4.8-10.1-4.8-4.4 0-7.7 1.5-10.1 4.8s-3.3 8.5-3.3 14.9zm50.6 24.3V75.8c4.8-1 9.3-1.4 13.7-1.4 7.3 0 12.8 2.1 16.6 6.4 3.9 4.3 6 10.2 6 18.2s-2.1 14.1-6 18.2c-3.9 4.3-9.7 6.4-17.2 6.4h-13.1v-.4zm13-5.6c5.4 0 9.3-1.5 12-4.6 2.7-3.1 4.1-7.7 4.1-14.3s-1.2-11.2-3.9-14.5c-2.7-3.1-6.6-4.6-12-4.6-2.3 0-4.4.2-7 .6v37.3h6.8v.1zm47.4-16.2v16.2H537v5.4h-28.8V74.5H537v5.4h-22.2v15.7h19.3v5.4l-19.3.4zM167.2 45.7c-3.5 0-6.2-1.2-7.7-3.9-1.7-2.5-2.7-6.4-2.7-11.2s.8-8.7 2.7-11.2c1.7-2.5 4.3-3.9 7.7-3.9 1.4 0 2.7.2 3.9.4 1.2.4 2.7.8 4.1 1.5l.4.2v-3.1h-.2c-2.9-1.4-5.8-2.1-8.5-2.1-4.3 0-7.7 1.5-10.2 4.8-2.5 3.3-3.7 7.7-3.7 13.1s1.2 10.2 3.7 13.1c2.5 3.3 6 4.8 10.2 4.8 3.1 0 6-.8 8.7-2.1h.2V43l-.4.2c-2.8 1.9-5.5 2.5-8.2 2.5zm16.2-10.3c-1.5 1.4-2.5 3.3-2.5 5.8s.8 4.3 2.3 5.8c1.4 1.4 3.5 2.1 6 2.1 2.7 0 5.2-.8 7.9-2.3l.2 1.5 2.9-.2V31.4c0-2.9-.8-4.8-2.5-6.6-1.5-1.4-3.9-2.3-7-2.3-1.4 0-2.9.2-4.3.4-1.4.4-2.9.8-4.1 1.4h-.2v2.9l.4-.2c1.2-.6 2.5-1 3.9-1.2 1.4-.4 2.7-.4 3.9-.4 4.3 0 6.6 1.7 6.6 6v3.1c-6.5-1.6-11-1.2-13.5.9zm6.2 10.5c-3.7 0-5.4-1.5-5.4-4.8 0-1.7.6-3.1 1.5-3.9 1-.8 2.9-1.2 5-1.2 1.7 0 3.7.2 5.8.6v7.5c-1 .6-2.3 1-3.5 1.4-.9.2-2.1.4-3.4.4zm38.9-10.8c0-4.1-1-7.2-2.7-9.3-1.7-2.3-4.3-3.5-7.5-3.5-2.3 0-4.6.8-7.2 2.3l-.2-1.5-2.9.2V59l3.5-.4V48.2c1.5.4 3.3.6 5 .6 3.9 0 7-1.2 8.9-3.5 1.9-2.3 3.1-5.8 3.1-10.2zm-10.7-9.9c2.3 0 4.1.8 5.2 2.5 1.2 1.5 1.7 4.3 1.7 7.5 0 3.7-.8 6.6-2.3 8.1-1.4 1.7-3.7 2.7-6.6 2.7-1.5 0-3.5-.2-4.8-.8V26.7c1-.6 2.1-1 3.3-1.4 1.4.1 2.4-.1 3.5-.1zm19-7.5c.6 0 1.2-.2 1.5-.6.4-.4.6-1 .6-1.7 0-.8-.2-1.4-.6-1.7-.4-.4-1-.6-1.5-.6s-1.2.2-1.5.6c-.4.4-.6 1-.6 1.7 0 .8.2 1.4.6 1.7.1.4.7.6 1.5.6zM235 48.2h3.5V22.7l-3.5.6zm23.2-.2v-2.7h-.4c-2.9.8-5 .6-6.2-.6-.6-.8-1-2.1-1-3.7V25.6h7.2v-2.9h-7.2v-6.6l-3.1.4-.2 6.2-3.7.2v2.7h3.7v15.3c0 2.5.6 4.3 1.7 5.8 1.2 1.2 2.9 1.7 5 1.7 1.5.2 2.7 0 4.2-.4zm6.2-12.6c-1.5 1.4-2.5 3.3-2.5 5.8s.8 4.3 2.3 5.8c1.4 1.4 3.5 2.1 6 2.1 2.7 0 5.2-.8 7.9-2.3l.2 1.5 2.9-.2V31.4c0-2.9-.8-4.8-2.5-6.6-1.5-1.4-3.9-2.3-7-2.3-1.4 0-2.9.2-4.3.4-1.4.4-2.9.8-4.1 1.4h-.2v2.9l.4-.2c1.2-.6 2.5-1 3.9-1.2 1.4-.4 2.7-.4 3.9-.4 4.3 0 6.6 1.7 6.6 6v3.1c-6.3-1.6-11-1.2-13.5.9zm6.4 10.5c-3.7 0-5.4-1.5-5.4-4.8 0-1.7.6-3.1 1.5-3.9 1-.8 2.9-1.2 5-1.2 1.7 0 3.7.2 5.8.6v7.5c-1 .6-2.3 1-3.5 1.4-1.3.2-2.4.4-3.4.4zm18 2.3h3.4V10.5l-3.4.4zm47.3-4.1c2.5-3.1 3.7-7.5 3.7-13.5s-1.2-10.2-3.7-13.5c-2.5-3.1-6-4.6-10.4-4.6s-7.9 1.5-10.4 4.6c-2.5 3.1-3.7 7.5-3.7 13.5s1.2 10.2 3.7 13.5c2.5 3.1 6 4.6 10.4 4.6 4.6.1 8.1-1.5 10.4-4.6zm-10.2 1.6c-7 0-10.2-4.8-10.2-15.1s3.3-15.1 10.2-15.1c7 0 10.2 4.8 10.2 15.1s-3.3 15.1-10.2 15.1zM358 22.3c-2.7 0-5.2.8-7.9 2.3l-.2-1.5-2.9.2V48h3.5V26.9c1.2-.6 2.3-1 3.5-1.4 1.2-.4 2.5-.6 3.5-.6 3.9 0 5.8 1.7 5.8 5.8v17.4h3.5V30.4c0-2.7-.8-4.6-2.3-6-1.9-1.5-4-2.1-6.5-2.1zm33.2 24.9l.2-2.9-.4.2c-2.3 1-4.4 1.5-6.8 1.5-5.8 0-8.5-3.3-8.5-9.9H392V36c.2-1 .2-2.3.2-3.5 0-3.3-.8-5.8-2.5-7.5-1.5-1.7-4.1-2.9-7-2.9-3.3 0-6 1.2-7.7 3.7-1.7 2.5-2.9 5.8-2.9 9.9 0 4.3 1 7.5 3.1 9.9 2.1 2.3 4.8 3.5 8.5 3.5 2.9-.3 5.4-.7 7.5-1.9zm-8.1-22c2.1 0 3.5.6 4.6 1.7 1 1.2 1.5 3.1 1.5 5.4v1h-13.5c.2-2.5.8-4.6 2.1-6.2 1.4-1.3 3.2-1.9 5.3-1.9zm-266 135.5H99.3v-16H96v35.9h3.3v-17h17.8v17h3.5v-35.9h-3.5zm35.8-16H149L136.8 180l-.2.4h3.7l3.1-9.7h14.9l3.3 9.3v.2h3.7l-12.4-35.5zm4.4 23.2h-13l6.6-19.3 6.4 19.3zm35.6 10.2c-3.5 0-6.4-1.2-7.9-3.9-1.7-2.7-2.7-6.6-2.7-11.6s1-8.9 2.7-11.6c1.7-2.7 4.4-3.9 7.9-3.9 1.4 0 2.7.2 4.1.4 1.2.4 2.7.8 4.3 1.5l.4.2v-3.1h-.2c-2.9-1.4-5.8-2.3-8.7-2.3-4.4 0-7.9 1.5-10.4 4.8s-3.7 7.9-3.7 13.7c0 5.8 1.2 10.4 3.7 13.7 2.5 3.3 6 4.8 10.4 4.8 3.1 0 6.2-.8 8.9-2.3h.2v-3.1l-.4.2c-3 1.9-5.9 2.5-8.6 2.5zm50.8-33.4h-4.6l-15.9 15.2v-15.2h-3.6v35.9h3.6v-17l15.9 17h5l-18.2-18.9zm28.2 0H268L255.9 180l-.2.4h3.7l3.1-9.7h14.9l3.3 9.3v.2h3.7l-12.5-35.5zm4.7 23.2h-13l6.6-19.3 6.4 19.3zm17-20.1h10.2v32.8h3.7v-32.8h10.3v-3.1h-24.2zm61.7 12.9h-17.8v-16H334v35.9h3.5v-17h17.8v17h3.5v-35.9h-3.5zm36.1-16.8c-4.4 0-8.1 1.5-10.6 4.8s-3.7 7.9-3.7 13.9 1.2 10.6 3.7 13.9c2.5 3.3 6.2 4.8 10.6 4.8 4.4 0 8.1-1.5 10.6-4.8s3.7-7.9 3.7-13.9-1.2-10.6-3.7-13.9c-2.3-3.1-5.7-4.8-10.6-4.8zm0 34.2c-7.2 0-10.6-5-10.6-15.5 0-10.4 3.5-15.5 10.6-15.5 7.2 0 10.6 5 10.6 15.5.1 10.5-3.4 15.5-10.6 15.5zm54.3-33.4v29.4l-17.9-29.4h-3.5v35.9h3.5v-29.5l17.9 29.3.2.2h3.3v-35.9zM403.8 24.4c-1.2 0-2.3-.2-3.3-.8-1-.6-1.5-1.4-2.3-2.5s-.8-2.1-.8-3.3c0-1.2.2-2.5.8-3.5.6-1 1.4-1.7 2.3-2.3.8-.4 2.1-.8 3.1-.8 1.2 0 2.3.2 3.3.8 1 .6 1.5 1.4 2.3 2.5s.8 2.1.8 3.3c0 1.2-.2 2.5-.8 3.5-.6 1-1.4 1.7-2.3 2.3-1 .4-1.9.8-3.1.8zm0-1.1c1 0 1.7-.2 2.7-.8.8-.6 1.4-1.2 1.7-2.1.4-.8.6-1.7.6-2.9 0-1-.2-2.1-.8-2.9-.4-.8-1-1.4-1.7-2.1-.8-.6-1.5-.6-2.7-.6-1 0-1.7.2-2.7.8-.8.4-1.4 1.2-1.7 2.1-.4.8-.6 1.7-.6 2.9s.2 2.1.8 2.9c.4.8 1 1.4 1.7 2.1s1.5.6 2.7.6zm1.5-2l-1.5-2.9h-1.2v2.9h-1v-7c.8-.2 1.4-.2 2.1-.2.8 0 1.4.2 1.7.6.4.4.6 1 .6 1.5 0 1-.6 1.5-1.5 2.1l1.7 3.1h-.8v-.2h-.1zm-2.9-3.6h1c.6 0 1-.2 1.2-.4.2-.2.4-.6.4-1s-.2-.8-.4-1c-.2-.2-.6-.4-1.2-.4h-1v2.8zM549 82.6v-9.1h-3.1v-1h7.3v1h-3.1v9.3H549v-.2zm14.7 0l-.6-8.5-2.9 7.3h-1l-2.9-7.3-.4 8.5h-1.2l.8-10.4h1.4l3.1 7.7 3.1-7.7h1.4l.8 10.4h-1.6z" fill="#fff"/></svg>