<svg id="Layer_1" xmlns="http://www.w3.org/2000/svg" viewBox="0 0 600 600"><style>.st0{fill:#e31a52}.st1{fill:#b20d3f}.st2{fill:#10253f}.st3{fill:#013d5b}.st4{fill:#00a3c4}.st5{fill:#00c0e5}.st7,.st8{enable-background:new}.st8{fill:none;stroke:#fff;stroke-width:2.5;stroke-linecap:round;stroke-linejoin:round;stroke-miterlimit:10}</style><path class="st0" d="M150 150H0l75-75z"/><path class="st1" d="M0 0h150L75 75z"/><path class="st0" d="M0 150V0l75 75z"/><path class="st1" d="M150 0v150L75 75z"/><path class="st0" d="M150 300H0l75-75z"/><path class="st2" d="M0 150h150l-75 75z"/><path class="st3" d="M0 300V150l75 75z"/><path class="st2" d="M150 150v150l-75-75z"/><path class="st4" d="M150 450H0l75-75z"/><path class="st1" d="M0 300h150l-75 75z"/><path class="st5" d="M0 450V300l75 75z"/><path class="st0" d="M150 300v150l-75-75z"/><path class="st3" d="M300 150H150l75-75z"/><path class="st5" d="M150 0h150l-75 75z"/><path class="st2" d="M150 150V0l75 75z"/><path class="st0" d="M300 0v150l-75-75z"/><path class="st5" d="M300 300H150l75-75z"/><path class="st4" d="M150 150h150l-75 75zm0 150V150l75 75z"/><path class="st5" d="M300 150v150l-75-75z"/><path class="st2" d="M300 450H150l75-75z"/><path class="st3" d="M150 300h150l-75 75z"/><path class="st2" d="M150 450V300l75 75z"/><path class="st5" d="M300 300v150l-75-75z"/><path class="st4" d="M450 150H300l75-75z"/><path class="st3" d="M300 0h150l-75 75zm0 150V0l75 75z"/><path class="st0" d="M450 0v150l-75-75zm0 300H300l75-75z"/><path class="st5" d="M300 150h150l-75 75z"/><path class="st2" d="M300 300V150l75 75z"/><path class="st0" d="M450 150v150l-75-75z"/><path class="st4" d="M450 450H300l75-75z"/><path class="st1" d="M300 300h150l-75 75z"/><path class="st5" d="M300 450V300l75 75z"/><path class="st0" d="M450 300v150l-75-75z"/><path class="st2" d="M600 150H450l75-75z"/><path class="st3" d="M450 0h150l-75 75zm0 150V0l75 75z"/><path class="st2" d="M600 0v150l-75-75zm0 300H450l75-75z"/><path class="st5" d="M450 150h150l-75 75zm0 150V150l75 75z"/><path class="st3" d="M600 150v150l-75-75z"/><path class="st0" d="M450 450h150l-75 75z"/><path class="st2" d="M600 600H450l75-75z"/><path class="st3" d="M600 450v150l-75-75z"/><path class="st2" d="M450 600V450l75 75z"/><path class="st5" d="M300 450h150l-75 75z"/><path class="st4" d="M450 600H300l75-75z"/><path class="st4" d="M450 450v150l-75-75z"/><path class="st5" d="M300 600V450l75 75z"/><path class="st0" d="M150 450h150l-75 75z"/><path class="st5" d="M300 600H150l75-75z"/><path class="st2" d="M300 450v150l-75-75z"/><path class="st0" d="M150 600V450l75 75z"/><path class="st2" d="M0 450h150l-75 75z"/><path class="st5" d="M150 600H0l75-75z"/><path class="st5" d="M150 450v150l-75-75z"/><path class="st3" d="M0 600V450l75 75z"/><path class="st5" d="M600 450H450l75-75z"/><path class="st3" d="M450 300h150l-75 75z"/><path class="st2" d="M450 450V300l75 75z"/><path class="st0" d="M600 300v150l-75-75z"/><path d="M224.59 126.33v19.58h23.85v3.57h-28.25v-48.95h28.18v3.57h-23.78v18.67h20.77v3.57h-20.77zm35.94 23.15v-47.9c4.89-.98 9.28-1.47 13.15-1.47 7.18 0 12.78 2.17 16.82 6.5 4.03 4.34 6.05 10.4 6.05 18.18 0 7.93-2.04 14.02-6.12 18.29s-9.9 6.4-17.45 6.4h-12.45zm12.45-3.57c6.25 0 10.97-1.78 14.16-5.35 3.19-3.57 4.79-8.82 4.79-15.77 0-6.99-1.56-12.26-4.68-15.8-3.12-3.54-7.79-5.32-13.99-5.32-2.24 0-5.01.26-8.32.77v41.47h8.04zm67.13-45.39h4.27v32.66c0 5.64-1.46 9.94-4.37 12.9-2.91 2.96-7.1 4.44-12.55 4.44-5.5 0-9.71-1.48-12.62-4.44-2.91-2.96-4.37-7.26-4.37-12.9v-32.66h4.41v32.73c0 9.09 4.2 13.64 12.59 13.64 4.24 0 7.41-1.12 9.51-3.36 2.1-2.24 3.15-5.66 3.15-10.28v-32.73zm50.56 47c-4.01 2-8.21 3.01-12.59 3.01-6.2 0-11.05-2.25-14.55-6.75s-5.24-10.76-5.24-18.78c0-8.02 1.75-14.28 5.24-18.78 3.5-4.5 8.34-6.75 14.55-6.75 4.24 0 8.37 1 12.38 3.01v3.57c-2.15-1.02-4.15-1.77-6.01-2.24-1.86-.47-3.8-.7-5.8-.7-5.17 0-9.08 1.85-11.71 5.56-2.63 3.71-3.95 9.15-3.95 16.33 0 7.18 1.32 12.62 3.95 16.33 2.63 3.71 6.54 5.56 11.71 5.56 3.96 0 7.97-.98 12.03-2.94v3.57zm42.8 1.96l-4.62-13.22h-21.82l-4.47 13.22h-4.55l17.34-48.95h5.1l17.41 48.95h-4.39zm-25.25-16.58h19.51l-9.86-28.25-9.65 28.25zm45.6 16.58v-45.39h-14.76v-3.57h33.92v3.57h-14.76v45.39h-4.4zm34.54-23.15v19.58h23.85v3.57h-28.25v-48.95h28.18v3.57h-23.78v18.67h20.77v3.57h-20.77zm36.23 23.5c-.93 0-1.7-.29-2.31-.87-.61-.58-.91-1.36-.91-2.34 0-.98.3-1.76.91-2.34.61-.58 1.37-.87 2.31-.87.93 0 1.7.29 2.31.87.61.58.91 1.36.91 2.34 0 .98-.3 1.76-.91 2.34-.61.57-1.38.87-2.31.87zm-320.18 276.5v19.58h23.85v3.57H200v-48.95h28.18v3.57H204.4v18.67h20.77v3.57h-20.76zm78.53 23.15l-2.66-43.08-15.31 38.81h-4.06l-15.45-38.88-2.59 43.15h-4.2l3.43-48.95h5.11l15.66 39.72 15.8-39.72h5.11l3.43 48.95h-4.27zm19.44 0v-47.9c2.05-.42 4.32-.77 6.82-1.05 2.49-.28 4.63-.42 6.4-.42 5.41 0 9.67 1.32 12.8 3.95 3.12 2.63 4.69 6.28 4.69 10.94 0 4.66-1.62 8.32-4.86 10.98s-7.7 3.99-13.39 3.99h-8.04v19.51h-4.42zm12.73-45.88c-2.38 0-5.15.28-8.32.84v22.03h7.97c4.43 0 7.83-.99 10.21-2.97 2.38-1.98 3.57-4.81 3.57-8.5 0-3.73-1.13-6.56-3.39-8.5-2.27-1.93-5.62-2.9-10.04-2.9zm48.04 46.92c-6.43 0-11.38-2.21-14.83-6.64-3.45-4.43-5.17-10.72-5.17-18.88 0-8.16 1.72-14.45 5.17-18.88s8.39-6.64 14.83-6.64c6.43 0 11.38 2.21 14.83 6.64 3.45 4.43 5.18 10.72 5.18 18.88 0 8.16-1.73 14.45-5.18 18.88-3.46 4.43-8.4 6.64-14.83 6.64zm0-3.56c10.26 0 15.38-7.32 15.38-21.96s-5.13-21.96-15.38-21.96c-10.26 0-15.38 7.32-15.38 21.96-.01 14.64 5.12 21.96 15.38 21.96zm68.6 2.52l-11.4-43.64-11.47 43.64h-4.69l-12.38-48.95h4.48l10.35 43.29 11.19-43.29h5.04l11.19 43.43 10.42-43.43h4.41l-12.38 48.95h-4.76zm32.8-23.15v19.58h23.85v3.57h-28.25v-48.95h28.18v3.57h-23.78v18.67h20.77v3.57h-20.77zm35.94 23.15v-47.9c2.05-.42 4.32-.77 6.82-1.05 2.49-.28 4.63-.42 6.4-.42 5.36 0 9.6 1.31 12.73 3.92 3.12 2.61 4.69 6.15 4.69 10.63 0 3.59-.99 6.57-2.97 8.95-1.98 2.38-4.81 4.01-8.5 4.9l13.85 20.98h-5.17l-13.01-20.28c-.37.05-.76.07-1.15.07h-9.33v20.21h-4.36zm12.73-45.88c-2.43 0-5.22.28-8.39.84v21.33h8.04c4.47 0 7.89-.94 10.24-2.83 2.35-1.89 3.53-4.65 3.53-8.29 0-3.59-1.14-6.33-3.43-8.22-2.28-1.89-5.61-2.83-9.99-2.83zm33.56 46.23c-.93 0-1.7-.29-2.31-.87-.61-.58-.91-1.36-.91-2.34 0-.98.3-1.76.91-2.34.61-.58 1.37-.87 2.31-.87.93 0 1.7.29 2.31.87.61.58.91 1.36.91 2.34 0 .98-.3 1.76-.91 2.34-.61.57-1.37.87-2.31.87zM74.43 299.48v-47.9c4.89-.98 9.28-1.47 13.15-1.47 7.18 0 12.78 2.17 16.82 6.5 4.03 4.34 6.05 10.4 6.05 18.18 0 7.93-2.04 14.02-6.12 18.29s-9.9 6.4-17.45 6.4H74.43zm12.44-3.57c6.25 0 10.97-1.78 14.16-5.35 3.19-3.57 4.79-8.82 4.79-15.77 0-6.99-1.56-12.26-4.68-15.8-3.12-3.54-7.79-5.31-13.99-5.31-2.24 0-5.01.26-8.32.77v41.47h8.04zm42.24-19.58v19.58h23.85v3.57h-28.25v-48.95h28.18v3.57h-23.78v18.67h20.77v3.57h-20.77zm46.85 23.15l-17.2-48.95h4.69l14.96 44.34 15.1-44.34h4.47l-17.13 48.95h-4.89zm37-23.15v19.58h23.85v3.57h-28.25v-48.95h28.18v3.57h-23.78v18.67h20.77v3.57h-20.77zm35.94 23.15v-48.95h4.4v45.38h23.57v3.57H248.9zm55.66 1.04c-6.43 0-11.38-2.21-14.83-6.64-3.45-4.43-5.17-10.72-5.17-18.88 0-8.16 1.72-14.45 5.17-18.88s8.39-6.64 14.83-6.64c6.43 0 11.38 2.21 14.83 6.64 3.45 4.43 5.18 10.72 5.18 18.88 0 8.16-1.73 14.45-5.18 18.88-3.45 4.43-8.39 6.64-14.83 6.64zm0-3.56c10.26 0 15.38-7.32 15.38-21.96s-5.13-21.96-15.38-21.96-15.38 7.32-15.38 21.96 5.13 21.96 15.38 21.96zm34.27 2.52v-47.9c2.05-.42 4.32-.77 6.82-1.05 2.49-.28 4.63-.42 6.4-.42 5.41 0 9.67 1.32 12.8 3.95 3.12 2.63 4.69 6.28 4.69 10.94 0 4.66-1.62 8.32-4.86 10.98s-7.7 3.99-13.39 3.99h-8.04v19.51h-4.42zm12.73-45.88c-2.38 0-5.15.28-8.32.84v22.03h7.97c4.43 0 7.83-.99 10.21-2.97 2.38-1.98 3.57-4.81 3.57-8.5 0-3.73-1.13-6.56-3.39-8.5-2.27-1.93-5.61-2.9-10.04-2.9zm23.22 46.23c-.93 0-1.7-.29-2.31-.87-.61-.58-.91-1.36-.91-2.34s.3-1.76.91-2.34c.61-.58 1.37-.87 2.31-.87.93 0 1.7.29 2.31.87.61.58.91 1.36.91 2.34s-.3 1.76-.91 2.34c-.61.57-1.38.87-2.31.87z" fill="#fff"/><g class="st7"><path class="st8" d="M82.91 83.27l8.32-10.39-10.38-8.32"/></g><g class="st7"><path class="st8" d="M65.93 66.61L57.6 77l10.39 8.32"/></g><path class="st8" d="M71.98 88.75l4.6-27.34m454.17 149.88l-5.17 28.35m-3.13-28.35l-5.17 28.35m-5.43-10.35h23.14m-21.97-7.67h23.13M88.73 364.16l-6.5-2.19-5.82 3.03-2 2.02-2-2.02-5.82-3.03-6.49 2.19-2.76 5.28 2.44 7.13 14.63 14.63 14.63-14.63 2.43-7.13z"/><path d="M363.96 508.2h26.54v27.01h-7.72v6.4l-7.78-6.4h-15.5V508.2h4.46z" fill="none" stroke="#fff" stroke-width="2.5" stroke-linecap="round" stroke-linejoin="round" stroke-miterlimit="10"/></svg>