<svg id="Layer_1" xmlns="http://www.w3.org/2000/svg" viewBox="0 0 600 600"><style>.st1{fill:#fff}.st2{enable-background:new}</style><path fill="#00c0e5" d="M0 0h600v600H0z"/><path class="st1" d="M360.4 149.4c-1.3 0-2.4-.3-3.4-.9-1-.6-1.8-1.5-2.4-2.5-.6-1-.8-2.2-.8-3.4 0-1.3.3-2.5.9-3.5s1.4-1.9 2.4-2.4c1-.6 2.1-.9 3.3-.9 1.3 0 2.4.3 3.4.9 1 .6 1.8 1.5 2.4 2.5.6 1 .8 2.2.8 3.4 0 1.3-.3 2.5-.9 3.5-.6 1.1-1.4 1.9-2.4 2.4-1.1.6-2.2.9-3.3.9zm0-1c1.1 0 2-.3 2.9-.8.8-.5 1.5-1.2 1.9-2.1.5-.9.7-1.9.7-2.9 0-1.1-.2-2.1-.8-3s-1.2-1.6-2-2.1-1.7-.7-2.7-.7c-1.1 0-2 .3-2.9.8-.8.5-1.5 1.2-1.9 2.1-.5.9-.7 1.9-.7 2.9 0 1.1.2 2.1.8 3s1.2 1.6 2 2.1c.8.4 1.7.7 2.7.7zm1.7-2.2l-1.8-3h-1.2v3h-1v-7.3c.8-.1 1.5-.2 2.1-.2.8 0 1.5.2 2 .6s.7.9.7 1.6c0 1.1-.5 1.8-1.6 2.1l1.9 3.1-1.1.1zm-3-3.8h1c.6 0 1-.1 1.3-.4.3-.2.5-.6.5-1.1s-.1-.8-.5-1.1c-.3-.2-.7-.4-1.3-.4-.3 0-.7 0-1.1.1l.1 2.9zm-235.7 29.9c-2.8 1.5-5.8 2.2-8.9 2.2-4.4 0-7.8-1.6-10.3-4.9-2.5-3.3-3.7-7.9-3.7-13.7s1.2-10.4 3.7-13.7c2.5-3.3 5.9-4.9 10.3-4.9 3 0 5.9.7 8.8 2.2v2.6c-1.5-.8-2.9-1.3-4.3-1.6s-2.7-.5-4.1-.5c-3.7 0-6.4 1.4-8.3 4.1s-2.8 6.7-2.8 11.9.9 9.2 2.8 11.9c1.9 2.7 4.7 4.1 8.3 4.1 2.8 0 5.7-.7 8.6-2.1l-.1 2.4zm22.9 1.5l-.2-1.8c-2.9 1.6-5.7 2.4-8.4 2.4-2.6 0-4.6-.7-6.1-2.1-1.5-1.4-2.2-3.3-2.2-5.7 0-2.6.8-4.5 2.5-5.8 1.7-1.4 4.1-2 7.4-2 2 0 4.2.2 6.7.7V156c0-4.2-2.3-6.4-7-6.4-1.2 0-2.6.2-4 .5s-2.8.8-4 1.3V149c1.2-.6 2.6-1 4.1-1.4 1.5-.3 3-.5 4.4-.5 3.1 0 5.5.8 7.1 2.3 1.6 1.5 2.4 3.7 2.4 6.6v17.4l-2.7.4zm-8-1.7c1.2 0 2.4-.2 3.8-.6s2.6-.9 3.8-1.5v-8.2c-2.1-.4-4.1-.6-6.2-.6-2.6 0-4.4.4-5.6 1.3s-1.7 2.3-1.7 4.2c0 3.6 2 5.4 5.9 5.4zm18.4 13l.9-36.9 2.5-.2.2 1.8c2.8-1.6 5.4-2.4 7.8-2.4 3.2 0 5.8 1.2 7.6 3.5 1.9 2.3 2.8 5.6 2.8 9.7 0 4.5-1.1 8-3.2 10.4-2.1 2.4-5.1 3.6-9.1 3.6-2.1 0-3.9-.3-5.7-.8l-.9 11-2.9.3zm10.9-35.3c-1.1 0-2.3.2-3.5.6s-2.4.9-3.6 1.5v19.4c1.7.5 3.5.8 5.4.8 3.2 0 5.5-.9 7.1-2.8 1.5-1.9 2.3-4.8 2.3-8.7 0-3.5-.7-6.2-2-8-1.2-1.9-3.1-2.8-5.7-2.8zm19.8-8c-.7 0-1.2-.2-1.6-.6s-.6-1-.6-1.7.2-1.3.6-1.7c.4-.4.9-.6 1.6-.6s1.2.2 1.6.6c.4.4.6 1 .6 1.7s-.2 1.3-.6 1.7c-.4.4-.9.6-1.6.6zm-1.5 31.9v-25.4l3-.4v25.8h-3zm15.8-23.3v16.3c0 1.8.4 3.1 1.1 3.9.7.8 1.9 1.2 3.4 1.2 1 0 2.1-.2 3.4-.6v2.2c-1.4.5-2.7.7-3.8.7-2.3 0-4-.6-5.2-1.9-1.2-1.3-1.8-3.2-1.8-5.7v-16.3H195V148l3.9-.1.3-6.4 2.6-.3v6.7h7.5v2.3h-7.6v.2zm29.1 23.4l-.2-1.8c-2.9 1.6-5.7 2.4-8.4 2.4-2.6 0-4.6-.7-6.1-2.1-1.5-1.4-2.2-3.3-2.2-5.7 0-2.6.8-4.5 2.5-5.8s4.1-2 7.4-2c2 0 4.2.2 6.7.7V156c0-4.2-2.3-6.4-7-6.4-1.2 0-2.6.2-4 .5-1.5.3-2.8.8-4 1.3V149c1.2-.6 2.6-1 4.1-1.4 1.5-.3 3-.5 4.4-.5 3.1 0 5.5.8 7.1 2.3 1.6 1.5 2.4 3.7 2.4 6.6v17.4l-2.7.4zm-8-1.7c1.2 0 2.4-.2 3.8-.6s2.6-.9 3.8-1.5v-8.2c-2.1-.4-4.1-.6-6.2-.6-2.6 0-4.4.4-5.6 1.3s-1.7 2.3-1.7 4.2c0 3.6 2 5.4 5.9 5.4zm19.3 1.6v-38.3l3-.4v38.7h-3zm38.3.8c-4.6 0-8.1-1.6-10.5-4.8-2.5-3.2-3.7-7.8-3.7-13.8s1.2-10.6 3.7-13.8c2.5-3.2 6-4.8 10.5-4.8s8.1 1.6 10.5 4.8c2.5 3.2 3.7 7.8 3.7 13.8s-1.2 10.6-3.7 13.8c-2.4 3.2-5.9 4.8-10.5 4.8zm0-2.6c7.3 0 10.9-5.3 10.9-16s-3.6-16-10.9-16-10.9 5.3-10.9 16 3.7 16 10.9 16zm38.9 1.8V156c0-4.2-2.1-6.3-6.2-6.3-1.1 0-2.3.2-3.6.6-1.3.4-2.6.9-3.9 1.5v21.9h-3v-25.5l2.5-.2.2 1.8c2.9-1.6 5.7-2.4 8.5-2.4 2.7 0 4.8.7 6.2 2.1 1.5 1.4 2.2 3.4 2.2 6.1v18.2l-2.9-.1zm29.3-.9c-2.3 1.1-4.7 1.7-7.4 1.7-3.8 0-6.7-1.1-8.8-3.5-2-2.3-3.1-5.6-3.1-9.9 0-4.3 1-7.6 2.9-10.1 1.9-2.4 4.6-3.7 7.9-3.7 3 0 5.3.9 7 2.8s2.6 4.5 2.6 7.7c0 1.2-.1 2.4-.3 3.5h-17.1c0 7.1 3.1 10.7 9.2 10.7 2.5 0 4.8-.5 7.1-1.6v2.4zm-8.5-23.1c-2.3 0-4.1.9-5.5 2.6-1.4 1.7-2.2 4-2.3 6.8h14.5c.1-.5.1-1 .1-1.4 0-2.5-.6-4.5-1.8-5.9-1.1-1.4-2.8-2.1-5-2.1zM102.7 252.6V203c5.2-1.1 9.9-1.6 14.2-1.6 7.6 0 13.4 2.2 17.5 6.7s6.2 10.7 6.2 18.8c0 8.3-2.1 14.6-6.2 19s-10.1 6.6-17.9 6.6h-13.8v.1zm13.7-5.8c5.6 0 9.8-1.6 12.6-4.9 2.8-3.2 4.2-8.2 4.2-14.8 0-6.8-1.4-11.8-4.1-15-2.7-3.2-6.9-4.9-12.5-4.9-2.3 0-4.7.2-7.2.6v38.9l7 .1zm42.4 5.8V202h6.8v50.6h-6.8zm62.5-2.1c-4.3 2.1-9.1 3.2-14.4 3.2-7.3 0-12.9-2.3-16.9-6.9-4-4.6-6-11.1-6-19.4 0-5.5.9-10.3 2.8-14.3s4.5-7 7.9-9c3.4-2.1 7.4-3.1 12.1-3.1 4.9 0 9.4 1.1 13.7 3.2v5.7c-4.3-2.1-8.6-3.1-13-3.1-5.3 0-9.3 1.8-12.1 5.2-2.8 3.5-4.1 8.6-4.1 15.4 0 6.8 1.4 11.9 4.1 15.4s6.9 5.2 12.2 5.2c2.5 0 4.9-.3 7.1-.9v-15.8h-5.6l.8-5.7h11.3l.1 24.9zm18.5 2.1V202h6.8v50.6h-6.8zm36.6 0v-44.8H262V202h35.7v5.8h-14.4v44.8h-6.9zm62.8 0l-4.1-12.5h-20.2l-4 12.5h-7L321 202h8.1l17.1 50.6h-7zm-22.6-17.9h16.8l-8.5-26.1-8.3 26.1zm44.4 17.9V202h6.8v44.8h22.7v5.8H361zm-258.3 78.6v-50.6h29.9v5.8h-23.1v17.4h20.2v5.8h-20.2v21.7h-6.8v-.1zm43-25.3c0-8.5 1.8-15.1 5.4-19.6 3.6-4.5 8.8-6.8 15.5-6.8s11.9 2.3 15.5 6.8 5.4 11.1 5.4 19.6-1.8 15.1-5.4 19.6c-3.6 4.5-8.8 6.8-15.5 6.8s-11.9-2.3-15.5-6.8c-3.6-4.5-5.4-11-5.4-19.6zm7.2 0c0 6.9 1.1 12.1 3.4 15.5 2.2 3.4 5.7 5.1 10.3 5.1s8.1-1.7 10.3-5.1c2.2-3.4 3.4-8.6 3.4-15.5s-1.1-12.1-3.4-15.5c-2.2-3.4-5.7-5.1-10.3-5.1-4.6 0-8.1 1.7-10.3 5.1-2.3 3.4-3.4 8.6-3.4 15.5zm80.5 25.3l-12-20h-8.9v20h-6.7v-49.5c2.2-.5 4.7-.9 7.4-1.1 2.8-.3 5.1-.4 7.1-.4 5.7 0 10.2 1.4 13.5 4.2 3.3 2.8 4.9 6.6 4.9 11.5 0 3.5-.9 6.5-2.8 9s-4.5 4.2-7.9 5.3l13.4 21.2h-8zm-13.5-45.7c-2.2 0-4.7.2-7.4.7v19.5h7.2c3.9 0 6.8-.9 8.9-2.6 2.1-1.7 3.1-4.2 3.1-7.4 0-3.3-1-5.9-3-7.6-2-1.7-4.9-2.6-8.8-2.6zm82.1 43.6c-4.3 2.1-9.1 3.2-14.4 3.2-7.3 0-12.9-2.3-16.9-6.9s-6-11.1-6-19.5c0-5.5.9-10.3 2.8-14.3s4.5-7 7.9-9 7.4-3.1 12.1-3.1c4.9 0 9.4 1.1 13.7 3.2v5.7c-4.3-2.1-8.6-3.1-13-3.1-5.3 0-9.3 1.8-12.1 5.2-2.8 3.5-4.1 8.6-4.1 15.4 0 6.8 1.4 11.9 4.1 15.4s6.9 5.2 12.2 5.2c2.5 0 4.9-.3 7.1-.9v-15.8h-5.6l.8-5.7H302v25zm16.1-23.2c0-8.5 1.8-15.1 5.4-19.6 3.6-4.5 8.8-6.8 15.5-6.8s11.9 2.3 15.5 6.8 5.4 11.1 5.4 19.6-1.8 15.1-5.4 19.6c-3.6 4.5-8.8 6.8-15.5 6.8s-11.9-2.3-15.5-6.8c-3.6-4.5-5.4-11-5.4-19.6zm7.3 0c0 6.9 1.1 12.1 3.4 15.5 2.2 3.4 5.7 5.1 10.3 5.1s8.1-1.7 10.3-5.1c2.2-3.4 3.4-8.6 3.4-15.5s-1.1-12.1-3.4-15.5-5.7-5.1-10.3-5.1c-4.6 0-8.1 1.7-10.3 5.1-2.3 3.4-3.4 8.6-3.4 15.5zm50.6 0c0-8.5 1.8-15.1 5.4-19.6s8.8-6.8 15.5-6.8 11.9 2.3 15.5 6.8 5.4 11.1 5.4 19.6-1.8 15.1-5.4 19.6c-3.6 4.5-8.8 6.8-15.5 6.8s-11.9-2.3-15.5-6.8c-3.6-4.5-5.4-11-5.4-19.6zm7.2 0c0 6.9 1.1 12.1 3.4 15.5 2.2 3.4 5.7 5.1 10.3 5.1s8.1-1.7 10.3-5.1c2.2-3.4 3.4-8.6 3.4-15.5s-1.1-12.1-3.4-15.5-5.7-5.1-10.3-5.1c-4.6 0-8.1 1.7-10.3 5.1-2.3 3.4-3.4 8.6-3.4 15.5zm52.9 25.3v-49.5c5.2-1.1 9.9-1.6 14.2-1.6 7.5 0 13.4 2.2 17.5 6.7s6.2 10.7 6.2 18.8c0 8.3-2.1 14.6-6.2 19s-10.1 6.6-17.9 6.6h-13.8zm13.7-5.7c5.6 0 9.9-1.6 12.6-4.9s4.2-8.2 4.2-14.8c0-6.8-1.4-11.8-4.1-15-2.7-3.2-6.9-4.9-12.5-4.9-2.3 0-4.6.2-7.2.6v38.9l7 .1zm33.7-32v-9.7h-3.2v-1.1h7.6v1.1h-3.2v9.7h-1.2zm15.3 0l-.6-8.8-3 7.7h-1.1l-3-7.7-.5 8.8h-1.2l.8-10.8h1.5l3.1 8.1 3.1-8.1h1.4l.8 10.8h-1.3zM100 386.9c3.6 1.6 7.1 2.4 10.3 2.4 3.1 0 5.4-.7 7.1-2.1 1.7-1.4 2.5-3.4 2.5-6 0-2-.6-3.6-1.7-4.8-1.1-1.2-3-2.2-5.5-3l-3.7-1.2c-2.8-.9-4.9-2-6.2-3.5-1.3-1.4-2-3.3-2-5.5 0-3 1.1-5.4 3.3-7.3 2.2-1.8 5.2-2.7 8.9-2.7 3 0 5.9.7 8.7 2v2.7c-3-1.3-5.8-1.9-8.6-1.9s-5.1.6-6.6 1.9-2.4 3-2.4 5.3c0 1.6.4 2.9 1.3 3.8s2.5 1.8 4.7 2.5l3.7 1.2c3.3 1.1 5.7 2.5 7.1 4.1s2.2 3.8 2.2 6.4c0 3.4-1.2 6-3.4 8-2.3 2-5.4 2.9-9.4 2.9-3.7 0-7-.8-9.9-2.3l-.4-2.9zm64.1-32.8h3.2v24.8c0 4.3-1.1 7.5-3.2 9.8-2.2 2.2-5.3 3.4-9.3 3.4-4.1 0-7.2-1.1-9.4-3.4s-3.2-5.5-3.2-9.8v-24.8h3.3V379c0 6.9 3.1 10.4 9.3 10.4 3.1 0 5.5-.9 7-2.5 1.6-1.7 2.3-4.3 2.3-7.8v-25zm56.3 37.2l-2-32.8-11.3 29.5h-3l-11.4-29.6-1.9 32.8h-3.1l2.5-37.2h3.8l11.6 30.2 11.7-30.2h3.8l2.5 37.2-3.2.1zm55.4 0l-2-32.8-11.4 29.5h-3L248 358.5l-1.9 32.8H243l2.5-37.2h3.8l11.6 30.2 11.7-30.2h3.8l2.5 37.2h-3.1zm23.8 0v-37.2h3.3v37.2h-3.3zm31.7 0v-34.5h-10.9v-2.7h25.1v2.7h-10.9v34.5h-3.3z"/><g class="st2"><path class="st1" d="M115 431.4h1.7V451H115l-10.5-16.7V451h-1.7v-19.6h1.7l10.5 16.7v-16.7zm12 20.1c-2 0-3.6-.6-4.6-1.9-1-1.3-1.6-3.1-1.6-5.6 0-2.4.5-4.3 1.6-5.6 1-1.3 2.6-1.9 4.6-1.9s3.6.6 4.6 1.9c1 1.3 1.6 3.1 1.6 5.6 0 2.5-.5 4.3-1.6 5.6-1 1.2-2.5 1.9-4.6 1.9zm0-1.4c1.5 0 2.6-.5 3.3-1.5.7-1 1-2.5 1-4.7 0-2.1-.4-3.7-1-4.6-.7-1-1.8-1.5-3.3-1.5-1.5 0-2.6.5-3.3 1.5-.7 1-1.1 2.5-1.1 4.6 0 2.1.4 3.7 1.1 4.7.7 1 1.8 1.5 3.3 1.5zm12.9.9l-5.3-14.1h1.8l4.4 12.3 4.5-12.3h1.7l-5.4 14.1h-1.7zm19.3-.5c-1.3.6-2.7.9-4.1.9-2.1 0-3.8-.6-5-1.9-1.2-1.3-1.7-3.1-1.7-5.5s.5-4.2 1.6-5.5c1.1-1.3 2.6-2 4.5-2 1.7 0 3 .5 3.9 1.6s1.4 2.5 1.4 4.2c0 .7-.1 1.3-.2 1.9H150c0 3.9 1.7 5.9 5.2 5.9 1.4 0 2.7-.3 4-.9v1.3zm-4.8-12.6c-1.3 0-2.3.5-3.1 1.4-.8.9-1.2 2.2-1.3 3.8h8.2c0-.3.1-.6.1-.8 0-1.4-.3-2.5-1-3.2-.8-.9-1.7-1.2-2.9-1.2zm26 13.1v-10c0-2.1-1-3.2-3-3.2-1.2 0-2.5.4-4 1.3.1.5.2 1 .2 1.6V451H172v-10c0-2.1-1-3.2-3-3.2-1.1 0-2.4.4-3.8 1.1v12h-1.7v-14l1.4-.1.1 1c1.6-.9 3-1.3 4.3-1.3 1.6 0 2.8.5 3.6 1.6 1.8-1.1 3.4-1.6 4.9-1.6 1.4 0 2.4.4 3.2 1.1.7.7 1.1 1.8 1.1 3.1V451h-1.7zm7.9-13.2c.7-.4 1.4-.7 2.2-.9.7-.2 1.4-.3 2.1-.3 1.8 0 3.3.6 4.3 1.9s1.6 3 1.6 5.3c0 2.5-.6 4.4-1.8 5.7-1.2 1.3-2.9 2-5.1 2-1.6 0-3.2-.3-4.9-.8V430l1.7-.2v8zm4 .1c-.6 0-1.3.1-2 .3-.7.2-1.4.5-2 .8v10.6c1 .3 2 .4 3.1.4 1.8 0 3.1-.5 4-1.6.9-1 1.3-2.6 1.3-4.8 0-1.9-.4-3.4-1.1-4.4-.8-.8-1.9-1.3-3.3-1.3zm19.8 12.6c-1.3.6-2.7.9-4.1.9-2.1 0-3.8-.6-5-1.9-1.2-1.3-1.7-3.1-1.7-5.5s.5-4.2 1.6-5.5c1.1-1.3 2.6-2 4.5-2 1.7 0 3 .5 3.9 1.6s1.4 2.5 1.4 4.2c0 .7-.1 1.3-.2 1.9h-9.6c0 3.9 1.7 5.9 5.2 5.9 1.4 0 2.7-.3 4-.9v1.3zm-4.8-12.6c-1.3 0-2.3.5-3.1 1.4-.8.9-1.2 2.2-1.3 3.8h8.2c0-.3.1-.6.1-.8 0-1.4-.3-2.5-1-3.2-.8-.9-1.7-1.2-2.9-1.2zm9.1 13.1v-14l1.4-.1.1 1.3c1.3-1 2.6-1.5 4-1.5.5 0 .9.1 1.2.2v1.4c-.5-.1-.9-.2-1.3-.2-1.3 0-2.6.5-3.8 1.4V451h-1.6zm19.9 0v-17.4l-4.8 3.2-.4-1.4 5.5-3.6h1.4V451h-1.7zm6-5.1c0-1.2.4-2.3 1.1-3.2s1.7-1.5 3.1-1.8c-1.1-.3-2-.9-2.6-1.7-.6-.8-.9-1.7-.9-2.8 0-1 .3-1.9.8-2.7.5-.8 1.2-1.4 2.1-1.8.9-.4 1.9-.6 3.1-.6 1.2 0 2.3.2 3.2.7.9.4 1.6 1 2.1 1.8s.7 1.6.7 2.6c0 1.1-.3 2-.9 2.8-.6.8-1.5 1.3-2.6 1.7 1.3.3 2.3.9 3.1 1.8s1.1 1.9 1.1 3.2c0 1.7-.6 3-1.8 4s-2.8 1.5-4.8 1.5-3.6-.5-4.8-1.5c-1.4-1-2-2.3-2-4zm6.5 4.2c1.5 0 2.7-.4 3.5-1.1.9-.8 1.3-1.8 1.3-3.1s-.4-2.3-1.3-3.1c-.9-.7-2-1.1-3.6-1.1-1.5 0-2.7.4-3.6 1.1-.9.7-1.3 1.8-1.3 3.1s.4 2.3 1.3 3.1c1.1.7 2.3 1.1 3.7 1.1zm0-9.7c1.3 0 2.4-.3 3.2-1 .8-.7 1.1-1.6 1.1-2.8 0-1.2-.4-2.1-1.1-2.8-.8-.7-1.8-1-3.2-1-1.3 0-2.4.3-3.2 1-.8.7-1.1 1.6-1.1 2.8 0 1.2.4 2.1 1.1 2.8.8.6 1.9 1 3.2 1zm8.9 14.9c.5-.7.9-1.3 1.2-2.1.3-.7.5-1.4.5-2.1-.3-.1-.5-.2-.6-.4s-.2-.5-.2-.8c0-.4.1-.7.4-.9.2-.2.6-.3.9-.3.4 0 .7.1 1 .4.2.3.3.7.3 1.2 0 .8-.3 1.8-.8 2.8-.5 1-1.2 1.9-2 2.6l-.7-.4zm12.7-4.3c.1-1.7.5-3.2 1.3-4.5.7-1.3 1.9-2.6 3.4-3.9l2.5-2c1-.8 1.7-1.6 2.1-2.2.4-.6.6-1.2.6-2 0-1.1-.4-2-1.2-2.7-.8-.7-1.9-1-3.2-1-.9 0-1.7.1-2.5.4-.8.3-1.6.7-2.5 1.3V433c1.6-1.1 3.4-1.7 5.3-1.7 1.7 0 3.1.5 4.1 1.4 1.1.9 1.6 2.1 1.6 3.6 0 .6-.1 1.2-.3 1.7-.2.5-.5 1.1-1 1.6s-1.1 1.2-2 1.9l-2.4 2c-1.2 1-2.1 2-2.8 3s-1.1 2-1.2 3.1h7.8c1 0 1.8 0 2.4-.1v1.5h-12zm21.6.5c-2.2 0-3.9-.8-5-2.5s-1.7-4.2-1.7-7.5.6-5.8 1.7-7.5c1.1-1.7 2.8-2.5 5-2.5s3.9.8 5 2.5 1.7 4.2 1.7 7.5-.6 5.8-1.7 7.5c-1.1 1.6-2.8 2.5-5 2.5zm0-1.4c1.7 0 2.9-.7 3.8-2.1.8-1.4 1.2-3.6 1.2-6.5s-.4-5.1-1.2-6.5c-.8-1.4-2.1-2.1-3.8-2.1-1.7 0-2.9.7-3.8 2.1-.8 1.4-1.2 3.6-1.2 6.5s.4 5.1 1.2 6.5c.8 1.4 2.1 2.1 3.8 2.1zm14 .9v-17.4l-4.8 3.2-.4-1.4 5.5-3.6h1.4V451H306zm6.7-.9c3.1-.1 5.6-.9 7.4-2.5 1.8-1.6 2.7-3.7 2.9-6.5-.5.8-1.3 1.4-2.3 1.9-1 .5-2.1.7-3.1.7-1.1 0-2.2-.3-3-.8-.9-.5-1.6-1.3-2-2.2-.5-.9-.7-1.9-.7-3 0-1.2.3-2.3.8-3.3.6-.9 1.3-1.7 2.3-2.2 1-.5 2-.8 3.2-.8 2.1 0 3.7.7 4.9 2.2 1.2 1.5 1.8 3.5 1.8 6.2 0 3.5-1 6.2-3 8.3-2 2-4.8 3.2-8.4 3.3l-.8-1.3zm5.1-7.7c1 0 2-.3 3-.8s1.7-1.2 2.2-2.1c0-2.1-.5-3.8-1.3-4.9-.9-1.1-2.1-1.7-3.6-1.7-1.4 0-2.5.4-3.3 1.3-.8.9-1.2 2.1-1.2 3.5s.4 2.6 1.2 3.4c.6.8 1.6 1.3 3 1.3z"/></g><g class="st2"><path class="st1" d="M114.4 493l-1.8-5.3h-8.7l-1.8 5.3h-1.8l6.9-19.6h2l7 19.6h-1.8zm-10.1-6.6h7.8l-3.9-11.3-3.9 11.3zm14.5 6.6v-14l1.4-.1.1 1.3c1.3-1 2.6-1.5 4-1.5.5 0 .9.1 1.2.2v1.4c-.5-.1-.9-.2-1.3-.2-1.3 0-2.6.5-3.8 1.4V493h-1.6zm18.7-.5c-1.2.6-2.6.9-4 .9-2 0-3.5-.6-4.6-1.9-1.1-1.3-1.6-3.1-1.6-5.5s.5-4.2 1.6-5.5c1.1-1.3 2.6-1.9 4.6-1.9 1.4 0 2.7.3 4 .9v1.3c-1.3-.6-2.6-.9-3.8-.9-1.5 0-2.7.5-3.4 1.5-.8 1-1.2 2.5-1.2 4.6 0 2 .4 3.5 1.2 4.5.8 1 1.9 1.5 3.4 1.5 1.3 0 2.6-.3 3.9-.9v1.4zm12.2.6l-.1-1c-1.6.9-3.2 1.3-4.8 1.3-1.4 0-2.6-.4-3.4-1.1s-1.3-1.8-1.3-3.1c0-1.4.5-2.5 1.4-3.2s2.3-1.1 4.2-1.1c1.1 0 2.4.1 3.8.4v-1.9c0-2.3-1.3-3.5-3.9-3.5-.7 0-1.4.1-2.3.3-.8.2-1.6.4-2.3.7v-1.3c.7-.3 1.4-.6 2.3-.8.9-.2 1.7-.3 2.5-.3 1.8 0 3.1.4 4 1.2.9.8 1.4 2 1.4 3.6v9.6l-1.5.2zm-4.5-1c.7 0 1.4-.1 2.1-.3.7-.2 1.5-.5 2.1-.8v-4.5c-1.2-.2-2.3-.3-3.5-.3-1.4 0-2.5.2-3.1.7-.7.5-1 1.3-1 2.3.1 1.9 1.2 2.9 3.4 2.9zm21.3-20.3V493l-1.4.1-.1-1c-1.6.9-3 1.3-4.4 1.3-1.8 0-3.3-.6-4.3-1.9-1-1.3-1.6-3-1.6-5.3 0-2.5.6-4.4 1.8-5.7 1.2-1.3 2.9-2 5.1-2 1.2 0 2.2.1 3.2.4v-7l1.7-.1zm-5.7 20.3c.6 0 1.3-.1 2-.3.7-.2 1.4-.5 2-.8v-10.6c-1-.3-2-.4-3.1-.4-1.8 0-3.1.5-4 1.6-.9 1-1.3 2.6-1.3 4.8 0 1.9.4 3.4 1.1 4.4.8.8 1.9 1.3 3.3 1.3zm11.2-16.6c-.4 0-.7-.1-.9-.3-.2-.2-.4-.5-.4-.9s.1-.7.4-.9c.2-.2.5-.3.9-.3s.7.1.9.3c.2.2.4.5.4.9s-.1.7-.4.9c-.2.2-.5.3-.9.3zm-.8 17.5v-13.9l1.7-.2V493h-1.7zm15 .1l-.1-1c-1.6.9-3.2 1.3-4.8 1.3-1.4 0-2.6-.4-3.4-1.1s-1.3-1.8-1.3-3.1c0-1.4.5-2.5 1.4-3.2s2.3-1.1 4.2-1.1c1.1 0 2.4.1 3.8.4v-1.9c0-2.3-1.3-3.5-3.9-3.5-.7 0-1.4.1-2.3.3-.8.2-1.6.4-2.3.7v-1.3c.7-.3 1.4-.6 2.3-.8.9-.2 1.7-.3 2.5-.3 1.8 0 3.1.4 4 1.2.9.8 1.4 2 1.4 3.6v9.6l-1.5.2zm-4.5-1c.7 0 1.4-.1 2.1-.3.7-.2 1.5-.5 2.1-.8v-4.5c-1.2-.2-2.3-.3-3.5-.3-1.4 0-2.5.2-3.1.7-.7.5-1 1.3-1 2.3.1 1.9 1.2 2.9 3.4 2.9zm19.8.9v-9.7c0-2.3-1.2-3.4-3.5-3.4-.6 0-1.3.1-2 .3-.7.2-1.5.5-2.2.8v12h-1.7v-14l1.4-.1.1 1c1.6-.9 3.2-1.3 4.8-1.3 1.5 0 2.7.4 3.5 1.2.8.8 1.2 1.9 1.2 3.3v10h-1.6zm13.6 0v-19.6h1.8v18.2h9.4v1.4h-11.2zm19.2.5c-2 0-3.6-.6-4.6-1.9-1-1.3-1.6-3.1-1.6-5.6 0-2.4.5-4.3 1.6-5.6 1-1.3 2.6-1.9 4.6-1.9s3.6.6 4.6 1.9c1 1.3 1.6 3.1 1.6 5.6 0 2.5-.5 4.3-1.6 5.6-1 1.2-2.5 1.9-4.6 1.9zm0-1.4c1.5 0 2.6-.5 3.3-1.5.7-1 1-2.5 1-4.7 0-2.1-.4-3.7-1-4.6-.7-1-1.8-1.5-3.3-1.5-1.5 0-2.6.5-3.3 1.5-.7 1-1.1 2.5-1.1 4.6 0 2.1.4 3.7 1.1 4.7.7 1 1.8 1.5 3.3 1.5zm10.4.9v-12.8h-2.1V479l2.1-.1v-3.2c0-1.4.3-2.4 1-3.2.7-.7 1.7-1.1 3-1.1.6 0 1.1.1 1.7.2v1.3c-.5-.1-1-.2-1.4-.2-.9 0-1.5.2-1.9.7-.4.5-.6 1.2-.6 2.1v3.3h6.6l.2-3.5 1.5-.2v3.7h4.2v1.3h-4.2v9c0 1 .2 1.7.6 2.1.4.5 1 .7 1.9.7.6 0 1.2-.1 1.9-.3v1.2c-.8.3-1.5.4-2.2.4-1.3 0-2.3-.3-2.9-1-.7-.7-1-1.7-1-3.1v-8.9h-6.5V493h-1.9zm15.6 4.3c.5-.7.9-1.3 1.2-2.1.3-.7.5-1.4.5-2.1-.3-.1-.5-.2-.6-.4s-.2-.5-.2-.8c0-.4.1-.7.4-.9.2-.2.6-.3.9-.3.4 0 .7.1 1 .4.2.3.3.7.3 1.2 0 .8-.3 1.8-.8 2.8-.5 1-1.2 1.9-2 2.6l-.7-.4zm18.3-4.3v-18.2h-5.9v-1.4h13.6v1.4h-5.9V493h-1.8zm14 .5c-2 0-3.6-.6-4.6-1.9-1-1.3-1.6-3.1-1.6-5.6 0-2.4.5-4.3 1.6-5.6 1-1.3 2.6-1.9 4.6-1.9s3.6.6 4.6 1.9c1 1.3 1.6 3.1 1.6 5.6 0 2.5-.5 4.3-1.6 5.6-1 1.2-2.6 1.9-4.6 1.9zm0-1.4c1.5 0 2.6-.5 3.3-1.5.7-1 1-2.5 1-4.7 0-2.1-.4-3.7-1-4.6-.7-1-1.8-1.5-3.3-1.5-1.5 0-2.6.5-3.3 1.5-.7 1-1.1 2.5-1.1 4.6 0 2.1.4 3.7 1.1 4.7.7 1 1.8 1.5 3.3 1.5zm10 .9v-14l1.4-.1.1 1.3c1.3-1 2.6-1.5 4-1.5.5 0 .9.1 1.2.2v1.4c-.5-.1-.9-.2-1.3-.2-1.3 0-2.6.5-3.8 1.4V493h-1.6zm14.5.5c-2 0-3.6-.6-4.6-1.9-1-1.3-1.6-3.1-1.6-5.6 0-2.4.5-4.3 1.6-5.6 1-1.3 2.6-1.9 4.6-1.9 2 0 3.6.6 4.6 1.9 1 1.3 1.6 3.1 1.6 5.6 0 2.5-.5 4.3-1.6 5.6-1 1.2-2.5 1.9-4.6 1.9zm0-1.4c1.5 0 2.6-.5 3.3-1.5.7-1 1-2.5 1-4.7 0-2.1-.3-3.7-1-4.6-.7-1-1.8-1.5-3.3-1.5-1.5 0-2.6.5-3.3 1.5-.7 1-1.1 2.5-1.1 4.6 0 2.1.4 3.7 1.1 4.7.7 1 1.8 1.5 3.3 1.5zm19.4.9v-9.7c0-2.3-1.2-3.4-3.5-3.4-.6 0-1.3.1-2 .3-.7.2-1.5.5-2.2.8v12h-1.7v-14l1.4-.1.1 1c1.6-.9 3.2-1.3 4.8-1.3 1.5 0 2.7.4 3.5 1.2.8.8 1.2 1.9 1.2 3.3v10h-1.6zm8.2-12.7v9c0 1 .2 1.7.6 2.1.4.5 1 .7 1.9.7.6 0 1.2-.1 1.9-.3v1.2c-.8.3-1.5.4-2.2.4-1.3 0-2.3-.3-2.9-1s-1-1.7-1-3.1v-8.9h-2.1V479l2.2-.1.2-3.5 1.5-.2v3.7h4.2v1.3h-4.3zm12.6 13.2c-2 0-3.6-.6-4.6-1.9-1-1.3-1.6-3.1-1.6-5.6 0-2.4.5-4.3 1.6-5.6 1-1.3 2.6-1.9 4.6-1.9 2 0 3.6.6 4.6 1.9 1 1.3 1.6 3.1 1.6 5.6 0 2.5-.5 4.3-1.6 5.6-1 1.2-2.6 1.9-4.6 1.9zm0-1.4c1.5 0 2.6-.5 3.3-1.5.7-1 1-2.5 1-4.7 0-2.1-.3-3.7-1-4.6-.7-1-1.8-1.5-3.3-1.5-1.5 0-2.6.5-3.3 1.5-.7 1-1.1 2.5-1.1 4.6 0 2.1.4 3.7 1.1 4.7.6 1 1.8 1.5 3.3 1.5zm7.8 5.2c.5-.7.9-1.3 1.2-2.1.3-.7.5-1.4.5-2.1-.3-.1-.5-.2-.6-.4s-.2-.5-.2-.8c0-.4.1-.7.4-.9.2-.2.5-.3.9-.3s.7.1 1 .4c.2.3.3.7.3 1.2 0 .8-.3 1.8-.8 2.8-.5 1-1.2 1.9-2 2.6l-.7-.4zm26.7-5c-1.6.8-3.3 1.2-5 1.2-2.5 0-4.4-.9-5.8-2.7-1.4-1.8-2.1-4.3-2.1-7.5s.7-5.7 2.1-7.5c1.4-1.8 3.3-2.7 5.8-2.7 1.7 0 3.4.4 5 1.2v1.4c-.9-.4-1.7-.7-2.4-.9-.7-.2-1.5-.3-2.3-.3-2.1 0-3.6.7-4.7 2.2s-1.6 3.7-1.6 6.5.5 5.1 1.6 6.5c1.1 1.5 2.6 2.2 4.7 2.2 1.6 0 3.2-.4 4.8-1.2v1.6zm12.4.8l-.1-1c-1.6.9-3.2 1.3-4.8 1.3-1.4 0-2.6-.4-3.4-1.1s-1.3-1.8-1.3-3.1c0-1.4.5-2.5 1.4-3.2s2.3-1.1 4.2-1.1c1.1 0 2.4.1 3.8.4v-1.9c0-2.3-1.3-3.5-3.9-3.5-.7 0-1.4.1-2.3.3s-1.6.4-2.3.7v-1.3c.7-.3 1.4-.6 2.3-.8s1.7-.3 2.5-.3c1.8 0 3.1.4 4 1.2.9.8 1.4 2 1.4 3.6v9.6l-1.5.2zm-4.4-1c.7 0 1.4-.1 2.1-.3.7-.2 1.5-.5 2.1-.8v-4.5c-1.2-.2-2.3-.3-3.5-.3-1.4 0-2.5.2-3.1.7-.7.5-1 1.3-1 2.3 0 1.9 1.1 2.9 3.4 2.9zm19.8.9v-9.7c0-2.3-1.2-3.4-3.5-3.4-.6 0-1.3.1-2 .3-.7.2-1.5.5-2.2.8v12h-1.7v-14l1.4-.1.1 1c1.6-.9 3.2-1.3 4.8-1.3 1.5 0 2.7.4 3.5 1.2s1.2 1.9 1.2 3.3v10h-1.6zm14.8.1l-.1-1c-1.6.9-3.2 1.3-4.8 1.3-1.4 0-2.6-.4-3.4-1.1s-1.3-1.8-1.3-3.1c0-1.4.5-2.5 1.4-3.2s2.3-1.1 4.2-1.1c1.1 0 2.4.1 3.8.4v-1.9c0-2.3-1.3-3.5-3.9-3.5-.7 0-1.4.1-2.3.3-.8.2-1.6.4-2.3.7v-1.3c.7-.3 1.4-.6 2.3-.8.9-.2 1.7-.3 2.5-.3 1.8 0 3.1.4 4 1.2.9.8 1.4 2 1.4 3.6v9.6l-1.5.2zm-4.5-1c.7 0 1.4-.1 2.1-.3.7-.2 1.5-.5 2.1-.8v-4.5c-1.2-.2-2.3-.3-3.5-.3-1.4 0-2.5.2-3.1.7s-1 1.3-1 2.3c.1 1.9 1.2 2.9 3.4 2.9zm21.3-20.3V493l-1.4.1-.1-1c-1.6.9-3 1.3-4.4 1.3-1.8 0-3.3-.6-4.3-1.9-1-1.3-1.6-3-1.6-5.3 0-2.5.6-4.4 1.8-5.7s2.9-2 5.1-2c1.2 0 2.2.1 3.2.4v-7l1.7-.1zm-5.7 20.3c.6 0 1.3-.1 2-.3.7-.2 1.4-.5 2-.8v-10.6c-1-.3-2-.4-3.1-.4-1.8 0-3.1.5-4 1.6-.9 1-1.3 2.6-1.3 4.8 0 1.9.4 3.4 1.1 4.4.8.8 1.9 1.3 3.3 1.3zm19 1l-.1-1c-1.6.9-3.2 1.3-4.8 1.3-1.4 0-2.6-.4-3.4-1.1s-1.3-1.8-1.3-3.1c0-1.4.5-2.5 1.4-3.2s2.3-1.1 4.2-1.1c1.1 0 2.4.1 3.8.4v-1.9c0-2.3-1.3-3.5-3.9-3.5-.7 0-1.4.1-2.3.3-.8.2-1.6.4-2.3.7v-1.3c.7-.3 1.4-.6 2.3-.8.9-.2 1.7-.3 2.5-.3 1.8 0 3.1.4 4 1.2.9.8 1.4 2 1.4 3.6v9.6l-1.5.2zm-4.5-1c.7 0 1.4-.1 2.1-.3.7-.2 1.5-.5 2.1-.8v-4.5c-1.2-.2-2.3-.3-3.5-.3-1.4 0-2.5.2-3.1.7s-1 1.3-1 2.3c.1 1.9 1.2 2.9 3.4 2.9z"/></g></svg>