<svg id="Layer_1" xmlns="http://www.w3.org/2000/svg" viewBox="0 0 600 600"><style>.st1{fill:#fff}.st2{enable-background:new}</style><path fill="#e31a52" d="M0 0h600v600H0z"/><path class="st1" d="M359.9 149.4c-1.3 0-2.4-.3-3.4-.9-1-.6-1.8-1.5-2.4-2.5s-.8-2.2-.8-3.4c0-1.3.3-2.5.9-3.5.6-1.1 1.4-1.9 2.4-2.4 1-.6 2.1-.9 3.3-.9 1.3 0 2.4.3 3.4.9 1 .6 1.8 1.5 2.4 2.5s.8 2.2.8 3.4c0 1.3-.3 2.5-.9 3.5-.6 1.1-1.4 1.9-2.4 2.4-1 .6-2.1.9-3.3.9zm0-1c1.1 0 2-.3 2.8-.8.8-.5 1.5-1.2 1.9-2.1.5-.9.7-1.8.7-2.9 0-1.1-.2-2.1-.8-3-.5-.9-1.2-1.6-2-2.1s-1.7-.7-2.7-.7c-1.1 0-2 .3-2.8.8-.8.5-1.5 1.2-1.9 2.1-.5.9-.7 1.8-.7 2.9 0 1.1.2 2.1.8 3 .5.9 1.2 1.6 2 2.1.8.4 1.8.7 2.7.7zm1.8-2.2l-1.8-3h-1.2v3h-1v-7.3c.8-.1 1.5-.2 2.1-.2.8 0 1.5.2 2 .6.5.4.7.9.7 1.6 0 1.1-.5 1.8-1.6 2.1l1.9 3.1-1.1.1zm-3.1-3.8h1c.6 0 1-.1 1.3-.4.3-.2.5-.6.5-1.1s-.1-.8-.5-1.1c-.3-.2-.7-.4-1.3-.4-.3 0-.7 0-1.1.1l.1 2.9zm-234.9 29.8c-2.8 1.5-5.8 2.2-8.9 2.2-4.4 0-7.8-1.6-10.3-4.9-2.5-3.3-3.7-7.8-3.7-13.7 0-5.8 1.2-10.4 3.7-13.7 2.5-3.3 5.9-4.9 10.3-4.9 3 0 5.9.7 8.8 2.2v2.6c-1.5-.8-2.9-1.3-4.3-1.6-1.3-.3-2.7-.5-4.1-.5-3.7 0-6.4 1.4-8.3 4-1.9 2.7-2.8 6.7-2.8 11.9s.9 9.2 2.8 11.9 4.6 4 8.3 4c2.8 0 5.7-.7 8.5-2.1v2.6zm22.8 1.5l-.2-1.8c-2.8 1.6-5.6 2.4-8.4 2.4-2.5 0-4.6-.7-6.1-2.1-1.5-1.4-2.2-3.3-2.2-5.7 0-2.5.8-4.5 2.5-5.8 1.7-1.3 4.1-2 7.4-2 1.9 0 4.2.2 6.6.7v-3.5c0-4.2-2.3-6.4-7-6.4-1.2 0-2.6.2-4 .5s-2.8.8-4 1.3v-2.4c1.2-.6 2.6-1 4.1-1.4 1.5-.3 3-.5 4.4-.5 3.1 0 5.5.8 7.1 2.3 1.6 1.5 2.4 3.7 2.4 6.5v17.4l-2.6.5zm-7.9-1.8c1.2 0 2.4-.2 3.8-.6 1.3-.4 2.6-.9 3.8-1.5v-8.1c-2.1-.4-4.1-.6-6.1-.6-2.6 0-4.4.4-5.6 1.3-1.2.9-1.7 2.3-1.7 4.2-.1 3.5 1.8 5.3 5.8 5.3zm19.1 13.1v-36.8l2.5-.2.2 1.8c2.8-1.6 5.4-2.4 7.7-2.4 3.2 0 5.8 1.2 7.6 3.5 1.9 2.3 2.8 5.5 2.8 9.6 0 4.5-1.1 8-3.1 10.4-2.1 2.4-5.1 3.6-9.1 3.6-2.1 0-3.9-.3-5.6-.8v11l-3 .3zm10.1-35.3c-1.1 0-2.3.2-3.5.6-1.2.4-2.4.9-3.6 1.5v19.3c1.7.5 3.5.8 5.4.8 3.2 0 5.5-.9 7.1-2.8 1.5-1.9 2.3-4.8 2.3-8.7 0-3.5-.7-6.2-2-8-1.3-1.8-3.2-2.7-5.7-2.7zm19.7-7.9c-.7 0-1.2-.2-1.6-.6-.4-.4-.6-1-.6-1.7s.2-1.3.6-1.7c.4-.4.9-.6 1.6-.6s1.2.2 1.6.6.6 1 .6 1.7-.2 1.3-.6 1.7-.9.6-1.6.6zm-1.5 31.8v-25.3l3-.4v25.7h-3zm15.8-23.2v16.3c0 1.8.4 3.1 1.1 3.9.7.8 1.9 1.2 3.4 1.2 1 0 2.1-.2 3.4-.6v2.2c-1.4.5-2.7.7-3.8.7-2.3 0-4-.6-5.2-1.9s-1.8-3.2-1.8-5.7v-16.2H195v-2.2l3.9-.2.3-6.4 2.6-.3v6.7h7.5v2.3h-7.5v.2zm28.9 23.3l-.2-1.8c-2.8 1.6-5.6 2.4-8.4 2.4-2.5 0-4.6-.7-6.1-2.1-1.5-1.4-2.2-3.3-2.2-5.7 0-2.5.8-4.5 2.5-5.8 1.7-1.3 4.1-2 7.4-2 1.9 0 4.2.2 6.6.7v-3.5c0-4.2-2.3-6.4-7-6.4-1.2 0-2.6.2-4 .5s-2.8.8-4 1.3v-2.4c1.2-.6 2.6-1 4.1-1.4 1.5-.3 3-.5 4.4-.5 3.1 0 5.5.8 7.1 2.3 1.6 1.5 2.4 3.7 2.4 6.5v17.4l-2.6.5zm-7.9-1.8c1.2 0 2.4-.2 3.8-.6 1.3-.4 2.6-.9 3.8-1.5v-8.1c-2.1-.4-4.1-.6-6.1-.6-2.6 0-4.4.4-5.6 1.3-1.2.9-1.7 2.3-1.7 4.2-.1 3.5 1.9 5.3 5.8 5.3zm19.2 1.7v-38.2l3-.4v38.6h-3zm38.2.8c-4.6 0-8.1-1.6-10.5-4.8s-3.7-7.8-3.7-13.7 1.2-10.5 3.7-13.7 5.9-4.8 10.5-4.8 8.1 1.6 10.5 4.8c2.4 3.2 3.7 7.8 3.7 13.7s-1.2 10.5-3.7 13.7-5.9 4.8-10.5 4.8zm0-2.6c7.3 0 10.9-5.3 10.9-16s-3.6-16-10.9-16-10.9 5.3-10.9 16c.1 10.7 3.7 16 10.9 16zm38.8 1.8V156c0-4.2-2.1-6.3-6.2-6.3-1.1 0-2.3.2-3.6.6-1.3.4-2.6.9-3.9 1.5v21.8h-3v-25.4l2.5-.2.2 1.8c2.9-1.6 5.7-2.4 8.4-2.4s4.8.7 6.2 2.1c1.5 1.4 2.2 3.4 2.2 6.1v18.2l-2.8-.2zm29.2-.9c-2.3 1.1-4.7 1.7-7.3 1.7-3.8 0-6.7-1.2-8.8-3.5s-3.1-5.6-3.1-9.9c0-4.3 1-7.6 2.9-10.1s4.5-3.7 7.9-3.7c2.9 0 5.3.9 7 2.8 1.7 1.9 2.5 4.4 2.5 7.7 0 1.2-.1 2.4-.3 3.5h-17c0 7.1 3.1 10.6 9.2 10.6 2.4 0 4.8-.5 7.1-1.6v2.5h-.1zm-8.4-23.1c-2.2 0-4.1.9-5.5 2.5-1.4 1.7-2.2 4-2.3 6.8h14.5c.1-.5.1-1 .1-1.4 0-2.5-.6-4.5-1.8-5.9-1.2-1.2-2.9-2-5-2zM103.9 252.2v-49.4c5.2-1.1 9.8-1.6 14.1-1.6 7.5 0 13.3 2.2 17.5 6.7 4.1 4.4 6.1 10.7 6.1 18.8 0 8.3-2.1 14.6-6.2 18.9s-10.1 6.6-17.8 6.6h-13.7zm13.7-5.8c5.6 0 9.8-1.6 12.6-4.9 2.8-3.2 4.2-8.2 4.2-14.7 0-6.7-1.4-11.7-4.1-14.9-2.7-3.2-6.9-4.9-12.4-4.9-2.2 0-4.6.2-7.2.6v38.8h6.9zm42.3 5.8v-50.4h6.8v50.4h-6.8zm62.3-2.1c-4.3 2.1-9.1 3.2-14.3 3.2-7.3 0-12.9-2.3-16.9-6.9s-6-11.1-6-19.4c0-5.5.9-10.3 2.8-14.2 1.8-4 4.5-7 7.9-9s7.4-3.1 12-3.1c4.9 0 9.4 1.1 13.6 3.2v5.7c-4.3-2.1-8.6-3.1-12.9-3.1-5.3 0-9.3 1.7-12 5.2-2.7 3.5-4.1 8.6-4.1 15.3 0 6.8 1.4 11.9 4.1 15.4s6.8 5.2 12.2 5.2c2.5 0 4.9-.3 7.1-.9v-15.8h-5.6l.8-5.7h11.3v24.9zm18.4 2.1v-50.4h6.8v50.4h-6.8zm36.5 0v-44.7h-14.4v-5.8h35.6v5.8h-14.4v44.7h-6.8zm62.6 0l-4.1-12.5h-20.1l-4 12.5h-7l17.1-50.4h8.1l17.1 50.4h-7.1zm-22.6-17.8h16.7l-8.4-26-8.3 26zm44.4 17.8v-50.4h6.8v44.7h22.6v5.8l-29.4-.1zm-257.6 78.4v-50.5h29.8v5.8h-23v17.3h20.1v5.8h-20.1v21.6h-6.8zm42.9-25.2c0-8.5 1.8-15 5.4-19.5s8.7-6.8 15.5-6.8 11.9 2.3 15.5 6.8c3.6 4.5 5.4 11 5.4 19.5s-1.8 15-5.4 19.5c-3.6 4.5-8.7 6.8-15.5 6.8s-11.9-2.2-15.5-6.8c-3.7-4.5-5.4-11-5.4-19.5zm7.2 0c0 6.9 1.1 12.1 3.3 15.5s5.6 5.1 10.3 5.1 8.1-1.7 10.3-5.1c2.2-3.4 3.3-8.5 3.3-15.5 0-6.9-1.1-12.1-3.3-15.5s-5.6-5.1-10.3-5.1c-4.6 0-8.1 1.7-10.3 5.1s-3.3 8.6-3.3 15.5zm80.2 25.2l-12-20h-8.9v20h-6.7v-49.4c2.2-.5 4.7-.9 7.4-1.2s5.1-.4 7.1-.4c5.7 0 10.2 1.4 13.4 4.2s4.9 6.6 4.9 11.5c0 3.5-.9 6.5-2.8 8.9-1.9 2.5-4.5 4.2-7.9 5.3l13.4 21.1h-7.9zm-13.4-45.5c-2.2 0-4.7.2-7.4.7v19.5h7.2c3.8 0 6.8-.9 8.9-2.6 2.1-1.7 3.1-4.2 3.1-7.4 0-3.3-1-5.9-3-7.6-2-1.7-5-2.6-8.8-2.6zm81.8 43.4c-4.3 2.1-9.1 3.2-14.3 3.2-7.3 0-12.9-2.3-16.9-6.9-4-4.6-6-11.1-6-19.4 0-5.5.9-10.3 2.8-14.2s4.5-7 7.9-9c3.4-2 7.4-3.1 12-3.1 4.9 0 9.4 1.1 13.6 3.2v5.7c-4.3-2.1-8.6-3.1-12.9-3.1-5.3 0-9.3 1.7-12 5.2-2.8 3.5-4.1 8.6-4.1 15.3 0 6.8 1.4 11.9 4.1 15.4s6.8 5.2 12.2 5.2c2.5 0 4.9-.3 7.1-.9v-15.8h-5.5l.8-5.7h11.3l-.1 24.9zm16.1-23.1c0-8.5 1.8-15 5.4-19.5s8.7-6.8 15.5-6.8c6.7 0 11.9 2.3 15.5 6.8 3.6 4.5 5.4 11 5.4 19.5s-1.8 15-5.4 19.5c-3.6 4.5-8.7 6.8-15.5 6.8-6.7 0-11.9-2.2-15.5-6.8-3.6-4.5-5.4-11-5.4-19.5zm7.2 0c0 6.9 1.1 12.1 3.3 15.5 2.2 3.4 5.6 5.1 10.3 5.1s8.1-1.7 10.3-5.1c2.2-3.4 3.3-8.5 3.3-15.5 0-6.9-1.1-12.1-3.3-15.5-2.2-3.4-5.6-5.1-10.3-5.1-4.6 0-8.1 1.7-10.3 5.1-2.2 3.4-3.3 8.6-3.3 15.5zm50.4 0c0-8.5 1.8-15 5.4-19.5s8.7-6.8 15.5-6.8c6.7 0 11.9 2.3 15.5 6.8 3.6 4.5 5.4 11 5.4 19.5s-1.8 15-5.4 19.5c-3.6 4.5-8.7 6.8-15.5 6.8s-11.9-2.2-15.5-6.8c-3.6-4.5-5.4-11-5.4-19.5zm7.3 0c0 6.9 1.1 12.1 3.3 15.5s5.6 5.1 10.3 5.1 8.1-1.7 10.3-5.1c2.2-3.4 3.3-8.5 3.3-15.5 0-6.9-1.1-12.1-3.3-15.5s-5.6-5.1-10.3-5.1c-4.6 0-8.1 1.7-10.3 5.1-2.2 3.4-3.3 8.6-3.3 15.5zm52.7 25.2v-49.4c5.1-1.1 9.9-1.6 14.1-1.6 7.5 0 13.4 2.2 17.5 6.7 4.1 4.4 6.1 10.7 6.1 18.8 0 8.3-2.1 14.6-6.2 19s-10.1 6.6-17.8 6.6l-13.7-.1zm13.7-5.7c5.6 0 9.8-1.6 12.6-4.9 2.8-3.2 4.2-8.2 4.2-14.7 0-6.7-1.4-11.7-4.1-15-2.7-3.2-6.9-4.9-12.4-4.9-2.2 0-4.6.2-7.2.6v38.8l6.9.1zm33.5-31.9v-9.7h-3.2v-1.1h7.6v1.1h-3.2v9.7h-1.2zm15.3 0l-.6-8.8-3 7.7h-1.1l-3-7.7-.5 8.8h-1.2l.8-10.7h1.4l3.1 8.1 3.1-8.1h1.4l.8 10.7h-1.2zm-387.9 97.5v-34.4H100v-2.7h25v2.7h-10.9v34.4h-3.2zm34.9-17.6v14.8h17.6v2.7h-20.9v-37.1h20.8v2.7h-17.6v14.1H161v2.7l-15.2.1zm57.9 16.1c-3 1.5-6.1 2.3-9.3 2.3-4.6 0-8.2-1.7-10.7-5.1s-3.9-8.1-3.9-14.2 1.3-10.8 3.9-14.2c2.6-3.4 6.2-5.1 10.7-5.1 3.1 0 6.2.8 9.1 2.3v2.7c-1.6-.8-3.1-1.3-4.4-1.7-1.4-.4-2.8-.5-4.3-.5-3.8 0-6.7 1.4-8.6 4.2-1.9 2.8-2.9 6.9-2.9 12.4s1 9.6 2.9 12.4 4.8 4.2 8.6 4.2c2.9 0 5.9-.8 8.9-2.2v2.5zm19.5 1.5v-37.1h3.2V370h19v-16.6h3.2v37.1h-3.2v-17.8h-19v17.8h-3.2zM280 387c2.4 1 4.6 1.5 6.7 1.5 2.8 0 4.8-.9 6.2-2.6s2.1-4.3 2.1-7.6v-24.9h3.2v24.9c0 4.3-.9 7.5-2.8 9.7-1.9 2.2-4.7 3.3-8.4 3.3-2.2 0-4.4-.5-6.5-1.4l-.5-2.9zm60.9 3.5l-3.4-10h-16.1l-3.3 10h-3.4l12.8-37.1h3.8l12.9 37.1h-3.3zm-18.7-12.6h14.4l-7.3-21.4-7.1 21.4zm70.6 12.6l-2-32.6-11.3 29.4h-3l-11.4-29.5-1.9 32.7h-3.1l2.5-37.1h3.8l11.6 30.1 11.7-30.1h3.8l2.5 37.1h-3.2z"/><g class="st2"><path class="st1" d="M115 431.4h1.7V451H115l-10.5-16.7V451h-1.7v-19.6h1.7l10.5 16.7v-16.7zm12 20.1c-2 0-3.6-.6-4.6-1.9-1-1.3-1.6-3.1-1.6-5.6 0-2.4.5-4.3 1.6-5.6 1-1.3 2.6-1.9 4.6-1.9s3.6.6 4.6 1.9c1 1.3 1.6 3.1 1.6 5.6 0 2.5-.5 4.3-1.6 5.6-1 1.2-2.5 1.9-4.6 1.9zm0-1.4c1.5 0 2.6-.5 3.3-1.5.7-1 1-2.5 1-4.7 0-2.1-.4-3.7-1-4.6-.7-1-1.8-1.5-3.3-1.5-1.5 0-2.6.5-3.3 1.5-.7 1-1.1 2.5-1.1 4.6 0 2.1.4 3.7 1.1 4.7.7 1 1.8 1.5 3.3 1.5zm12.9.9l-5.3-14.1h1.8l4.4 12.3 4.5-12.3h1.7l-5.4 14.1h-1.7zm19.3-.5c-1.3.6-2.7.9-4.1.9-2.1 0-3.8-.6-5-1.9-1.2-1.3-1.7-3.1-1.7-5.5s.5-4.2 1.6-5.5c1.1-1.3 2.6-2 4.5-2 1.7 0 3 .5 3.9 1.6s1.4 2.5 1.4 4.2c0 .7-.1 1.3-.2 1.9H150c0 3.9 1.7 5.9 5.2 5.9 1.4 0 2.7-.3 4-.9v1.3zm-4.8-12.6c-1.3 0-2.3.5-3.1 1.4-.8.9-1.2 2.2-1.3 3.8h8.2c0-.3.1-.6.1-.8 0-1.4-.3-2.5-1-3.2-.8-.9-1.7-1.2-2.9-1.2zm26 13.1v-10c0-2.1-1-3.2-3-3.2-1.2 0-2.5.4-4 1.3.1.5.2 1 .2 1.6V451H172v-10c0-2.1-1-3.2-3-3.2-1.1 0-2.4.4-3.8 1.1v12h-1.7v-14l1.4-.1.1 1c1.6-.9 3-1.3 4.3-1.3 1.6 0 2.8.5 3.6 1.6 1.8-1.1 3.4-1.6 4.9-1.6 1.4 0 2.4.4 3.2 1.1.7.7 1.1 1.8 1.1 3.1V451h-1.7zm7.9-13.2c.7-.4 1.4-.7 2.2-.9.7-.2 1.4-.3 2.1-.3 1.8 0 3.3.6 4.3 1.9s1.6 3 1.6 5.3c0 2.5-.6 4.4-1.8 5.7-1.2 1.3-2.9 2-5.1 2-1.6 0-3.2-.3-4.9-.8V430l1.7-.2v8zm4 .1c-.6 0-1.3.1-2 .3-.7.2-1.4.5-2 .8v10.6c1 .3 2 .4 3.1.4 1.8 0 3.1-.5 4-1.6.9-1 1.3-2.6 1.3-4.8 0-1.9-.4-3.4-1.1-4.4-.8-.8-1.9-1.3-3.3-1.3zm19.8 12.6c-1.3.6-2.7.9-4.1.9-2.1 0-3.8-.6-5-1.9-1.2-1.3-1.7-3.1-1.7-5.5s.5-4.2 1.6-5.5c1.1-1.3 2.6-2 4.5-2 1.7 0 3 .5 3.9 1.6s1.4 2.5 1.4 4.2c0 .7-.1 1.3-.2 1.9h-9.6c0 3.9 1.7 5.9 5.2 5.9 1.4 0 2.7-.3 4-.9v1.3zm-4.8-12.6c-1.3 0-2.3.5-3.1 1.4-.8.9-1.2 2.2-1.3 3.8h8.2c0-.3.1-.6.1-.8 0-1.4-.3-2.5-1-3.2-.8-.9-1.7-1.2-2.9-1.2zm9.1 13.1v-14l1.4-.1.1 1.3c1.3-1 2.6-1.5 4-1.5.5 0 .9.1 1.2.2v1.4c-.5-.1-.9-.2-1.3-.2-1.3 0-2.6.5-3.8 1.4V451h-1.6zm19.9 0v-17.4l-4.8 3.2-.4-1.4 5.5-3.6h1.4V451h-1.7zm14.6-19.1c1 0 1.8 0 2.4-.1v1.5h-8.2l-.7 6.7c.5-.2 1-.4 1.7-.6.7-.1 1.4-.2 2-.2 1.8 0 3.3.5 4.4 1.6 1.1 1.1 1.6 2.5 1.6 4.3 0 1.3-.3 2.4-.9 3.4-.6 1-1.4 1.7-2.4 2.2-1 .5-2.2.8-3.6.8-.9 0-1.8-.1-2.7-.3s-1.7-.5-2.3-.8l-.3-1.5c1.6.8 3.3 1.2 5.1 1.2 1.7 0 3-.4 3.9-1.3.9-.9 1.4-2.1 1.4-3.7 0-1.5-.4-2.6-1.2-3.4s-2-1.2-3.5-1.2c-.7 0-1.4.1-2.2.3-.7.2-1.3.4-1.8.8l-.9-.6.9-9.1h7.3zm6 12.8v-1.5h7.3v1.5h-7.3zm13.8 6.3v-17.4l-4.8 3.2-.4-1.4 5.5-3.6h1.4V451h-1.7zm6.9 0c.7-2.4 1.8-5 3.1-7.7 1.3-2.8 3.1-6.1 5.3-10h-8.1c-1 0-1.8 0-2.4.1v-1.5h12.3v1.3c-2.4 4.1-4.2 7.5-5.4 10.2-1.3 2.7-2.3 5.2-3 7.6h-1.8zm9.2 4.3c.5-.7.9-1.3 1.2-2.1.3-.7.5-1.4.5-2.1-.3-.1-.5-.2-.6-.4s-.2-.5-.2-.8c0-.4.1-.7.4-.9.2-.2.6-.3.9-.3.4 0 .7.1 1 .4.2.3.3.7.3 1.2 0 .8-.3 1.8-.8 2.8-.5 1-1.2 1.9-2 2.6l-.7-.4zm12.7-4.3c.1-1.7.5-3.2 1.3-4.5.7-1.3 1.9-2.6 3.4-3.9l2.5-2c1-.8 1.7-1.6 2.1-2.2.4-.6.6-1.2.6-2 0-1.1-.4-2-1.2-2.7-.8-.7-1.9-1-3.2-1-.9 0-1.7.1-2.5.4-.8.3-1.6.7-2.5 1.3V433c1.6-1.1 3.4-1.7 5.3-1.7 1.7 0 3.1.5 4.1 1.4 1.1.9 1.6 2.1 1.6 3.6 0 .6-.1 1.2-.3 1.7s-.5 1.1-1 1.6-1.1 1.2-2 1.9l-2.4 2c-1.2 1-2.1 2-2.8 3s-1.1 2-1.2 3.1h7.8c1 0 1.8 0 2.4-.1v1.5h-12zm21.6.5c-2.2 0-3.9-.8-5-2.5s-1.7-4.2-1.7-7.5.6-5.8 1.7-7.5c1.1-1.7 2.8-2.5 5-2.5s3.9.8 5 2.5 1.7 4.2 1.7 7.5-.6 5.8-1.7 7.5c-1.1 1.6-2.8 2.5-5 2.5zm0-1.4c1.7 0 2.9-.7 3.8-2.1.8-1.4 1.2-3.6 1.2-6.5s-.4-5.1-1.2-6.5c-.8-1.4-2.1-2.1-3.8-2.1-1.7 0-2.9.7-3.8 2.1-.8 1.4-1.2 3.6-1.2 6.5s.4 5.1 1.2 6.5c.8 1.4 2.1 2.1 3.8 2.1zm14 .9v-17.4l-4.8 3.2-.4-1.4 5.5-3.6h1.4V451h-1.7zm6.6-.9c3.1-.1 5.6-.9 7.4-2.5 1.8-1.6 2.7-3.7 2.9-6.5-.5.8-1.3 1.4-2.3 1.9-1 .5-2.1.7-3.1.7-1.1 0-2.2-.3-3-.8-.9-.5-1.6-1.3-2-2.2-.5-.9-.7-1.9-.7-3 0-1.2.3-2.3.8-3.3.6-.9 1.3-1.7 2.3-2.2 1-.5 2-.8 3.2-.8 2.1 0 3.7.7 4.9 2.2 1.2 1.5 1.8 3.5 1.8 6.2 0 3.5-1 6.2-3 8.3-2 2-4.8 3.2-8.4 3.3l-.8-1.3zm5.1-7.7c1 0 2-.3 3-.8s1.7-1.2 2.2-2.1c0-2.1-.5-3.8-1.3-4.9-.9-1.1-2.1-1.7-3.6-1.7-1.4 0-2.5.4-3.3 1.3-.8.9-1.2 2.1-1.2 3.5s.4 2.6 1.2 3.4c.7.8 1.7 1.3 3 1.3z"/></g><g class="st2"><path class="st1" d="M114.4 493l-1.8-5.3h-8.7l-1.8 5.3h-1.8l6.9-19.6h2l7 19.6h-1.8zm-10.1-6.6h7.8l-3.9-11.3-3.9 11.3zm14.5 6.6v-14l1.4-.1.1 1.3c1.3-1 2.6-1.5 4-1.5.5 0 .9.1 1.2.2v1.4c-.5-.1-.9-.2-1.3-.2-1.3 0-2.6.5-3.8 1.4V493h-1.6zm18.7-.5c-1.2.6-2.6.9-4 .9-2 0-3.5-.6-4.6-1.9-1.1-1.3-1.6-3.1-1.6-5.5s.5-4.2 1.6-5.5c1.1-1.3 2.6-1.9 4.6-1.9 1.4 0 2.7.3 4 .9v1.3c-1.3-.6-2.6-.9-3.8-.9-1.5 0-2.7.5-3.4 1.5-.8 1-1.2 2.5-1.2 4.6 0 2 .4 3.5 1.2 4.5.8 1 1.9 1.5 3.4 1.5 1.3 0 2.6-.3 3.9-.9v1.4zm12.2.6l-.1-1c-1.6.9-3.2 1.3-4.8 1.3-1.4 0-2.6-.4-3.4-1.1s-1.3-1.8-1.3-3.1c0-1.4.5-2.5 1.4-3.2s2.3-1.1 4.2-1.1c1.1 0 2.4.1 3.8.4v-1.9c0-2.3-1.3-3.5-3.9-3.5-.7 0-1.4.1-2.3.3-.8.2-1.6.4-2.3.7v-1.3c.7-.3 1.4-.6 2.3-.8.9-.2 1.7-.3 2.5-.3 1.8 0 3.1.4 4 1.2.9.8 1.4 2 1.4 3.6v9.6l-1.5.2zm-4.5-1c.7 0 1.4-.1 2.1-.3.7-.2 1.5-.5 2.1-.8v-4.5c-1.2-.2-2.3-.3-3.5-.3-1.4 0-2.5.2-3.1.7-.7.5-1 1.3-1 2.3.1 1.9 1.2 2.9 3.4 2.9zm21.3-20.3V493l-1.4.1-.1-1c-1.6.9-3 1.3-4.4 1.3-1.8 0-3.3-.6-4.3-1.9-1-1.3-1.6-3-1.6-5.3 0-2.5.6-4.4 1.8-5.7 1.2-1.3 2.9-2 5.1-2 1.2 0 2.2.1 3.2.4v-7l1.7-.1zm-5.7 20.3c.6 0 1.3-.1 2-.3.7-.2 1.4-.5 2-.8v-10.6c-1-.3-2-.4-3.1-.4-1.8 0-3.1.5-4 1.6-.9 1-1.3 2.6-1.3 4.8 0 1.9.4 3.4 1.1 4.4.8.8 1.9 1.3 3.3 1.3zm11.2-16.6c-.4 0-.7-.1-.9-.3-.2-.2-.4-.5-.4-.9s.1-.7.4-.9c.2-.2.5-.3.9-.3s.7.1.9.3c.2.2.4.5.4.9s-.1.7-.4.9c-.2.2-.5.3-.9.3zm-.8 17.5v-13.9l1.7-.2V493h-1.7zm15 .1l-.1-1c-1.6.9-3.2 1.3-4.8 1.3-1.4 0-2.6-.4-3.4-1.1s-1.3-1.8-1.3-3.1c0-1.4.5-2.5 1.4-3.2s2.3-1.1 4.2-1.1c1.1 0 2.4.1 3.8.4v-1.9c0-2.3-1.3-3.5-3.9-3.5-.7 0-1.4.1-2.3.3-.8.2-1.6.4-2.3.7v-1.3c.7-.3 1.4-.6 2.3-.8.9-.2 1.7-.3 2.5-.3 1.8 0 3.1.4 4 1.2.9.8 1.4 2 1.4 3.6v9.6l-1.5.2zm-4.5-1c.7 0 1.4-.1 2.1-.3.7-.2 1.5-.5 2.1-.8v-4.5c-1.2-.2-2.3-.3-3.5-.3-1.4 0-2.5.2-3.1.7-.7.5-1 1.3-1 2.3.1 1.9 1.2 2.9 3.4 2.9zm19.8.9v-9.7c0-2.3-1.2-3.4-3.5-3.4-.6 0-1.3.1-2 .3-.7.2-1.5.5-2.2.8v12h-1.7v-14l1.4-.1.1 1c1.6-.9 3.2-1.3 4.8-1.3 1.5 0 2.7.4 3.5 1.2.8.8 1.2 1.9 1.2 3.3v10h-1.6zm13.6 0v-19.6h1.8v18.2h9.4v1.4h-11.2zm19.2.5c-2 0-3.6-.6-4.6-1.9-1-1.3-1.6-3.1-1.6-5.6 0-2.4.5-4.3 1.6-5.6 1-1.3 2.6-1.9 4.6-1.9s3.6.6 4.6 1.9c1 1.3 1.6 3.1 1.6 5.6 0 2.5-.5 4.3-1.6 5.6-1 1.2-2.5 1.9-4.6 1.9zm0-1.4c1.5 0 2.6-.5 3.3-1.5.7-1 1-2.5 1-4.7 0-2.1-.4-3.7-1-4.6-.7-1-1.8-1.5-3.3-1.5-1.5 0-2.6.5-3.3 1.5-.7 1-1.1 2.5-1.1 4.6 0 2.1.4 3.7 1.1 4.7.7 1 1.8 1.5 3.3 1.5zm10.4.9v-12.8h-2.1V479l2.1-.1v-3.2c0-1.4.3-2.4 1-3.2.7-.7 1.7-1.1 3-1.1.6 0 1.1.1 1.7.2v1.3c-.5-.1-1-.2-1.4-.2-.9 0-1.5.2-1.9.7-.4.5-.6 1.2-.6 2.1v3.3h6.6l.2-3.5 1.5-.2v3.7h4.2v1.3h-4.2v9c0 1 .2 1.7.6 2.1.4.5 1 .7 1.9.7.6 0 1.2-.1 1.9-.3v1.2c-.8.3-1.5.4-2.2.4-1.3 0-2.3-.3-2.9-1-.7-.7-1-1.7-1-3.1v-8.9h-6.5V493h-1.9zm15.6 4.3c.5-.7.9-1.3 1.2-2.1.3-.7.5-1.4.5-2.1-.3-.1-.5-.2-.6-.4s-.2-.5-.2-.8c0-.4.1-.7.4-.9.2-.2.6-.3.9-.3.4 0 .7.1 1 .4.2.3.3.7.3 1.2 0 .8-.3 1.8-.8 2.8-.5 1-1.2 1.9-2 2.6l-.7-.4zm18.3-4.3v-18.2h-5.9v-1.4h13.6v1.4h-5.9V493h-1.8zm14 .5c-2 0-3.6-.6-4.6-1.9-1-1.3-1.6-3.1-1.6-5.6 0-2.4.5-4.3 1.6-5.6 1-1.3 2.6-1.9 4.6-1.9s3.6.6 4.6 1.9c1 1.3 1.6 3.1 1.6 5.6 0 2.5-.5 4.3-1.6 5.6-1 1.2-2.6 1.9-4.6 1.9zm0-1.4c1.5 0 2.6-.5 3.3-1.5.7-1 1-2.5 1-4.7 0-2.1-.4-3.7-1-4.6-.7-1-1.8-1.5-3.3-1.5-1.5 0-2.6.5-3.3 1.5-.7 1-1.1 2.5-1.1 4.6 0 2.1.4 3.7 1.1 4.7.7 1 1.8 1.5 3.3 1.5zm9.9.9v-14l1.4-.1.1 1.3c1.3-1 2.6-1.5 4-1.5.5 0 .9.1 1.2.2v1.4c-.5-.1-.9-.2-1.3-.2-1.3 0-2.6.5-3.8 1.4V493h-1.6zm14.6.5c-2 0-3.6-.6-4.6-1.9-1-1.3-1.6-3.1-1.6-5.6 0-2.4.5-4.3 1.6-5.6 1-1.3 2.6-1.9 4.6-1.9s3.6.6 4.6 1.9c1 1.3 1.6 3.1 1.6 5.6 0 2.5-.5 4.3-1.6 5.6-1 1.2-2.5 1.9-4.6 1.9zm0-1.4c1.5 0 2.6-.5 3.3-1.5.7-1 1-2.5 1-4.7 0-2.1-.3-3.7-1-4.6-.7-1-1.8-1.5-3.3-1.5s-2.6.5-3.3 1.5c-.7 1-1 2.5-1 4.6 0 2.1.3 3.7 1 4.7s1.8 1.5 3.3 1.5zm19.4.9v-9.7c0-2.3-1.2-3.4-3.5-3.4-.6 0-1.3.1-2 .3-.7.2-1.5.5-2.2.8v12h-1.7v-14l1.4-.1.1 1c1.6-.9 3.2-1.3 4.8-1.3 1.5 0 2.7.4 3.5 1.2s1.2 1.9 1.2 3.3v10h-1.6zm8.2-12.7v9c0 1 .2 1.7.6 2.1.4.5 1 .7 1.9.7.6 0 1.2-.1 1.9-.3v1.2c-.8.3-1.5.4-2.2.4-1.3 0-2.3-.3-2.9-1s-1-1.7-1-3.1v-8.9h-2.1V479l2.2-.1.2-3.5 1.5-.2v3.7h4.2v1.3h-4.3zm12.6 13.2c-2 0-3.6-.6-4.6-1.9-1-1.3-1.6-3.1-1.6-5.6 0-2.4.5-4.3 1.6-5.6 1-1.3 2.6-1.9 4.6-1.9s3.6.6 4.6 1.9c1 1.3 1.6 3.1 1.6 5.6 0 2.5-.5 4.3-1.6 5.6-1 1.2-2.6 1.9-4.6 1.9zm0-1.4c1.5 0 2.6-.5 3.3-1.5.7-1 1.1-2.5 1.1-4.7 0-2.1-.4-3.7-1.1-4.6-.7-1-1.8-1.5-3.3-1.5-1.5 0-2.6.5-3.3 1.5-.7 1-1.1 2.5-1.1 4.6 0 2.1.4 3.7 1.1 4.7.6 1 1.8 1.5 3.3 1.5zm7.8 5.2c.5-.7.9-1.3 1.2-2.1.3-.7.5-1.4.5-2.1-.3-.1-.5-.2-.6-.4-.1-.2-.2-.5-.2-.8 0-.4.1-.7.4-.9s.6-.3.9-.3c.4 0 .7.1 1 .4.2.3.3.7.3 1.2 0 .8-.3 1.8-.8 2.8-.5 1-1.2 1.9-2 2.6l-.7-.4zm26.7-5c-1.6.8-3.3 1.2-5 1.2-2.5 0-4.4-.9-5.8-2.7-1.4-1.8-2.1-4.3-2.1-7.5s.7-5.7 2.1-7.5c1.4-1.8 3.3-2.7 5.8-2.7 1.7 0 3.3.4 5 1.2v1.4c-.9-.4-1.7-.7-2.4-.9-.7-.2-1.5-.3-2.3-.3-2.1 0-3.6.7-4.7 2.2s-1.6 3.7-1.6 6.5.5 5.1 1.6 6.5c1.1 1.5 2.6 2.2 4.7 2.2 1.6 0 3.2-.4 4.8-1.2v1.6zm12.4.8l-.1-1c-1.6.9-3.2 1.3-4.8 1.3-1.4 0-2.6-.4-3.4-1.1s-1.3-1.8-1.3-3.1c0-1.4.5-2.5 1.4-3.2.9-.7 2.3-1.1 4.2-1.1 1.1 0 2.4.1 3.8.4v-1.9c0-2.3-1.3-3.5-3.9-3.5-.7 0-1.4.1-2.3.3-.8.2-1.6.4-2.3.7v-1.3c.7-.3 1.4-.6 2.3-.8.9-.2 1.7-.3 2.5-.3 1.8 0 3.1.4 4 1.2.9.8 1.4 2 1.4 3.6v9.6l-1.5.2zm-4.4-1c.7 0 1.4-.1 2.1-.3.7-.2 1.5-.5 2.1-.8v-4.5c-1.2-.2-2.3-.3-3.5-.3-1.4 0-2.5.2-3.1.7s-1 1.3-1 2.3c0 1.9 1.1 2.9 3.4 2.9zm19.8.9v-9.7c0-2.3-1.2-3.4-3.5-3.4-.6 0-1.3.1-2 .3-.7.2-1.5.5-2.2.8v12h-1.7v-14l1.4-.1.1 1c1.6-.9 3.2-1.3 4.8-1.3 1.5 0 2.7.4 3.5 1.2.8.8 1.2 1.9 1.2 3.3v10h-1.6zm14.8.1l-.1-1c-1.6.9-3.2 1.3-4.8 1.3-1.4 0-2.6-.4-3.4-1.1s-1.3-1.8-1.3-3.1c0-1.4.5-2.5 1.4-3.2s2.3-1.1 4.2-1.1c1.1 0 2.4.1 3.8.4v-1.9c0-2.3-1.3-3.5-3.9-3.5-.7 0-1.4.1-2.3.3s-1.6.4-2.3.7v-1.3c.7-.3 1.4-.6 2.3-.8.9-.2 1.7-.3 2.5-.3 1.8 0 3.1.4 4 1.2.9.8 1.4 2 1.4 3.6v9.6l-1.5.2zm-4.5-1c.7 0 1.4-.1 2.1-.3.7-.2 1.5-.5 2.1-.8v-4.5c-1.2-.2-2.3-.3-3.5-.3-1.4 0-2.5.2-3.1.7-.7.5-1 1.3-1 2.3.1 1.9 1.2 2.9 3.4 2.9zm21.3-20.3V493l-1.4.1-.1-1c-1.6.9-3 1.3-4.4 1.3-1.8 0-3.3-.6-4.3-1.9-1-1.3-1.6-3-1.6-5.3 0-2.5.6-4.4 1.8-5.7s2.9-2 5.1-2c1.2 0 2.2.1 3.2.4v-7l1.7-.1zm-5.7 20.3c.6 0 1.3-.1 2-.3.7-.2 1.4-.5 2-.8v-10.6c-1-.3-2-.4-3.1-.4-1.8 0-3.1.5-4 1.6-.9 1-1.3 2.6-1.3 4.8 0 1.9.4 3.4 1.1 4.4.8.8 1.9 1.3 3.3 1.3zm19 1l-.1-1c-1.6.9-3.2 1.3-4.8 1.3-1.4 0-2.6-.4-3.4-1.1s-1.3-1.8-1.3-3.1c0-1.4.5-2.5 1.4-3.2s2.3-1.1 4.2-1.1c1.1 0 2.4.1 3.8.4v-1.9c0-2.3-1.3-3.5-3.9-3.5-.7 0-1.4.1-2.3.3-.8.2-1.6.4-2.3.7v-1.3c.7-.3 1.4-.6 2.3-.8s1.7-.3 2.5-.3c1.8 0 3.1.4 4 1.2.9.8 1.4 2 1.4 3.6v9.6l-1.5.2zm-4.5-1c.7 0 1.4-.1 2.1-.3.7-.2 1.5-.5 2.1-.8v-4.5c-1.2-.2-2.3-.3-3.5-.3-1.4 0-2.5.2-3.1.7-.7.5-1 1.3-1 2.3.1 1.9 1.2 2.9 3.4 2.9z"/></g></svg>